%TF.GenerationSoftware,KiCad,Pcbnew,7.0.10*%
%TF.CreationDate,2024-02-07T12:20:56-05:00*%
%TF.ProjectId,board_up,626f6172-645f-4757-902e-6b696361645f,rev?*%
%TF.SameCoordinates,Original*%
%TF.FileFunction,Legend,Top*%
%TF.FilePolarity,Positive*%
%FSLAX46Y46*%
G04 Gerber Fmt 4.6, Leading zero omitted, Abs format (unit mm)*
G04 Created by KiCad (PCBNEW 7.0.10) date 2024-02-07 12:20:56*
%MOMM*%
%LPD*%
G01*
G04 APERTURE LIST*
%ADD10C,0.150000*%
%ADD11C,0.100000*%
%ADD12C,0.120000*%
G04 APERTURE END LIST*
D10*
X37960000Y-88530000D02*
X60960000Y-88530000D01*
X40530000Y-1430000D02*
X58530000Y-1430000D01*
X58530000Y-21430000D01*
X40530000Y-21430000D01*
X40530000Y-1430000D01*
X37960000Y-10530000D02*
X37960000Y-88530000D01*
X60960000Y-10530000D02*
X60960000Y-88530000D01*
X37960000Y-10530000D02*
X60960000Y-10530000D01*
X59990057Y-77247619D02*
X59942438Y-77342857D01*
X59942438Y-77342857D02*
X59847200Y-77438095D01*
X59847200Y-77438095D02*
X59704342Y-77580952D01*
X59704342Y-77580952D02*
X59656723Y-77676190D01*
X59656723Y-77676190D02*
X59656723Y-77771428D01*
X59894819Y-77723809D02*
X59847200Y-77819047D01*
X59847200Y-77819047D02*
X59751961Y-77914285D01*
X59751961Y-77914285D02*
X59561485Y-77961904D01*
X59561485Y-77961904D02*
X59228152Y-77961904D01*
X59228152Y-77961904D02*
X59037676Y-77914285D01*
X59037676Y-77914285D02*
X58942438Y-77819047D01*
X58942438Y-77819047D02*
X58894819Y-77723809D01*
X58894819Y-77723809D02*
X58894819Y-77533333D01*
X58894819Y-77533333D02*
X58942438Y-77438095D01*
X58942438Y-77438095D02*
X59037676Y-77342857D01*
X59037676Y-77342857D02*
X59228152Y-77295238D01*
X59228152Y-77295238D02*
X59561485Y-77295238D01*
X59561485Y-77295238D02*
X59751961Y-77342857D01*
X59751961Y-77342857D02*
X59847200Y-77438095D01*
X59847200Y-77438095D02*
X59894819Y-77533333D01*
X59894819Y-77533333D02*
X59894819Y-77723809D01*
X59228152Y-76438095D02*
X59894819Y-76438095D01*
X58847200Y-76676190D02*
X59561485Y-76914285D01*
X59561485Y-76914285D02*
X59561485Y-76295238D01*
X58894819Y-75723809D02*
X58894819Y-75628571D01*
X58894819Y-75628571D02*
X58942438Y-75533333D01*
X58942438Y-75533333D02*
X58990057Y-75485714D01*
X58990057Y-75485714D02*
X59085295Y-75438095D01*
X59085295Y-75438095D02*
X59275771Y-75390476D01*
X59275771Y-75390476D02*
X59513866Y-75390476D01*
X59513866Y-75390476D02*
X59704342Y-75438095D01*
X59704342Y-75438095D02*
X59799580Y-75485714D01*
X59799580Y-75485714D02*
X59847200Y-75533333D01*
X59847200Y-75533333D02*
X59894819Y-75628571D01*
X59894819Y-75628571D02*
X59894819Y-75723809D01*
X59894819Y-75723809D02*
X59847200Y-75819047D01*
X59847200Y-75819047D02*
X59799580Y-75866666D01*
X59799580Y-75866666D02*
X59704342Y-75914285D01*
X59704342Y-75914285D02*
X59513866Y-75961904D01*
X59513866Y-75961904D02*
X59275771Y-75961904D01*
X59275771Y-75961904D02*
X59085295Y-75914285D01*
X59085295Y-75914285D02*
X58990057Y-75866666D01*
X58990057Y-75866666D02*
X58942438Y-75819047D01*
X58942438Y-75819047D02*
X58894819Y-75723809D01*
X58990057Y-75009523D02*
X58942438Y-74961904D01*
X58942438Y-74961904D02*
X58894819Y-74866666D01*
X58894819Y-74866666D02*
X58894819Y-74628571D01*
X58894819Y-74628571D02*
X58942438Y-74533333D01*
X58942438Y-74533333D02*
X58990057Y-74485714D01*
X58990057Y-74485714D02*
X59085295Y-74438095D01*
X59085295Y-74438095D02*
X59180533Y-74438095D01*
X59180533Y-74438095D02*
X59323390Y-74485714D01*
X59323390Y-74485714D02*
X59894819Y-75057142D01*
X59894819Y-75057142D02*
X59894819Y-74438095D01*
X67594819Y-12549047D02*
X67118628Y-12882380D01*
X67594819Y-13120475D02*
X66594819Y-13120475D01*
X66594819Y-13120475D02*
X66594819Y-12739523D01*
X66594819Y-12739523D02*
X66642438Y-12644285D01*
X66642438Y-12644285D02*
X66690057Y-12596666D01*
X66690057Y-12596666D02*
X66785295Y-12549047D01*
X66785295Y-12549047D02*
X66928152Y-12549047D01*
X66928152Y-12549047D02*
X67023390Y-12596666D01*
X67023390Y-12596666D02*
X67071009Y-12644285D01*
X67071009Y-12644285D02*
X67118628Y-12739523D01*
X67118628Y-12739523D02*
X67118628Y-13120475D01*
X67594819Y-11596666D02*
X67594819Y-12168094D01*
X67594819Y-11882380D02*
X66594819Y-11882380D01*
X66594819Y-11882380D02*
X66737676Y-11977618D01*
X66737676Y-11977618D02*
X66832914Y-12072856D01*
X66832914Y-12072856D02*
X66880533Y-12168094D01*
X66594819Y-10977618D02*
X66594819Y-10882380D01*
X66594819Y-10882380D02*
X66642438Y-10787142D01*
X66642438Y-10787142D02*
X66690057Y-10739523D01*
X66690057Y-10739523D02*
X66785295Y-10691904D01*
X66785295Y-10691904D02*
X66975771Y-10644285D01*
X66975771Y-10644285D02*
X67213866Y-10644285D01*
X67213866Y-10644285D02*
X67404342Y-10691904D01*
X67404342Y-10691904D02*
X67499580Y-10739523D01*
X67499580Y-10739523D02*
X67547200Y-10787142D01*
X67547200Y-10787142D02*
X67594819Y-10882380D01*
X67594819Y-10882380D02*
X67594819Y-10977618D01*
X67594819Y-10977618D02*
X67547200Y-11072856D01*
X67547200Y-11072856D02*
X67499580Y-11120475D01*
X67499580Y-11120475D02*
X67404342Y-11168094D01*
X67404342Y-11168094D02*
X67213866Y-11215713D01*
X67213866Y-11215713D02*
X66975771Y-11215713D01*
X66975771Y-11215713D02*
X66785295Y-11168094D01*
X66785295Y-11168094D02*
X66690057Y-11120475D01*
X66690057Y-11120475D02*
X66642438Y-11072856D01*
X66642438Y-11072856D02*
X66594819Y-10977618D01*
X66690057Y-10263332D02*
X66642438Y-10215713D01*
X66642438Y-10215713D02*
X66594819Y-10120475D01*
X66594819Y-10120475D02*
X66594819Y-9882380D01*
X66594819Y-9882380D02*
X66642438Y-9787142D01*
X66642438Y-9787142D02*
X66690057Y-9739523D01*
X66690057Y-9739523D02*
X66785295Y-9691904D01*
X66785295Y-9691904D02*
X66880533Y-9691904D01*
X66880533Y-9691904D02*
X67023390Y-9739523D01*
X67023390Y-9739523D02*
X67594819Y-10310951D01*
X67594819Y-10310951D02*
X67594819Y-9691904D01*
X29194285Y-77964819D02*
X29194285Y-78679104D01*
X29194285Y-78679104D02*
X29146666Y-78821961D01*
X29146666Y-78821961D02*
X29051428Y-78917200D01*
X29051428Y-78917200D02*
X28908571Y-78964819D01*
X28908571Y-78964819D02*
X28813333Y-78964819D01*
X30194285Y-78964819D02*
X29622857Y-78964819D01*
X29908571Y-78964819D02*
X29908571Y-77964819D01*
X29908571Y-77964819D02*
X29813333Y-78107676D01*
X29813333Y-78107676D02*
X29718095Y-78202914D01*
X29718095Y-78202914D02*
X29622857Y-78250533D01*
X30575238Y-78060057D02*
X30622857Y-78012438D01*
X30622857Y-78012438D02*
X30718095Y-77964819D01*
X30718095Y-77964819D02*
X30956190Y-77964819D01*
X30956190Y-77964819D02*
X31051428Y-78012438D01*
X31051428Y-78012438D02*
X31099047Y-78060057D01*
X31099047Y-78060057D02*
X31146666Y-78155295D01*
X31146666Y-78155295D02*
X31146666Y-78250533D01*
X31146666Y-78250533D02*
X31099047Y-78393390D01*
X31099047Y-78393390D02*
X30527619Y-78964819D01*
X30527619Y-78964819D02*
X31146666Y-78964819D01*
X31765714Y-77964819D02*
X31860952Y-77964819D01*
X31860952Y-77964819D02*
X31956190Y-78012438D01*
X31956190Y-78012438D02*
X32003809Y-78060057D01*
X32003809Y-78060057D02*
X32051428Y-78155295D01*
X32051428Y-78155295D02*
X32099047Y-78345771D01*
X32099047Y-78345771D02*
X32099047Y-78583866D01*
X32099047Y-78583866D02*
X32051428Y-78774342D01*
X32051428Y-78774342D02*
X32003809Y-78869580D01*
X32003809Y-78869580D02*
X31956190Y-78917200D01*
X31956190Y-78917200D02*
X31860952Y-78964819D01*
X31860952Y-78964819D02*
X31765714Y-78964819D01*
X31765714Y-78964819D02*
X31670476Y-78917200D01*
X31670476Y-78917200D02*
X31622857Y-78869580D01*
X31622857Y-78869580D02*
X31575238Y-78774342D01*
X31575238Y-78774342D02*
X31527619Y-78583866D01*
X31527619Y-78583866D02*
X31527619Y-78345771D01*
X31527619Y-78345771D02*
X31575238Y-78155295D01*
X31575238Y-78155295D02*
X31622857Y-78060057D01*
X31622857Y-78060057D02*
X31670476Y-78012438D01*
X31670476Y-78012438D02*
X31765714Y-77964819D01*
X76422380Y-45250057D02*
X76327142Y-45202438D01*
X76327142Y-45202438D02*
X76231904Y-45107200D01*
X76231904Y-45107200D02*
X76089047Y-44964342D01*
X76089047Y-44964342D02*
X75993809Y-44916723D01*
X75993809Y-44916723D02*
X75898571Y-44916723D01*
X75946190Y-45154819D02*
X75850952Y-45107200D01*
X75850952Y-45107200D02*
X75755714Y-45011961D01*
X75755714Y-45011961D02*
X75708095Y-44821485D01*
X75708095Y-44821485D02*
X75708095Y-44488152D01*
X75708095Y-44488152D02*
X75755714Y-44297676D01*
X75755714Y-44297676D02*
X75850952Y-44202438D01*
X75850952Y-44202438D02*
X75946190Y-44154819D01*
X75946190Y-44154819D02*
X76136666Y-44154819D01*
X76136666Y-44154819D02*
X76231904Y-44202438D01*
X76231904Y-44202438D02*
X76327142Y-44297676D01*
X76327142Y-44297676D02*
X76374761Y-44488152D01*
X76374761Y-44488152D02*
X76374761Y-44821485D01*
X76374761Y-44821485D02*
X76327142Y-45011961D01*
X76327142Y-45011961D02*
X76231904Y-45107200D01*
X76231904Y-45107200D02*
X76136666Y-45154819D01*
X76136666Y-45154819D02*
X75946190Y-45154819D01*
X77279523Y-44154819D02*
X76803333Y-44154819D01*
X76803333Y-44154819D02*
X76755714Y-44631009D01*
X76755714Y-44631009D02*
X76803333Y-44583390D01*
X76803333Y-44583390D02*
X76898571Y-44535771D01*
X76898571Y-44535771D02*
X77136666Y-44535771D01*
X77136666Y-44535771D02*
X77231904Y-44583390D01*
X77231904Y-44583390D02*
X77279523Y-44631009D01*
X77279523Y-44631009D02*
X77327142Y-44726247D01*
X77327142Y-44726247D02*
X77327142Y-44964342D01*
X77327142Y-44964342D02*
X77279523Y-45059580D01*
X77279523Y-45059580D02*
X77231904Y-45107200D01*
X77231904Y-45107200D02*
X77136666Y-45154819D01*
X77136666Y-45154819D02*
X76898571Y-45154819D01*
X76898571Y-45154819D02*
X76803333Y-45107200D01*
X76803333Y-45107200D02*
X76755714Y-45059580D01*
X77946190Y-44154819D02*
X78041428Y-44154819D01*
X78041428Y-44154819D02*
X78136666Y-44202438D01*
X78136666Y-44202438D02*
X78184285Y-44250057D01*
X78184285Y-44250057D02*
X78231904Y-44345295D01*
X78231904Y-44345295D02*
X78279523Y-44535771D01*
X78279523Y-44535771D02*
X78279523Y-44773866D01*
X78279523Y-44773866D02*
X78231904Y-44964342D01*
X78231904Y-44964342D02*
X78184285Y-45059580D01*
X78184285Y-45059580D02*
X78136666Y-45107200D01*
X78136666Y-45107200D02*
X78041428Y-45154819D01*
X78041428Y-45154819D02*
X77946190Y-45154819D01*
X77946190Y-45154819D02*
X77850952Y-45107200D01*
X77850952Y-45107200D02*
X77803333Y-45059580D01*
X77803333Y-45059580D02*
X77755714Y-44964342D01*
X77755714Y-44964342D02*
X77708095Y-44773866D01*
X77708095Y-44773866D02*
X77708095Y-44535771D01*
X77708095Y-44535771D02*
X77755714Y-44345295D01*
X77755714Y-44345295D02*
X77803333Y-44250057D01*
X77803333Y-44250057D02*
X77850952Y-44202438D01*
X77850952Y-44202438D02*
X77946190Y-44154819D01*
X78660476Y-44250057D02*
X78708095Y-44202438D01*
X78708095Y-44202438D02*
X78803333Y-44154819D01*
X78803333Y-44154819D02*
X79041428Y-44154819D01*
X79041428Y-44154819D02*
X79136666Y-44202438D01*
X79136666Y-44202438D02*
X79184285Y-44250057D01*
X79184285Y-44250057D02*
X79231904Y-44345295D01*
X79231904Y-44345295D02*
X79231904Y-44440533D01*
X79231904Y-44440533D02*
X79184285Y-44583390D01*
X79184285Y-44583390D02*
X78612857Y-45154819D01*
X78612857Y-45154819D02*
X79231904Y-45154819D01*
X83174819Y-67159047D02*
X82698628Y-67492380D01*
X83174819Y-67730475D02*
X82174819Y-67730475D01*
X82174819Y-67730475D02*
X82174819Y-67349523D01*
X82174819Y-67349523D02*
X82222438Y-67254285D01*
X82222438Y-67254285D02*
X82270057Y-67206666D01*
X82270057Y-67206666D02*
X82365295Y-67159047D01*
X82365295Y-67159047D02*
X82508152Y-67159047D01*
X82508152Y-67159047D02*
X82603390Y-67206666D01*
X82603390Y-67206666D02*
X82651009Y-67254285D01*
X82651009Y-67254285D02*
X82698628Y-67349523D01*
X82698628Y-67349523D02*
X82698628Y-67730475D01*
X83174819Y-66206666D02*
X83174819Y-66778094D01*
X83174819Y-66492380D02*
X82174819Y-66492380D01*
X82174819Y-66492380D02*
X82317676Y-66587618D01*
X82317676Y-66587618D02*
X82412914Y-66682856D01*
X82412914Y-66682856D02*
X82460533Y-66778094D01*
X82174819Y-65587618D02*
X82174819Y-65492380D01*
X82174819Y-65492380D02*
X82222438Y-65397142D01*
X82222438Y-65397142D02*
X82270057Y-65349523D01*
X82270057Y-65349523D02*
X82365295Y-65301904D01*
X82365295Y-65301904D02*
X82555771Y-65254285D01*
X82555771Y-65254285D02*
X82793866Y-65254285D01*
X82793866Y-65254285D02*
X82984342Y-65301904D01*
X82984342Y-65301904D02*
X83079580Y-65349523D01*
X83079580Y-65349523D02*
X83127200Y-65397142D01*
X83127200Y-65397142D02*
X83174819Y-65492380D01*
X83174819Y-65492380D02*
X83174819Y-65587618D01*
X83174819Y-65587618D02*
X83127200Y-65682856D01*
X83127200Y-65682856D02*
X83079580Y-65730475D01*
X83079580Y-65730475D02*
X82984342Y-65778094D01*
X82984342Y-65778094D02*
X82793866Y-65825713D01*
X82793866Y-65825713D02*
X82555771Y-65825713D01*
X82555771Y-65825713D02*
X82365295Y-65778094D01*
X82365295Y-65778094D02*
X82270057Y-65730475D01*
X82270057Y-65730475D02*
X82222438Y-65682856D01*
X82222438Y-65682856D02*
X82174819Y-65587618D01*
X82174819Y-64920951D02*
X82174819Y-64254285D01*
X82174819Y-64254285D02*
X83174819Y-64682856D01*
X62214285Y-15734819D02*
X62214285Y-16449104D01*
X62214285Y-16449104D02*
X62166666Y-16591961D01*
X62166666Y-16591961D02*
X62071428Y-16687200D01*
X62071428Y-16687200D02*
X61928571Y-16734819D01*
X61928571Y-16734819D02*
X61833333Y-16734819D01*
X63214285Y-16734819D02*
X62642857Y-16734819D01*
X62928571Y-16734819D02*
X62928571Y-15734819D01*
X62928571Y-15734819D02*
X62833333Y-15877676D01*
X62833333Y-15877676D02*
X62738095Y-15972914D01*
X62738095Y-15972914D02*
X62642857Y-16020533D01*
X64166666Y-16734819D02*
X63595238Y-16734819D01*
X63880952Y-16734819D02*
X63880952Y-15734819D01*
X63880952Y-15734819D02*
X63785714Y-15877676D01*
X63785714Y-15877676D02*
X63690476Y-15972914D01*
X63690476Y-15972914D02*
X63595238Y-16020533D01*
X65119047Y-16734819D02*
X64547619Y-16734819D01*
X64833333Y-16734819D02*
X64833333Y-15734819D01*
X64833333Y-15734819D02*
X64738095Y-15877676D01*
X64738095Y-15877676D02*
X64642857Y-15972914D01*
X64642857Y-15972914D02*
X64547619Y-16020533D01*
X76422380Y-40170057D02*
X76327142Y-40122438D01*
X76327142Y-40122438D02*
X76231904Y-40027200D01*
X76231904Y-40027200D02*
X76089047Y-39884342D01*
X76089047Y-39884342D02*
X75993809Y-39836723D01*
X75993809Y-39836723D02*
X75898571Y-39836723D01*
X75946190Y-40074819D02*
X75850952Y-40027200D01*
X75850952Y-40027200D02*
X75755714Y-39931961D01*
X75755714Y-39931961D02*
X75708095Y-39741485D01*
X75708095Y-39741485D02*
X75708095Y-39408152D01*
X75708095Y-39408152D02*
X75755714Y-39217676D01*
X75755714Y-39217676D02*
X75850952Y-39122438D01*
X75850952Y-39122438D02*
X75946190Y-39074819D01*
X75946190Y-39074819D02*
X76136666Y-39074819D01*
X76136666Y-39074819D02*
X76231904Y-39122438D01*
X76231904Y-39122438D02*
X76327142Y-39217676D01*
X76327142Y-39217676D02*
X76374761Y-39408152D01*
X76374761Y-39408152D02*
X76374761Y-39741485D01*
X76374761Y-39741485D02*
X76327142Y-39931961D01*
X76327142Y-39931961D02*
X76231904Y-40027200D01*
X76231904Y-40027200D02*
X76136666Y-40074819D01*
X76136666Y-40074819D02*
X75946190Y-40074819D01*
X77279523Y-39074819D02*
X76803333Y-39074819D01*
X76803333Y-39074819D02*
X76755714Y-39551009D01*
X76755714Y-39551009D02*
X76803333Y-39503390D01*
X76803333Y-39503390D02*
X76898571Y-39455771D01*
X76898571Y-39455771D02*
X77136666Y-39455771D01*
X77136666Y-39455771D02*
X77231904Y-39503390D01*
X77231904Y-39503390D02*
X77279523Y-39551009D01*
X77279523Y-39551009D02*
X77327142Y-39646247D01*
X77327142Y-39646247D02*
X77327142Y-39884342D01*
X77327142Y-39884342D02*
X77279523Y-39979580D01*
X77279523Y-39979580D02*
X77231904Y-40027200D01*
X77231904Y-40027200D02*
X77136666Y-40074819D01*
X77136666Y-40074819D02*
X76898571Y-40074819D01*
X76898571Y-40074819D02*
X76803333Y-40027200D01*
X76803333Y-40027200D02*
X76755714Y-39979580D01*
X77946190Y-39074819D02*
X78041428Y-39074819D01*
X78041428Y-39074819D02*
X78136666Y-39122438D01*
X78136666Y-39122438D02*
X78184285Y-39170057D01*
X78184285Y-39170057D02*
X78231904Y-39265295D01*
X78231904Y-39265295D02*
X78279523Y-39455771D01*
X78279523Y-39455771D02*
X78279523Y-39693866D01*
X78279523Y-39693866D02*
X78231904Y-39884342D01*
X78231904Y-39884342D02*
X78184285Y-39979580D01*
X78184285Y-39979580D02*
X78136666Y-40027200D01*
X78136666Y-40027200D02*
X78041428Y-40074819D01*
X78041428Y-40074819D02*
X77946190Y-40074819D01*
X77946190Y-40074819D02*
X77850952Y-40027200D01*
X77850952Y-40027200D02*
X77803333Y-39979580D01*
X77803333Y-39979580D02*
X77755714Y-39884342D01*
X77755714Y-39884342D02*
X77708095Y-39693866D01*
X77708095Y-39693866D02*
X77708095Y-39455771D01*
X77708095Y-39455771D02*
X77755714Y-39265295D01*
X77755714Y-39265295D02*
X77803333Y-39170057D01*
X77803333Y-39170057D02*
X77850952Y-39122438D01*
X77850952Y-39122438D02*
X77946190Y-39074819D01*
X79231904Y-40074819D02*
X78660476Y-40074819D01*
X78946190Y-40074819D02*
X78946190Y-39074819D01*
X78946190Y-39074819D02*
X78850952Y-39217676D01*
X78850952Y-39217676D02*
X78755714Y-39312914D01*
X78755714Y-39312914D02*
X78660476Y-39360533D01*
X29194285Y-70344819D02*
X29194285Y-71059104D01*
X29194285Y-71059104D02*
X29146666Y-71201961D01*
X29146666Y-71201961D02*
X29051428Y-71297200D01*
X29051428Y-71297200D02*
X28908571Y-71344819D01*
X28908571Y-71344819D02*
X28813333Y-71344819D01*
X30194285Y-71344819D02*
X29622857Y-71344819D01*
X29908571Y-71344819D02*
X29908571Y-70344819D01*
X29908571Y-70344819D02*
X29813333Y-70487676D01*
X29813333Y-70487676D02*
X29718095Y-70582914D01*
X29718095Y-70582914D02*
X29622857Y-70630533D01*
X31146666Y-71344819D02*
X30575238Y-71344819D01*
X30860952Y-71344819D02*
X30860952Y-70344819D01*
X30860952Y-70344819D02*
X30765714Y-70487676D01*
X30765714Y-70487676D02*
X30670476Y-70582914D01*
X30670476Y-70582914D02*
X30575238Y-70630533D01*
X31480000Y-70344819D02*
X32146666Y-70344819D01*
X32146666Y-70344819D02*
X31718095Y-71344819D01*
X47274819Y-31599047D02*
X46798628Y-31932380D01*
X47274819Y-32170475D02*
X46274819Y-32170475D01*
X46274819Y-32170475D02*
X46274819Y-31789523D01*
X46274819Y-31789523D02*
X46322438Y-31694285D01*
X46322438Y-31694285D02*
X46370057Y-31646666D01*
X46370057Y-31646666D02*
X46465295Y-31599047D01*
X46465295Y-31599047D02*
X46608152Y-31599047D01*
X46608152Y-31599047D02*
X46703390Y-31646666D01*
X46703390Y-31646666D02*
X46751009Y-31694285D01*
X46751009Y-31694285D02*
X46798628Y-31789523D01*
X46798628Y-31789523D02*
X46798628Y-32170475D01*
X46274819Y-30694285D02*
X46274819Y-31170475D01*
X46274819Y-31170475D02*
X46751009Y-31218094D01*
X46751009Y-31218094D02*
X46703390Y-31170475D01*
X46703390Y-31170475D02*
X46655771Y-31075237D01*
X46655771Y-31075237D02*
X46655771Y-30837142D01*
X46655771Y-30837142D02*
X46703390Y-30741904D01*
X46703390Y-30741904D02*
X46751009Y-30694285D01*
X46751009Y-30694285D02*
X46846247Y-30646666D01*
X46846247Y-30646666D02*
X47084342Y-30646666D01*
X47084342Y-30646666D02*
X47179580Y-30694285D01*
X47179580Y-30694285D02*
X47227200Y-30741904D01*
X47227200Y-30741904D02*
X47274819Y-30837142D01*
X47274819Y-30837142D02*
X47274819Y-31075237D01*
X47274819Y-31075237D02*
X47227200Y-31170475D01*
X47227200Y-31170475D02*
X47179580Y-31218094D01*
X46274819Y-30027618D02*
X46274819Y-29932380D01*
X46274819Y-29932380D02*
X46322438Y-29837142D01*
X46322438Y-29837142D02*
X46370057Y-29789523D01*
X46370057Y-29789523D02*
X46465295Y-29741904D01*
X46465295Y-29741904D02*
X46655771Y-29694285D01*
X46655771Y-29694285D02*
X46893866Y-29694285D01*
X46893866Y-29694285D02*
X47084342Y-29741904D01*
X47084342Y-29741904D02*
X47179580Y-29789523D01*
X47179580Y-29789523D02*
X47227200Y-29837142D01*
X47227200Y-29837142D02*
X47274819Y-29932380D01*
X47274819Y-29932380D02*
X47274819Y-30027618D01*
X47274819Y-30027618D02*
X47227200Y-30122856D01*
X47227200Y-30122856D02*
X47179580Y-30170475D01*
X47179580Y-30170475D02*
X47084342Y-30218094D01*
X47084342Y-30218094D02*
X46893866Y-30265713D01*
X46893866Y-30265713D02*
X46655771Y-30265713D01*
X46655771Y-30265713D02*
X46465295Y-30218094D01*
X46465295Y-30218094D02*
X46370057Y-30170475D01*
X46370057Y-30170475D02*
X46322438Y-30122856D01*
X46322438Y-30122856D02*
X46274819Y-30027618D01*
X47274819Y-28741904D02*
X47274819Y-29313332D01*
X47274819Y-29027618D02*
X46274819Y-29027618D01*
X46274819Y-29027618D02*
X46417676Y-29122856D01*
X46417676Y-29122856D02*
X46512914Y-29218094D01*
X46512914Y-29218094D02*
X46560533Y-29313332D01*
X36814285Y-15734819D02*
X36814285Y-16449104D01*
X36814285Y-16449104D02*
X36766666Y-16591961D01*
X36766666Y-16591961D02*
X36671428Y-16687200D01*
X36671428Y-16687200D02*
X36528571Y-16734819D01*
X36528571Y-16734819D02*
X36433333Y-16734819D01*
X37814285Y-16734819D02*
X37242857Y-16734819D01*
X37528571Y-16734819D02*
X37528571Y-15734819D01*
X37528571Y-15734819D02*
X37433333Y-15877676D01*
X37433333Y-15877676D02*
X37338095Y-15972914D01*
X37338095Y-15972914D02*
X37242857Y-16020533D01*
X38433333Y-15734819D02*
X38528571Y-15734819D01*
X38528571Y-15734819D02*
X38623809Y-15782438D01*
X38623809Y-15782438D02*
X38671428Y-15830057D01*
X38671428Y-15830057D02*
X38719047Y-15925295D01*
X38719047Y-15925295D02*
X38766666Y-16115771D01*
X38766666Y-16115771D02*
X38766666Y-16353866D01*
X38766666Y-16353866D02*
X38719047Y-16544342D01*
X38719047Y-16544342D02*
X38671428Y-16639580D01*
X38671428Y-16639580D02*
X38623809Y-16687200D01*
X38623809Y-16687200D02*
X38528571Y-16734819D01*
X38528571Y-16734819D02*
X38433333Y-16734819D01*
X38433333Y-16734819D02*
X38338095Y-16687200D01*
X38338095Y-16687200D02*
X38290476Y-16639580D01*
X38290476Y-16639580D02*
X38242857Y-16544342D01*
X38242857Y-16544342D02*
X38195238Y-16353866D01*
X38195238Y-16353866D02*
X38195238Y-16115771D01*
X38195238Y-16115771D02*
X38242857Y-15925295D01*
X38242857Y-15925295D02*
X38290476Y-15830057D01*
X38290476Y-15830057D02*
X38338095Y-15782438D01*
X38338095Y-15782438D02*
X38433333Y-15734819D01*
X39147619Y-15830057D02*
X39195238Y-15782438D01*
X39195238Y-15782438D02*
X39290476Y-15734819D01*
X39290476Y-15734819D02*
X39528571Y-15734819D01*
X39528571Y-15734819D02*
X39623809Y-15782438D01*
X39623809Y-15782438D02*
X39671428Y-15830057D01*
X39671428Y-15830057D02*
X39719047Y-15925295D01*
X39719047Y-15925295D02*
X39719047Y-16020533D01*
X39719047Y-16020533D02*
X39671428Y-16163390D01*
X39671428Y-16163390D02*
X39100000Y-16734819D01*
X39100000Y-16734819D02*
X39719047Y-16734819D01*
X82772380Y-45250057D02*
X82677142Y-45202438D01*
X82677142Y-45202438D02*
X82581904Y-45107200D01*
X82581904Y-45107200D02*
X82439047Y-44964342D01*
X82439047Y-44964342D02*
X82343809Y-44916723D01*
X82343809Y-44916723D02*
X82248571Y-44916723D01*
X82296190Y-45154819D02*
X82200952Y-45107200D01*
X82200952Y-45107200D02*
X82105714Y-45011961D01*
X82105714Y-45011961D02*
X82058095Y-44821485D01*
X82058095Y-44821485D02*
X82058095Y-44488152D01*
X82058095Y-44488152D02*
X82105714Y-44297676D01*
X82105714Y-44297676D02*
X82200952Y-44202438D01*
X82200952Y-44202438D02*
X82296190Y-44154819D01*
X82296190Y-44154819D02*
X82486666Y-44154819D01*
X82486666Y-44154819D02*
X82581904Y-44202438D01*
X82581904Y-44202438D02*
X82677142Y-44297676D01*
X82677142Y-44297676D02*
X82724761Y-44488152D01*
X82724761Y-44488152D02*
X82724761Y-44821485D01*
X82724761Y-44821485D02*
X82677142Y-45011961D01*
X82677142Y-45011961D02*
X82581904Y-45107200D01*
X82581904Y-45107200D02*
X82486666Y-45154819D01*
X82486666Y-45154819D02*
X82296190Y-45154819D01*
X83581904Y-44154819D02*
X83391428Y-44154819D01*
X83391428Y-44154819D02*
X83296190Y-44202438D01*
X83296190Y-44202438D02*
X83248571Y-44250057D01*
X83248571Y-44250057D02*
X83153333Y-44392914D01*
X83153333Y-44392914D02*
X83105714Y-44583390D01*
X83105714Y-44583390D02*
X83105714Y-44964342D01*
X83105714Y-44964342D02*
X83153333Y-45059580D01*
X83153333Y-45059580D02*
X83200952Y-45107200D01*
X83200952Y-45107200D02*
X83296190Y-45154819D01*
X83296190Y-45154819D02*
X83486666Y-45154819D01*
X83486666Y-45154819D02*
X83581904Y-45107200D01*
X83581904Y-45107200D02*
X83629523Y-45059580D01*
X83629523Y-45059580D02*
X83677142Y-44964342D01*
X83677142Y-44964342D02*
X83677142Y-44726247D01*
X83677142Y-44726247D02*
X83629523Y-44631009D01*
X83629523Y-44631009D02*
X83581904Y-44583390D01*
X83581904Y-44583390D02*
X83486666Y-44535771D01*
X83486666Y-44535771D02*
X83296190Y-44535771D01*
X83296190Y-44535771D02*
X83200952Y-44583390D01*
X83200952Y-44583390D02*
X83153333Y-44631009D01*
X83153333Y-44631009D02*
X83105714Y-44726247D01*
X84296190Y-44154819D02*
X84391428Y-44154819D01*
X84391428Y-44154819D02*
X84486666Y-44202438D01*
X84486666Y-44202438D02*
X84534285Y-44250057D01*
X84534285Y-44250057D02*
X84581904Y-44345295D01*
X84581904Y-44345295D02*
X84629523Y-44535771D01*
X84629523Y-44535771D02*
X84629523Y-44773866D01*
X84629523Y-44773866D02*
X84581904Y-44964342D01*
X84581904Y-44964342D02*
X84534285Y-45059580D01*
X84534285Y-45059580D02*
X84486666Y-45107200D01*
X84486666Y-45107200D02*
X84391428Y-45154819D01*
X84391428Y-45154819D02*
X84296190Y-45154819D01*
X84296190Y-45154819D02*
X84200952Y-45107200D01*
X84200952Y-45107200D02*
X84153333Y-45059580D01*
X84153333Y-45059580D02*
X84105714Y-44964342D01*
X84105714Y-44964342D02*
X84058095Y-44773866D01*
X84058095Y-44773866D02*
X84058095Y-44535771D01*
X84058095Y-44535771D02*
X84105714Y-44345295D01*
X84105714Y-44345295D02*
X84153333Y-44250057D01*
X84153333Y-44250057D02*
X84200952Y-44202438D01*
X84200952Y-44202438D02*
X84296190Y-44154819D01*
X85010476Y-44250057D02*
X85058095Y-44202438D01*
X85058095Y-44202438D02*
X85153333Y-44154819D01*
X85153333Y-44154819D02*
X85391428Y-44154819D01*
X85391428Y-44154819D02*
X85486666Y-44202438D01*
X85486666Y-44202438D02*
X85534285Y-44250057D01*
X85534285Y-44250057D02*
X85581904Y-44345295D01*
X85581904Y-44345295D02*
X85581904Y-44440533D01*
X85581904Y-44440533D02*
X85534285Y-44583390D01*
X85534285Y-44583390D02*
X84962857Y-45154819D01*
X84962857Y-45154819D02*
X85581904Y-45154819D01*
X68564285Y-71614819D02*
X68564285Y-72329104D01*
X68564285Y-72329104D02*
X68516666Y-72471961D01*
X68516666Y-72471961D02*
X68421428Y-72567200D01*
X68421428Y-72567200D02*
X68278571Y-72614819D01*
X68278571Y-72614819D02*
X68183333Y-72614819D01*
X69564285Y-72614819D02*
X68992857Y-72614819D01*
X69278571Y-72614819D02*
X69278571Y-71614819D01*
X69278571Y-71614819D02*
X69183333Y-71757676D01*
X69183333Y-71757676D02*
X69088095Y-71852914D01*
X69088095Y-71852914D02*
X68992857Y-71900533D01*
X70183333Y-71614819D02*
X70278571Y-71614819D01*
X70278571Y-71614819D02*
X70373809Y-71662438D01*
X70373809Y-71662438D02*
X70421428Y-71710057D01*
X70421428Y-71710057D02*
X70469047Y-71805295D01*
X70469047Y-71805295D02*
X70516666Y-71995771D01*
X70516666Y-71995771D02*
X70516666Y-72233866D01*
X70516666Y-72233866D02*
X70469047Y-72424342D01*
X70469047Y-72424342D02*
X70421428Y-72519580D01*
X70421428Y-72519580D02*
X70373809Y-72567200D01*
X70373809Y-72567200D02*
X70278571Y-72614819D01*
X70278571Y-72614819D02*
X70183333Y-72614819D01*
X70183333Y-72614819D02*
X70088095Y-72567200D01*
X70088095Y-72567200D02*
X70040476Y-72519580D01*
X70040476Y-72519580D02*
X69992857Y-72424342D01*
X69992857Y-72424342D02*
X69945238Y-72233866D01*
X69945238Y-72233866D02*
X69945238Y-71995771D01*
X69945238Y-71995771D02*
X69992857Y-71805295D01*
X69992857Y-71805295D02*
X70040476Y-71710057D01*
X70040476Y-71710057D02*
X70088095Y-71662438D01*
X70088095Y-71662438D02*
X70183333Y-71614819D01*
X70850000Y-71614819D02*
X71469047Y-71614819D01*
X71469047Y-71614819D02*
X71135714Y-71995771D01*
X71135714Y-71995771D02*
X71278571Y-71995771D01*
X71278571Y-71995771D02*
X71373809Y-72043390D01*
X71373809Y-72043390D02*
X71421428Y-72091009D01*
X71421428Y-72091009D02*
X71469047Y-72186247D01*
X71469047Y-72186247D02*
X71469047Y-72424342D01*
X71469047Y-72424342D02*
X71421428Y-72519580D01*
X71421428Y-72519580D02*
X71373809Y-72567200D01*
X71373809Y-72567200D02*
X71278571Y-72614819D01*
X71278571Y-72614819D02*
X70992857Y-72614819D01*
X70992857Y-72614819D02*
X70897619Y-72567200D01*
X70897619Y-72567200D02*
X70850000Y-72519580D01*
X31734285Y-15734819D02*
X31734285Y-16449104D01*
X31734285Y-16449104D02*
X31686666Y-16591961D01*
X31686666Y-16591961D02*
X31591428Y-16687200D01*
X31591428Y-16687200D02*
X31448571Y-16734819D01*
X31448571Y-16734819D02*
X31353333Y-16734819D01*
X32734285Y-16734819D02*
X32162857Y-16734819D01*
X32448571Y-16734819D02*
X32448571Y-15734819D01*
X32448571Y-15734819D02*
X32353333Y-15877676D01*
X32353333Y-15877676D02*
X32258095Y-15972914D01*
X32258095Y-15972914D02*
X32162857Y-16020533D01*
X33353333Y-15734819D02*
X33448571Y-15734819D01*
X33448571Y-15734819D02*
X33543809Y-15782438D01*
X33543809Y-15782438D02*
X33591428Y-15830057D01*
X33591428Y-15830057D02*
X33639047Y-15925295D01*
X33639047Y-15925295D02*
X33686666Y-16115771D01*
X33686666Y-16115771D02*
X33686666Y-16353866D01*
X33686666Y-16353866D02*
X33639047Y-16544342D01*
X33639047Y-16544342D02*
X33591428Y-16639580D01*
X33591428Y-16639580D02*
X33543809Y-16687200D01*
X33543809Y-16687200D02*
X33448571Y-16734819D01*
X33448571Y-16734819D02*
X33353333Y-16734819D01*
X33353333Y-16734819D02*
X33258095Y-16687200D01*
X33258095Y-16687200D02*
X33210476Y-16639580D01*
X33210476Y-16639580D02*
X33162857Y-16544342D01*
X33162857Y-16544342D02*
X33115238Y-16353866D01*
X33115238Y-16353866D02*
X33115238Y-16115771D01*
X33115238Y-16115771D02*
X33162857Y-15925295D01*
X33162857Y-15925295D02*
X33210476Y-15830057D01*
X33210476Y-15830057D02*
X33258095Y-15782438D01*
X33258095Y-15782438D02*
X33353333Y-15734819D01*
X34591428Y-15734819D02*
X34115238Y-15734819D01*
X34115238Y-15734819D02*
X34067619Y-16211009D01*
X34067619Y-16211009D02*
X34115238Y-16163390D01*
X34115238Y-16163390D02*
X34210476Y-16115771D01*
X34210476Y-16115771D02*
X34448571Y-16115771D01*
X34448571Y-16115771D02*
X34543809Y-16163390D01*
X34543809Y-16163390D02*
X34591428Y-16211009D01*
X34591428Y-16211009D02*
X34639047Y-16306247D01*
X34639047Y-16306247D02*
X34639047Y-16544342D01*
X34639047Y-16544342D02*
X34591428Y-16639580D01*
X34591428Y-16639580D02*
X34543809Y-16687200D01*
X34543809Y-16687200D02*
X34448571Y-16734819D01*
X34448571Y-16734819D02*
X34210476Y-16734819D01*
X34210476Y-16734819D02*
X34115238Y-16687200D01*
X34115238Y-16687200D02*
X34067619Y-16639580D01*
X29194285Y-62724819D02*
X29194285Y-63439104D01*
X29194285Y-63439104D02*
X29146666Y-63581961D01*
X29146666Y-63581961D02*
X29051428Y-63677200D01*
X29051428Y-63677200D02*
X28908571Y-63724819D01*
X28908571Y-63724819D02*
X28813333Y-63724819D01*
X30194285Y-63724819D02*
X29622857Y-63724819D01*
X29908571Y-63724819D02*
X29908571Y-62724819D01*
X29908571Y-62724819D02*
X29813333Y-62867676D01*
X29813333Y-62867676D02*
X29718095Y-62962914D01*
X29718095Y-62962914D02*
X29622857Y-63010533D01*
X31146666Y-63724819D02*
X30575238Y-63724819D01*
X30860952Y-63724819D02*
X30860952Y-62724819D01*
X30860952Y-62724819D02*
X30765714Y-62867676D01*
X30765714Y-62867676D02*
X30670476Y-62962914D01*
X30670476Y-62962914D02*
X30575238Y-63010533D01*
X32003809Y-63058152D02*
X32003809Y-63724819D01*
X31765714Y-62677200D02*
X31527619Y-63391485D01*
X31527619Y-63391485D02*
X32146666Y-63391485D01*
X82772380Y-50330057D02*
X82677142Y-50282438D01*
X82677142Y-50282438D02*
X82581904Y-50187200D01*
X82581904Y-50187200D02*
X82439047Y-50044342D01*
X82439047Y-50044342D02*
X82343809Y-49996723D01*
X82343809Y-49996723D02*
X82248571Y-49996723D01*
X82296190Y-50234819D02*
X82200952Y-50187200D01*
X82200952Y-50187200D02*
X82105714Y-50091961D01*
X82105714Y-50091961D02*
X82058095Y-49901485D01*
X82058095Y-49901485D02*
X82058095Y-49568152D01*
X82058095Y-49568152D02*
X82105714Y-49377676D01*
X82105714Y-49377676D02*
X82200952Y-49282438D01*
X82200952Y-49282438D02*
X82296190Y-49234819D01*
X82296190Y-49234819D02*
X82486666Y-49234819D01*
X82486666Y-49234819D02*
X82581904Y-49282438D01*
X82581904Y-49282438D02*
X82677142Y-49377676D01*
X82677142Y-49377676D02*
X82724761Y-49568152D01*
X82724761Y-49568152D02*
X82724761Y-49901485D01*
X82724761Y-49901485D02*
X82677142Y-50091961D01*
X82677142Y-50091961D02*
X82581904Y-50187200D01*
X82581904Y-50187200D02*
X82486666Y-50234819D01*
X82486666Y-50234819D02*
X82296190Y-50234819D01*
X83581904Y-49234819D02*
X83391428Y-49234819D01*
X83391428Y-49234819D02*
X83296190Y-49282438D01*
X83296190Y-49282438D02*
X83248571Y-49330057D01*
X83248571Y-49330057D02*
X83153333Y-49472914D01*
X83153333Y-49472914D02*
X83105714Y-49663390D01*
X83105714Y-49663390D02*
X83105714Y-50044342D01*
X83105714Y-50044342D02*
X83153333Y-50139580D01*
X83153333Y-50139580D02*
X83200952Y-50187200D01*
X83200952Y-50187200D02*
X83296190Y-50234819D01*
X83296190Y-50234819D02*
X83486666Y-50234819D01*
X83486666Y-50234819D02*
X83581904Y-50187200D01*
X83581904Y-50187200D02*
X83629523Y-50139580D01*
X83629523Y-50139580D02*
X83677142Y-50044342D01*
X83677142Y-50044342D02*
X83677142Y-49806247D01*
X83677142Y-49806247D02*
X83629523Y-49711009D01*
X83629523Y-49711009D02*
X83581904Y-49663390D01*
X83581904Y-49663390D02*
X83486666Y-49615771D01*
X83486666Y-49615771D02*
X83296190Y-49615771D01*
X83296190Y-49615771D02*
X83200952Y-49663390D01*
X83200952Y-49663390D02*
X83153333Y-49711009D01*
X83153333Y-49711009D02*
X83105714Y-49806247D01*
X84296190Y-49234819D02*
X84391428Y-49234819D01*
X84391428Y-49234819D02*
X84486666Y-49282438D01*
X84486666Y-49282438D02*
X84534285Y-49330057D01*
X84534285Y-49330057D02*
X84581904Y-49425295D01*
X84581904Y-49425295D02*
X84629523Y-49615771D01*
X84629523Y-49615771D02*
X84629523Y-49853866D01*
X84629523Y-49853866D02*
X84581904Y-50044342D01*
X84581904Y-50044342D02*
X84534285Y-50139580D01*
X84534285Y-50139580D02*
X84486666Y-50187200D01*
X84486666Y-50187200D02*
X84391428Y-50234819D01*
X84391428Y-50234819D02*
X84296190Y-50234819D01*
X84296190Y-50234819D02*
X84200952Y-50187200D01*
X84200952Y-50187200D02*
X84153333Y-50139580D01*
X84153333Y-50139580D02*
X84105714Y-50044342D01*
X84105714Y-50044342D02*
X84058095Y-49853866D01*
X84058095Y-49853866D02*
X84058095Y-49615771D01*
X84058095Y-49615771D02*
X84105714Y-49425295D01*
X84105714Y-49425295D02*
X84153333Y-49330057D01*
X84153333Y-49330057D02*
X84200952Y-49282438D01*
X84200952Y-49282438D02*
X84296190Y-49234819D01*
X84962857Y-49234819D02*
X85581904Y-49234819D01*
X85581904Y-49234819D02*
X85248571Y-49615771D01*
X85248571Y-49615771D02*
X85391428Y-49615771D01*
X85391428Y-49615771D02*
X85486666Y-49663390D01*
X85486666Y-49663390D02*
X85534285Y-49711009D01*
X85534285Y-49711009D02*
X85581904Y-49806247D01*
X85581904Y-49806247D02*
X85581904Y-50044342D01*
X85581904Y-50044342D02*
X85534285Y-50139580D01*
X85534285Y-50139580D02*
X85486666Y-50187200D01*
X85486666Y-50187200D02*
X85391428Y-50234819D01*
X85391428Y-50234819D02*
X85105714Y-50234819D01*
X85105714Y-50234819D02*
X85010476Y-50187200D01*
X85010476Y-50187200D02*
X84962857Y-50139580D01*
X54910057Y-64547619D02*
X54862438Y-64642857D01*
X54862438Y-64642857D02*
X54767200Y-64738095D01*
X54767200Y-64738095D02*
X54624342Y-64880952D01*
X54624342Y-64880952D02*
X54576723Y-64976190D01*
X54576723Y-64976190D02*
X54576723Y-65071428D01*
X54814819Y-65023809D02*
X54767200Y-65119047D01*
X54767200Y-65119047D02*
X54671961Y-65214285D01*
X54671961Y-65214285D02*
X54481485Y-65261904D01*
X54481485Y-65261904D02*
X54148152Y-65261904D01*
X54148152Y-65261904D02*
X53957676Y-65214285D01*
X53957676Y-65214285D02*
X53862438Y-65119047D01*
X53862438Y-65119047D02*
X53814819Y-65023809D01*
X53814819Y-65023809D02*
X53814819Y-64833333D01*
X53814819Y-64833333D02*
X53862438Y-64738095D01*
X53862438Y-64738095D02*
X53957676Y-64642857D01*
X53957676Y-64642857D02*
X54148152Y-64595238D01*
X54148152Y-64595238D02*
X54481485Y-64595238D01*
X54481485Y-64595238D02*
X54671961Y-64642857D01*
X54671961Y-64642857D02*
X54767200Y-64738095D01*
X54767200Y-64738095D02*
X54814819Y-64833333D01*
X54814819Y-64833333D02*
X54814819Y-65023809D01*
X53814819Y-64261904D02*
X53814819Y-63642857D01*
X53814819Y-63642857D02*
X54195771Y-63976190D01*
X54195771Y-63976190D02*
X54195771Y-63833333D01*
X54195771Y-63833333D02*
X54243390Y-63738095D01*
X54243390Y-63738095D02*
X54291009Y-63690476D01*
X54291009Y-63690476D02*
X54386247Y-63642857D01*
X54386247Y-63642857D02*
X54624342Y-63642857D01*
X54624342Y-63642857D02*
X54719580Y-63690476D01*
X54719580Y-63690476D02*
X54767200Y-63738095D01*
X54767200Y-63738095D02*
X54814819Y-63833333D01*
X54814819Y-63833333D02*
X54814819Y-64119047D01*
X54814819Y-64119047D02*
X54767200Y-64214285D01*
X54767200Y-64214285D02*
X54719580Y-64261904D01*
X53814819Y-63023809D02*
X53814819Y-62928571D01*
X53814819Y-62928571D02*
X53862438Y-62833333D01*
X53862438Y-62833333D02*
X53910057Y-62785714D01*
X53910057Y-62785714D02*
X54005295Y-62738095D01*
X54005295Y-62738095D02*
X54195771Y-62690476D01*
X54195771Y-62690476D02*
X54433866Y-62690476D01*
X54433866Y-62690476D02*
X54624342Y-62738095D01*
X54624342Y-62738095D02*
X54719580Y-62785714D01*
X54719580Y-62785714D02*
X54767200Y-62833333D01*
X54767200Y-62833333D02*
X54814819Y-62928571D01*
X54814819Y-62928571D02*
X54814819Y-63023809D01*
X54814819Y-63023809D02*
X54767200Y-63119047D01*
X54767200Y-63119047D02*
X54719580Y-63166666D01*
X54719580Y-63166666D02*
X54624342Y-63214285D01*
X54624342Y-63214285D02*
X54433866Y-63261904D01*
X54433866Y-63261904D02*
X54195771Y-63261904D01*
X54195771Y-63261904D02*
X54005295Y-63214285D01*
X54005295Y-63214285D02*
X53910057Y-63166666D01*
X53910057Y-63166666D02*
X53862438Y-63119047D01*
X53862438Y-63119047D02*
X53814819Y-63023809D01*
X53814819Y-62357142D02*
X53814819Y-61738095D01*
X53814819Y-61738095D02*
X54195771Y-62071428D01*
X54195771Y-62071428D02*
X54195771Y-61928571D01*
X54195771Y-61928571D02*
X54243390Y-61833333D01*
X54243390Y-61833333D02*
X54291009Y-61785714D01*
X54291009Y-61785714D02*
X54386247Y-61738095D01*
X54386247Y-61738095D02*
X54624342Y-61738095D01*
X54624342Y-61738095D02*
X54719580Y-61785714D01*
X54719580Y-61785714D02*
X54767200Y-61833333D01*
X54767200Y-61833333D02*
X54814819Y-61928571D01*
X54814819Y-61928571D02*
X54814819Y-62214285D01*
X54814819Y-62214285D02*
X54767200Y-62309523D01*
X54767200Y-62309523D02*
X54719580Y-62357142D01*
X49814819Y-31599047D02*
X49338628Y-31932380D01*
X49814819Y-32170475D02*
X48814819Y-32170475D01*
X48814819Y-32170475D02*
X48814819Y-31789523D01*
X48814819Y-31789523D02*
X48862438Y-31694285D01*
X48862438Y-31694285D02*
X48910057Y-31646666D01*
X48910057Y-31646666D02*
X49005295Y-31599047D01*
X49005295Y-31599047D02*
X49148152Y-31599047D01*
X49148152Y-31599047D02*
X49243390Y-31646666D01*
X49243390Y-31646666D02*
X49291009Y-31694285D01*
X49291009Y-31694285D02*
X49338628Y-31789523D01*
X49338628Y-31789523D02*
X49338628Y-32170475D01*
X48814819Y-30741904D02*
X48814819Y-30932380D01*
X48814819Y-30932380D02*
X48862438Y-31027618D01*
X48862438Y-31027618D02*
X48910057Y-31075237D01*
X48910057Y-31075237D02*
X49052914Y-31170475D01*
X49052914Y-31170475D02*
X49243390Y-31218094D01*
X49243390Y-31218094D02*
X49624342Y-31218094D01*
X49624342Y-31218094D02*
X49719580Y-31170475D01*
X49719580Y-31170475D02*
X49767200Y-31122856D01*
X49767200Y-31122856D02*
X49814819Y-31027618D01*
X49814819Y-31027618D02*
X49814819Y-30837142D01*
X49814819Y-30837142D02*
X49767200Y-30741904D01*
X49767200Y-30741904D02*
X49719580Y-30694285D01*
X49719580Y-30694285D02*
X49624342Y-30646666D01*
X49624342Y-30646666D02*
X49386247Y-30646666D01*
X49386247Y-30646666D02*
X49291009Y-30694285D01*
X49291009Y-30694285D02*
X49243390Y-30741904D01*
X49243390Y-30741904D02*
X49195771Y-30837142D01*
X49195771Y-30837142D02*
X49195771Y-31027618D01*
X49195771Y-31027618D02*
X49243390Y-31122856D01*
X49243390Y-31122856D02*
X49291009Y-31170475D01*
X49291009Y-31170475D02*
X49386247Y-31218094D01*
X48814819Y-30027618D02*
X48814819Y-29932380D01*
X48814819Y-29932380D02*
X48862438Y-29837142D01*
X48862438Y-29837142D02*
X48910057Y-29789523D01*
X48910057Y-29789523D02*
X49005295Y-29741904D01*
X49005295Y-29741904D02*
X49195771Y-29694285D01*
X49195771Y-29694285D02*
X49433866Y-29694285D01*
X49433866Y-29694285D02*
X49624342Y-29741904D01*
X49624342Y-29741904D02*
X49719580Y-29789523D01*
X49719580Y-29789523D02*
X49767200Y-29837142D01*
X49767200Y-29837142D02*
X49814819Y-29932380D01*
X49814819Y-29932380D02*
X49814819Y-30027618D01*
X49814819Y-30027618D02*
X49767200Y-30122856D01*
X49767200Y-30122856D02*
X49719580Y-30170475D01*
X49719580Y-30170475D02*
X49624342Y-30218094D01*
X49624342Y-30218094D02*
X49433866Y-30265713D01*
X49433866Y-30265713D02*
X49195771Y-30265713D01*
X49195771Y-30265713D02*
X49005295Y-30218094D01*
X49005295Y-30218094D02*
X48910057Y-30170475D01*
X48910057Y-30170475D02*
X48862438Y-30122856D01*
X48862438Y-30122856D02*
X48814819Y-30027618D01*
X49814819Y-28741904D02*
X49814819Y-29313332D01*
X49814819Y-29027618D02*
X48814819Y-29027618D01*
X48814819Y-29027618D02*
X48957676Y-29122856D01*
X48957676Y-29122856D02*
X49052914Y-29218094D01*
X49052914Y-29218094D02*
X49100533Y-29313332D01*
X10144285Y-36054819D02*
X10144285Y-36769104D01*
X10144285Y-36769104D02*
X10096666Y-36911961D01*
X10096666Y-36911961D02*
X10001428Y-37007200D01*
X10001428Y-37007200D02*
X9858571Y-37054819D01*
X9858571Y-37054819D02*
X9763333Y-37054819D01*
X11144285Y-37054819D02*
X10572857Y-37054819D01*
X10858571Y-37054819D02*
X10858571Y-36054819D01*
X10858571Y-36054819D02*
X10763333Y-36197676D01*
X10763333Y-36197676D02*
X10668095Y-36292914D01*
X10668095Y-36292914D02*
X10572857Y-36340533D01*
X12096666Y-37054819D02*
X11525238Y-37054819D01*
X11810952Y-37054819D02*
X11810952Y-36054819D01*
X11810952Y-36054819D02*
X11715714Y-36197676D01*
X11715714Y-36197676D02*
X11620476Y-36292914D01*
X11620476Y-36292914D02*
X11525238Y-36340533D01*
X12715714Y-36054819D02*
X12810952Y-36054819D01*
X12810952Y-36054819D02*
X12906190Y-36102438D01*
X12906190Y-36102438D02*
X12953809Y-36150057D01*
X12953809Y-36150057D02*
X13001428Y-36245295D01*
X13001428Y-36245295D02*
X13049047Y-36435771D01*
X13049047Y-36435771D02*
X13049047Y-36673866D01*
X13049047Y-36673866D02*
X13001428Y-36864342D01*
X13001428Y-36864342D02*
X12953809Y-36959580D01*
X12953809Y-36959580D02*
X12906190Y-37007200D01*
X12906190Y-37007200D02*
X12810952Y-37054819D01*
X12810952Y-37054819D02*
X12715714Y-37054819D01*
X12715714Y-37054819D02*
X12620476Y-37007200D01*
X12620476Y-37007200D02*
X12572857Y-36959580D01*
X12572857Y-36959580D02*
X12525238Y-36864342D01*
X12525238Y-36864342D02*
X12477619Y-36673866D01*
X12477619Y-36673866D02*
X12477619Y-36435771D01*
X12477619Y-36435771D02*
X12525238Y-36245295D01*
X12525238Y-36245295D02*
X12572857Y-36150057D01*
X12572857Y-36150057D02*
X12620476Y-36102438D01*
X12620476Y-36102438D02*
X12715714Y-36054819D01*
X59990057Y-64547619D02*
X59942438Y-64642857D01*
X59942438Y-64642857D02*
X59847200Y-64738095D01*
X59847200Y-64738095D02*
X59704342Y-64880952D01*
X59704342Y-64880952D02*
X59656723Y-64976190D01*
X59656723Y-64976190D02*
X59656723Y-65071428D01*
X59894819Y-65023809D02*
X59847200Y-65119047D01*
X59847200Y-65119047D02*
X59751961Y-65214285D01*
X59751961Y-65214285D02*
X59561485Y-65261904D01*
X59561485Y-65261904D02*
X59228152Y-65261904D01*
X59228152Y-65261904D02*
X59037676Y-65214285D01*
X59037676Y-65214285D02*
X58942438Y-65119047D01*
X58942438Y-65119047D02*
X58894819Y-65023809D01*
X58894819Y-65023809D02*
X58894819Y-64833333D01*
X58894819Y-64833333D02*
X58942438Y-64738095D01*
X58942438Y-64738095D02*
X59037676Y-64642857D01*
X59037676Y-64642857D02*
X59228152Y-64595238D01*
X59228152Y-64595238D02*
X59561485Y-64595238D01*
X59561485Y-64595238D02*
X59751961Y-64642857D01*
X59751961Y-64642857D02*
X59847200Y-64738095D01*
X59847200Y-64738095D02*
X59894819Y-64833333D01*
X59894819Y-64833333D02*
X59894819Y-65023809D01*
X58894819Y-64261904D02*
X58894819Y-63642857D01*
X58894819Y-63642857D02*
X59275771Y-63976190D01*
X59275771Y-63976190D02*
X59275771Y-63833333D01*
X59275771Y-63833333D02*
X59323390Y-63738095D01*
X59323390Y-63738095D02*
X59371009Y-63690476D01*
X59371009Y-63690476D02*
X59466247Y-63642857D01*
X59466247Y-63642857D02*
X59704342Y-63642857D01*
X59704342Y-63642857D02*
X59799580Y-63690476D01*
X59799580Y-63690476D02*
X59847200Y-63738095D01*
X59847200Y-63738095D02*
X59894819Y-63833333D01*
X59894819Y-63833333D02*
X59894819Y-64119047D01*
X59894819Y-64119047D02*
X59847200Y-64214285D01*
X59847200Y-64214285D02*
X59799580Y-64261904D01*
X58894819Y-63023809D02*
X58894819Y-62928571D01*
X58894819Y-62928571D02*
X58942438Y-62833333D01*
X58942438Y-62833333D02*
X58990057Y-62785714D01*
X58990057Y-62785714D02*
X59085295Y-62738095D01*
X59085295Y-62738095D02*
X59275771Y-62690476D01*
X59275771Y-62690476D02*
X59513866Y-62690476D01*
X59513866Y-62690476D02*
X59704342Y-62738095D01*
X59704342Y-62738095D02*
X59799580Y-62785714D01*
X59799580Y-62785714D02*
X59847200Y-62833333D01*
X59847200Y-62833333D02*
X59894819Y-62928571D01*
X59894819Y-62928571D02*
X59894819Y-63023809D01*
X59894819Y-63023809D02*
X59847200Y-63119047D01*
X59847200Y-63119047D02*
X59799580Y-63166666D01*
X59799580Y-63166666D02*
X59704342Y-63214285D01*
X59704342Y-63214285D02*
X59513866Y-63261904D01*
X59513866Y-63261904D02*
X59275771Y-63261904D01*
X59275771Y-63261904D02*
X59085295Y-63214285D01*
X59085295Y-63214285D02*
X58990057Y-63166666D01*
X58990057Y-63166666D02*
X58942438Y-63119047D01*
X58942438Y-63119047D02*
X58894819Y-63023809D01*
X58990057Y-62309523D02*
X58942438Y-62261904D01*
X58942438Y-62261904D02*
X58894819Y-62166666D01*
X58894819Y-62166666D02*
X58894819Y-61928571D01*
X58894819Y-61928571D02*
X58942438Y-61833333D01*
X58942438Y-61833333D02*
X58990057Y-61785714D01*
X58990057Y-61785714D02*
X59085295Y-61738095D01*
X59085295Y-61738095D02*
X59180533Y-61738095D01*
X59180533Y-61738095D02*
X59323390Y-61785714D01*
X59323390Y-61785714D02*
X59894819Y-62357142D01*
X59894819Y-62357142D02*
X59894819Y-61738095D01*
X54910057Y-70897619D02*
X54862438Y-70992857D01*
X54862438Y-70992857D02*
X54767200Y-71088095D01*
X54767200Y-71088095D02*
X54624342Y-71230952D01*
X54624342Y-71230952D02*
X54576723Y-71326190D01*
X54576723Y-71326190D02*
X54576723Y-71421428D01*
X54814819Y-71373809D02*
X54767200Y-71469047D01*
X54767200Y-71469047D02*
X54671961Y-71564285D01*
X54671961Y-71564285D02*
X54481485Y-71611904D01*
X54481485Y-71611904D02*
X54148152Y-71611904D01*
X54148152Y-71611904D02*
X53957676Y-71564285D01*
X53957676Y-71564285D02*
X53862438Y-71469047D01*
X53862438Y-71469047D02*
X53814819Y-71373809D01*
X53814819Y-71373809D02*
X53814819Y-71183333D01*
X53814819Y-71183333D02*
X53862438Y-71088095D01*
X53862438Y-71088095D02*
X53957676Y-70992857D01*
X53957676Y-70992857D02*
X54148152Y-70945238D01*
X54148152Y-70945238D02*
X54481485Y-70945238D01*
X54481485Y-70945238D02*
X54671961Y-70992857D01*
X54671961Y-70992857D02*
X54767200Y-71088095D01*
X54767200Y-71088095D02*
X54814819Y-71183333D01*
X54814819Y-71183333D02*
X54814819Y-71373809D01*
X53910057Y-70564285D02*
X53862438Y-70516666D01*
X53862438Y-70516666D02*
X53814819Y-70421428D01*
X53814819Y-70421428D02*
X53814819Y-70183333D01*
X53814819Y-70183333D02*
X53862438Y-70088095D01*
X53862438Y-70088095D02*
X53910057Y-70040476D01*
X53910057Y-70040476D02*
X54005295Y-69992857D01*
X54005295Y-69992857D02*
X54100533Y-69992857D01*
X54100533Y-69992857D02*
X54243390Y-70040476D01*
X54243390Y-70040476D02*
X54814819Y-70611904D01*
X54814819Y-70611904D02*
X54814819Y-69992857D01*
X53814819Y-69373809D02*
X53814819Y-69278571D01*
X53814819Y-69278571D02*
X53862438Y-69183333D01*
X53862438Y-69183333D02*
X53910057Y-69135714D01*
X53910057Y-69135714D02*
X54005295Y-69088095D01*
X54005295Y-69088095D02*
X54195771Y-69040476D01*
X54195771Y-69040476D02*
X54433866Y-69040476D01*
X54433866Y-69040476D02*
X54624342Y-69088095D01*
X54624342Y-69088095D02*
X54719580Y-69135714D01*
X54719580Y-69135714D02*
X54767200Y-69183333D01*
X54767200Y-69183333D02*
X54814819Y-69278571D01*
X54814819Y-69278571D02*
X54814819Y-69373809D01*
X54814819Y-69373809D02*
X54767200Y-69469047D01*
X54767200Y-69469047D02*
X54719580Y-69516666D01*
X54719580Y-69516666D02*
X54624342Y-69564285D01*
X54624342Y-69564285D02*
X54433866Y-69611904D01*
X54433866Y-69611904D02*
X54195771Y-69611904D01*
X54195771Y-69611904D02*
X54005295Y-69564285D01*
X54005295Y-69564285D02*
X53910057Y-69516666D01*
X53910057Y-69516666D02*
X53862438Y-69469047D01*
X53862438Y-69469047D02*
X53814819Y-69373809D01*
X53814819Y-68707142D02*
X53814819Y-68088095D01*
X53814819Y-68088095D02*
X54195771Y-68421428D01*
X54195771Y-68421428D02*
X54195771Y-68278571D01*
X54195771Y-68278571D02*
X54243390Y-68183333D01*
X54243390Y-68183333D02*
X54291009Y-68135714D01*
X54291009Y-68135714D02*
X54386247Y-68088095D01*
X54386247Y-68088095D02*
X54624342Y-68088095D01*
X54624342Y-68088095D02*
X54719580Y-68135714D01*
X54719580Y-68135714D02*
X54767200Y-68183333D01*
X54767200Y-68183333D02*
X54814819Y-68278571D01*
X54814819Y-68278571D02*
X54814819Y-68564285D01*
X54814819Y-68564285D02*
X54767200Y-68659523D01*
X54767200Y-68659523D02*
X54719580Y-68707142D01*
X36980952Y-75554819D02*
X36647619Y-75078628D01*
X36409524Y-75554819D02*
X36409524Y-74554819D01*
X36409524Y-74554819D02*
X36790476Y-74554819D01*
X36790476Y-74554819D02*
X36885714Y-74602438D01*
X36885714Y-74602438D02*
X36933333Y-74650057D01*
X36933333Y-74650057D02*
X36980952Y-74745295D01*
X36980952Y-74745295D02*
X36980952Y-74888152D01*
X36980952Y-74888152D02*
X36933333Y-74983390D01*
X36933333Y-74983390D02*
X36885714Y-75031009D01*
X36885714Y-75031009D02*
X36790476Y-75078628D01*
X36790476Y-75078628D02*
X36409524Y-75078628D01*
X37933333Y-75554819D02*
X37361905Y-75554819D01*
X37647619Y-75554819D02*
X37647619Y-74554819D01*
X37647619Y-74554819D02*
X37552381Y-74697676D01*
X37552381Y-74697676D02*
X37457143Y-74792914D01*
X37457143Y-74792914D02*
X37361905Y-74840533D01*
X38552381Y-74554819D02*
X38647619Y-74554819D01*
X38647619Y-74554819D02*
X38742857Y-74602438D01*
X38742857Y-74602438D02*
X38790476Y-74650057D01*
X38790476Y-74650057D02*
X38838095Y-74745295D01*
X38838095Y-74745295D02*
X38885714Y-74935771D01*
X38885714Y-74935771D02*
X38885714Y-75173866D01*
X38885714Y-75173866D02*
X38838095Y-75364342D01*
X38838095Y-75364342D02*
X38790476Y-75459580D01*
X38790476Y-75459580D02*
X38742857Y-75507200D01*
X38742857Y-75507200D02*
X38647619Y-75554819D01*
X38647619Y-75554819D02*
X38552381Y-75554819D01*
X38552381Y-75554819D02*
X38457143Y-75507200D01*
X38457143Y-75507200D02*
X38409524Y-75459580D01*
X38409524Y-75459580D02*
X38361905Y-75364342D01*
X38361905Y-75364342D02*
X38314286Y-75173866D01*
X38314286Y-75173866D02*
X38314286Y-74935771D01*
X38314286Y-74935771D02*
X38361905Y-74745295D01*
X38361905Y-74745295D02*
X38409524Y-74650057D01*
X38409524Y-74650057D02*
X38457143Y-74602438D01*
X38457143Y-74602438D02*
X38552381Y-74554819D01*
X39790476Y-74554819D02*
X39314286Y-74554819D01*
X39314286Y-74554819D02*
X39266667Y-75031009D01*
X39266667Y-75031009D02*
X39314286Y-74983390D01*
X39314286Y-74983390D02*
X39409524Y-74935771D01*
X39409524Y-74935771D02*
X39647619Y-74935771D01*
X39647619Y-74935771D02*
X39742857Y-74983390D01*
X39742857Y-74983390D02*
X39790476Y-75031009D01*
X39790476Y-75031009D02*
X39838095Y-75126247D01*
X39838095Y-75126247D02*
X39838095Y-75364342D01*
X39838095Y-75364342D02*
X39790476Y-75459580D01*
X39790476Y-75459580D02*
X39742857Y-75507200D01*
X39742857Y-75507200D02*
X39647619Y-75554819D01*
X39647619Y-75554819D02*
X39409524Y-75554819D01*
X39409524Y-75554819D02*
X39314286Y-75507200D01*
X39314286Y-75507200D02*
X39266667Y-75459580D01*
X59990057Y-70897619D02*
X59942438Y-70992857D01*
X59942438Y-70992857D02*
X59847200Y-71088095D01*
X59847200Y-71088095D02*
X59704342Y-71230952D01*
X59704342Y-71230952D02*
X59656723Y-71326190D01*
X59656723Y-71326190D02*
X59656723Y-71421428D01*
X59894819Y-71373809D02*
X59847200Y-71469047D01*
X59847200Y-71469047D02*
X59751961Y-71564285D01*
X59751961Y-71564285D02*
X59561485Y-71611904D01*
X59561485Y-71611904D02*
X59228152Y-71611904D01*
X59228152Y-71611904D02*
X59037676Y-71564285D01*
X59037676Y-71564285D02*
X58942438Y-71469047D01*
X58942438Y-71469047D02*
X58894819Y-71373809D01*
X58894819Y-71373809D02*
X58894819Y-71183333D01*
X58894819Y-71183333D02*
X58942438Y-71088095D01*
X58942438Y-71088095D02*
X59037676Y-70992857D01*
X59037676Y-70992857D02*
X59228152Y-70945238D01*
X59228152Y-70945238D02*
X59561485Y-70945238D01*
X59561485Y-70945238D02*
X59751961Y-70992857D01*
X59751961Y-70992857D02*
X59847200Y-71088095D01*
X59847200Y-71088095D02*
X59894819Y-71183333D01*
X59894819Y-71183333D02*
X59894819Y-71373809D01*
X58990057Y-70564285D02*
X58942438Y-70516666D01*
X58942438Y-70516666D02*
X58894819Y-70421428D01*
X58894819Y-70421428D02*
X58894819Y-70183333D01*
X58894819Y-70183333D02*
X58942438Y-70088095D01*
X58942438Y-70088095D02*
X58990057Y-70040476D01*
X58990057Y-70040476D02*
X59085295Y-69992857D01*
X59085295Y-69992857D02*
X59180533Y-69992857D01*
X59180533Y-69992857D02*
X59323390Y-70040476D01*
X59323390Y-70040476D02*
X59894819Y-70611904D01*
X59894819Y-70611904D02*
X59894819Y-69992857D01*
X58894819Y-69373809D02*
X58894819Y-69278571D01*
X58894819Y-69278571D02*
X58942438Y-69183333D01*
X58942438Y-69183333D02*
X58990057Y-69135714D01*
X58990057Y-69135714D02*
X59085295Y-69088095D01*
X59085295Y-69088095D02*
X59275771Y-69040476D01*
X59275771Y-69040476D02*
X59513866Y-69040476D01*
X59513866Y-69040476D02*
X59704342Y-69088095D01*
X59704342Y-69088095D02*
X59799580Y-69135714D01*
X59799580Y-69135714D02*
X59847200Y-69183333D01*
X59847200Y-69183333D02*
X59894819Y-69278571D01*
X59894819Y-69278571D02*
X59894819Y-69373809D01*
X59894819Y-69373809D02*
X59847200Y-69469047D01*
X59847200Y-69469047D02*
X59799580Y-69516666D01*
X59799580Y-69516666D02*
X59704342Y-69564285D01*
X59704342Y-69564285D02*
X59513866Y-69611904D01*
X59513866Y-69611904D02*
X59275771Y-69611904D01*
X59275771Y-69611904D02*
X59085295Y-69564285D01*
X59085295Y-69564285D02*
X58990057Y-69516666D01*
X58990057Y-69516666D02*
X58942438Y-69469047D01*
X58942438Y-69469047D02*
X58894819Y-69373809D01*
X58990057Y-68659523D02*
X58942438Y-68611904D01*
X58942438Y-68611904D02*
X58894819Y-68516666D01*
X58894819Y-68516666D02*
X58894819Y-68278571D01*
X58894819Y-68278571D02*
X58942438Y-68183333D01*
X58942438Y-68183333D02*
X58990057Y-68135714D01*
X58990057Y-68135714D02*
X59085295Y-68088095D01*
X59085295Y-68088095D02*
X59180533Y-68088095D01*
X59180533Y-68088095D02*
X59323390Y-68135714D01*
X59323390Y-68135714D02*
X59894819Y-68707142D01*
X59894819Y-68707142D02*
X59894819Y-68088095D01*
X29194285Y-72884819D02*
X29194285Y-73599104D01*
X29194285Y-73599104D02*
X29146666Y-73741961D01*
X29146666Y-73741961D02*
X29051428Y-73837200D01*
X29051428Y-73837200D02*
X28908571Y-73884819D01*
X28908571Y-73884819D02*
X28813333Y-73884819D01*
X30194285Y-73884819D02*
X29622857Y-73884819D01*
X29908571Y-73884819D02*
X29908571Y-72884819D01*
X29908571Y-72884819D02*
X29813333Y-73027676D01*
X29813333Y-73027676D02*
X29718095Y-73122914D01*
X29718095Y-73122914D02*
X29622857Y-73170533D01*
X31146666Y-73884819D02*
X30575238Y-73884819D01*
X30860952Y-73884819D02*
X30860952Y-72884819D01*
X30860952Y-72884819D02*
X30765714Y-73027676D01*
X30765714Y-73027676D02*
X30670476Y-73122914D01*
X30670476Y-73122914D02*
X30575238Y-73170533D01*
X31718095Y-73313390D02*
X31622857Y-73265771D01*
X31622857Y-73265771D02*
X31575238Y-73218152D01*
X31575238Y-73218152D02*
X31527619Y-73122914D01*
X31527619Y-73122914D02*
X31527619Y-73075295D01*
X31527619Y-73075295D02*
X31575238Y-72980057D01*
X31575238Y-72980057D02*
X31622857Y-72932438D01*
X31622857Y-72932438D02*
X31718095Y-72884819D01*
X31718095Y-72884819D02*
X31908571Y-72884819D01*
X31908571Y-72884819D02*
X32003809Y-72932438D01*
X32003809Y-72932438D02*
X32051428Y-72980057D01*
X32051428Y-72980057D02*
X32099047Y-73075295D01*
X32099047Y-73075295D02*
X32099047Y-73122914D01*
X32099047Y-73122914D02*
X32051428Y-73218152D01*
X32051428Y-73218152D02*
X32003809Y-73265771D01*
X32003809Y-73265771D02*
X31908571Y-73313390D01*
X31908571Y-73313390D02*
X31718095Y-73313390D01*
X31718095Y-73313390D02*
X31622857Y-73361009D01*
X31622857Y-73361009D02*
X31575238Y-73408628D01*
X31575238Y-73408628D02*
X31527619Y-73503866D01*
X31527619Y-73503866D02*
X31527619Y-73694342D01*
X31527619Y-73694342D02*
X31575238Y-73789580D01*
X31575238Y-73789580D02*
X31622857Y-73837200D01*
X31622857Y-73837200D02*
X31718095Y-73884819D01*
X31718095Y-73884819D02*
X31908571Y-73884819D01*
X31908571Y-73884819D02*
X32003809Y-73837200D01*
X32003809Y-73837200D02*
X32051428Y-73789580D01*
X32051428Y-73789580D02*
X32099047Y-73694342D01*
X32099047Y-73694342D02*
X32099047Y-73503866D01*
X32099047Y-73503866D02*
X32051428Y-73408628D01*
X32051428Y-73408628D02*
X32003809Y-73361009D01*
X32003809Y-73361009D02*
X31908571Y-73313390D01*
X29194285Y-65264819D02*
X29194285Y-65979104D01*
X29194285Y-65979104D02*
X29146666Y-66121961D01*
X29146666Y-66121961D02*
X29051428Y-66217200D01*
X29051428Y-66217200D02*
X28908571Y-66264819D01*
X28908571Y-66264819D02*
X28813333Y-66264819D01*
X30194285Y-66264819D02*
X29622857Y-66264819D01*
X29908571Y-66264819D02*
X29908571Y-65264819D01*
X29908571Y-65264819D02*
X29813333Y-65407676D01*
X29813333Y-65407676D02*
X29718095Y-65502914D01*
X29718095Y-65502914D02*
X29622857Y-65550533D01*
X31146666Y-66264819D02*
X30575238Y-66264819D01*
X30860952Y-66264819D02*
X30860952Y-65264819D01*
X30860952Y-65264819D02*
X30765714Y-65407676D01*
X30765714Y-65407676D02*
X30670476Y-65502914D01*
X30670476Y-65502914D02*
X30575238Y-65550533D01*
X32051428Y-65264819D02*
X31575238Y-65264819D01*
X31575238Y-65264819D02*
X31527619Y-65741009D01*
X31527619Y-65741009D02*
X31575238Y-65693390D01*
X31575238Y-65693390D02*
X31670476Y-65645771D01*
X31670476Y-65645771D02*
X31908571Y-65645771D01*
X31908571Y-65645771D02*
X32003809Y-65693390D01*
X32003809Y-65693390D02*
X32051428Y-65741009D01*
X32051428Y-65741009D02*
X32099047Y-65836247D01*
X32099047Y-65836247D02*
X32099047Y-66074342D01*
X32099047Y-66074342D02*
X32051428Y-66169580D01*
X32051428Y-66169580D02*
X32003809Y-66217200D01*
X32003809Y-66217200D02*
X31908571Y-66264819D01*
X31908571Y-66264819D02*
X31670476Y-66264819D01*
X31670476Y-66264819D02*
X31575238Y-66217200D01*
X31575238Y-66217200D02*
X31527619Y-66169580D01*
X34274285Y-15734819D02*
X34274285Y-16449104D01*
X34274285Y-16449104D02*
X34226666Y-16591961D01*
X34226666Y-16591961D02*
X34131428Y-16687200D01*
X34131428Y-16687200D02*
X33988571Y-16734819D01*
X33988571Y-16734819D02*
X33893333Y-16734819D01*
X35274285Y-16734819D02*
X34702857Y-16734819D01*
X34988571Y-16734819D02*
X34988571Y-15734819D01*
X34988571Y-15734819D02*
X34893333Y-15877676D01*
X34893333Y-15877676D02*
X34798095Y-15972914D01*
X34798095Y-15972914D02*
X34702857Y-16020533D01*
X36226666Y-16734819D02*
X35655238Y-16734819D01*
X35940952Y-16734819D02*
X35940952Y-15734819D01*
X35940952Y-15734819D02*
X35845714Y-15877676D01*
X35845714Y-15877676D02*
X35750476Y-15972914D01*
X35750476Y-15972914D02*
X35655238Y-16020533D01*
X36607619Y-15830057D02*
X36655238Y-15782438D01*
X36655238Y-15782438D02*
X36750476Y-15734819D01*
X36750476Y-15734819D02*
X36988571Y-15734819D01*
X36988571Y-15734819D02*
X37083809Y-15782438D01*
X37083809Y-15782438D02*
X37131428Y-15830057D01*
X37131428Y-15830057D02*
X37179047Y-15925295D01*
X37179047Y-15925295D02*
X37179047Y-16020533D01*
X37179047Y-16020533D02*
X37131428Y-16163390D01*
X37131428Y-16163390D02*
X36560000Y-16734819D01*
X36560000Y-16734819D02*
X37179047Y-16734819D01*
X82772380Y-40170057D02*
X82677142Y-40122438D01*
X82677142Y-40122438D02*
X82581904Y-40027200D01*
X82581904Y-40027200D02*
X82439047Y-39884342D01*
X82439047Y-39884342D02*
X82343809Y-39836723D01*
X82343809Y-39836723D02*
X82248571Y-39836723D01*
X82296190Y-40074819D02*
X82200952Y-40027200D01*
X82200952Y-40027200D02*
X82105714Y-39931961D01*
X82105714Y-39931961D02*
X82058095Y-39741485D01*
X82058095Y-39741485D02*
X82058095Y-39408152D01*
X82058095Y-39408152D02*
X82105714Y-39217676D01*
X82105714Y-39217676D02*
X82200952Y-39122438D01*
X82200952Y-39122438D02*
X82296190Y-39074819D01*
X82296190Y-39074819D02*
X82486666Y-39074819D01*
X82486666Y-39074819D02*
X82581904Y-39122438D01*
X82581904Y-39122438D02*
X82677142Y-39217676D01*
X82677142Y-39217676D02*
X82724761Y-39408152D01*
X82724761Y-39408152D02*
X82724761Y-39741485D01*
X82724761Y-39741485D02*
X82677142Y-39931961D01*
X82677142Y-39931961D02*
X82581904Y-40027200D01*
X82581904Y-40027200D02*
X82486666Y-40074819D01*
X82486666Y-40074819D02*
X82296190Y-40074819D01*
X83581904Y-39074819D02*
X83391428Y-39074819D01*
X83391428Y-39074819D02*
X83296190Y-39122438D01*
X83296190Y-39122438D02*
X83248571Y-39170057D01*
X83248571Y-39170057D02*
X83153333Y-39312914D01*
X83153333Y-39312914D02*
X83105714Y-39503390D01*
X83105714Y-39503390D02*
X83105714Y-39884342D01*
X83105714Y-39884342D02*
X83153333Y-39979580D01*
X83153333Y-39979580D02*
X83200952Y-40027200D01*
X83200952Y-40027200D02*
X83296190Y-40074819D01*
X83296190Y-40074819D02*
X83486666Y-40074819D01*
X83486666Y-40074819D02*
X83581904Y-40027200D01*
X83581904Y-40027200D02*
X83629523Y-39979580D01*
X83629523Y-39979580D02*
X83677142Y-39884342D01*
X83677142Y-39884342D02*
X83677142Y-39646247D01*
X83677142Y-39646247D02*
X83629523Y-39551009D01*
X83629523Y-39551009D02*
X83581904Y-39503390D01*
X83581904Y-39503390D02*
X83486666Y-39455771D01*
X83486666Y-39455771D02*
X83296190Y-39455771D01*
X83296190Y-39455771D02*
X83200952Y-39503390D01*
X83200952Y-39503390D02*
X83153333Y-39551009D01*
X83153333Y-39551009D02*
X83105714Y-39646247D01*
X84296190Y-39074819D02*
X84391428Y-39074819D01*
X84391428Y-39074819D02*
X84486666Y-39122438D01*
X84486666Y-39122438D02*
X84534285Y-39170057D01*
X84534285Y-39170057D02*
X84581904Y-39265295D01*
X84581904Y-39265295D02*
X84629523Y-39455771D01*
X84629523Y-39455771D02*
X84629523Y-39693866D01*
X84629523Y-39693866D02*
X84581904Y-39884342D01*
X84581904Y-39884342D02*
X84534285Y-39979580D01*
X84534285Y-39979580D02*
X84486666Y-40027200D01*
X84486666Y-40027200D02*
X84391428Y-40074819D01*
X84391428Y-40074819D02*
X84296190Y-40074819D01*
X84296190Y-40074819D02*
X84200952Y-40027200D01*
X84200952Y-40027200D02*
X84153333Y-39979580D01*
X84153333Y-39979580D02*
X84105714Y-39884342D01*
X84105714Y-39884342D02*
X84058095Y-39693866D01*
X84058095Y-39693866D02*
X84058095Y-39455771D01*
X84058095Y-39455771D02*
X84105714Y-39265295D01*
X84105714Y-39265295D02*
X84153333Y-39170057D01*
X84153333Y-39170057D02*
X84200952Y-39122438D01*
X84200952Y-39122438D02*
X84296190Y-39074819D01*
X85581904Y-40074819D02*
X85010476Y-40074819D01*
X85296190Y-40074819D02*
X85296190Y-39074819D01*
X85296190Y-39074819D02*
X85200952Y-39217676D01*
X85200952Y-39217676D02*
X85105714Y-39312914D01*
X85105714Y-39312914D02*
X85010476Y-39360533D01*
X70000952Y-18064819D02*
X69667619Y-17588628D01*
X69429524Y-18064819D02*
X69429524Y-17064819D01*
X69429524Y-17064819D02*
X69810476Y-17064819D01*
X69810476Y-17064819D02*
X69905714Y-17112438D01*
X69905714Y-17112438D02*
X69953333Y-17160057D01*
X69953333Y-17160057D02*
X70000952Y-17255295D01*
X70000952Y-17255295D02*
X70000952Y-17398152D01*
X70000952Y-17398152D02*
X69953333Y-17493390D01*
X69953333Y-17493390D02*
X69905714Y-17541009D01*
X69905714Y-17541009D02*
X69810476Y-17588628D01*
X69810476Y-17588628D02*
X69429524Y-17588628D01*
X70953333Y-18064819D02*
X70381905Y-18064819D01*
X70667619Y-18064819D02*
X70667619Y-17064819D01*
X70667619Y-17064819D02*
X70572381Y-17207676D01*
X70572381Y-17207676D02*
X70477143Y-17302914D01*
X70477143Y-17302914D02*
X70381905Y-17350533D01*
X71572381Y-17064819D02*
X71667619Y-17064819D01*
X71667619Y-17064819D02*
X71762857Y-17112438D01*
X71762857Y-17112438D02*
X71810476Y-17160057D01*
X71810476Y-17160057D02*
X71858095Y-17255295D01*
X71858095Y-17255295D02*
X71905714Y-17445771D01*
X71905714Y-17445771D02*
X71905714Y-17683866D01*
X71905714Y-17683866D02*
X71858095Y-17874342D01*
X71858095Y-17874342D02*
X71810476Y-17969580D01*
X71810476Y-17969580D02*
X71762857Y-18017200D01*
X71762857Y-18017200D02*
X71667619Y-18064819D01*
X71667619Y-18064819D02*
X71572381Y-18064819D01*
X71572381Y-18064819D02*
X71477143Y-18017200D01*
X71477143Y-18017200D02*
X71429524Y-17969580D01*
X71429524Y-17969580D02*
X71381905Y-17874342D01*
X71381905Y-17874342D02*
X71334286Y-17683866D01*
X71334286Y-17683866D02*
X71334286Y-17445771D01*
X71334286Y-17445771D02*
X71381905Y-17255295D01*
X71381905Y-17255295D02*
X71429524Y-17160057D01*
X71429524Y-17160057D02*
X71477143Y-17112438D01*
X71477143Y-17112438D02*
X71572381Y-17064819D01*
X72858095Y-18064819D02*
X72286667Y-18064819D01*
X72572381Y-18064819D02*
X72572381Y-17064819D01*
X72572381Y-17064819D02*
X72477143Y-17207676D01*
X72477143Y-17207676D02*
X72381905Y-17302914D01*
X72381905Y-17302914D02*
X72286667Y-17350533D01*
X76422380Y-55410057D02*
X76327142Y-55362438D01*
X76327142Y-55362438D02*
X76231904Y-55267200D01*
X76231904Y-55267200D02*
X76089047Y-55124342D01*
X76089047Y-55124342D02*
X75993809Y-55076723D01*
X75993809Y-55076723D02*
X75898571Y-55076723D01*
X75946190Y-55314819D02*
X75850952Y-55267200D01*
X75850952Y-55267200D02*
X75755714Y-55171961D01*
X75755714Y-55171961D02*
X75708095Y-54981485D01*
X75708095Y-54981485D02*
X75708095Y-54648152D01*
X75708095Y-54648152D02*
X75755714Y-54457676D01*
X75755714Y-54457676D02*
X75850952Y-54362438D01*
X75850952Y-54362438D02*
X75946190Y-54314819D01*
X75946190Y-54314819D02*
X76136666Y-54314819D01*
X76136666Y-54314819D02*
X76231904Y-54362438D01*
X76231904Y-54362438D02*
X76327142Y-54457676D01*
X76327142Y-54457676D02*
X76374761Y-54648152D01*
X76374761Y-54648152D02*
X76374761Y-54981485D01*
X76374761Y-54981485D02*
X76327142Y-55171961D01*
X76327142Y-55171961D02*
X76231904Y-55267200D01*
X76231904Y-55267200D02*
X76136666Y-55314819D01*
X76136666Y-55314819D02*
X75946190Y-55314819D01*
X77279523Y-54314819D02*
X76803333Y-54314819D01*
X76803333Y-54314819D02*
X76755714Y-54791009D01*
X76755714Y-54791009D02*
X76803333Y-54743390D01*
X76803333Y-54743390D02*
X76898571Y-54695771D01*
X76898571Y-54695771D02*
X77136666Y-54695771D01*
X77136666Y-54695771D02*
X77231904Y-54743390D01*
X77231904Y-54743390D02*
X77279523Y-54791009D01*
X77279523Y-54791009D02*
X77327142Y-54886247D01*
X77327142Y-54886247D02*
X77327142Y-55124342D01*
X77327142Y-55124342D02*
X77279523Y-55219580D01*
X77279523Y-55219580D02*
X77231904Y-55267200D01*
X77231904Y-55267200D02*
X77136666Y-55314819D01*
X77136666Y-55314819D02*
X76898571Y-55314819D01*
X76898571Y-55314819D02*
X76803333Y-55267200D01*
X76803333Y-55267200D02*
X76755714Y-55219580D01*
X77946190Y-54314819D02*
X78041428Y-54314819D01*
X78041428Y-54314819D02*
X78136666Y-54362438D01*
X78136666Y-54362438D02*
X78184285Y-54410057D01*
X78184285Y-54410057D02*
X78231904Y-54505295D01*
X78231904Y-54505295D02*
X78279523Y-54695771D01*
X78279523Y-54695771D02*
X78279523Y-54933866D01*
X78279523Y-54933866D02*
X78231904Y-55124342D01*
X78231904Y-55124342D02*
X78184285Y-55219580D01*
X78184285Y-55219580D02*
X78136666Y-55267200D01*
X78136666Y-55267200D02*
X78041428Y-55314819D01*
X78041428Y-55314819D02*
X77946190Y-55314819D01*
X77946190Y-55314819D02*
X77850952Y-55267200D01*
X77850952Y-55267200D02*
X77803333Y-55219580D01*
X77803333Y-55219580D02*
X77755714Y-55124342D01*
X77755714Y-55124342D02*
X77708095Y-54933866D01*
X77708095Y-54933866D02*
X77708095Y-54695771D01*
X77708095Y-54695771D02*
X77755714Y-54505295D01*
X77755714Y-54505295D02*
X77803333Y-54410057D01*
X77803333Y-54410057D02*
X77850952Y-54362438D01*
X77850952Y-54362438D02*
X77946190Y-54314819D01*
X79136666Y-54648152D02*
X79136666Y-55314819D01*
X78898571Y-54267200D02*
X78660476Y-54981485D01*
X78660476Y-54981485D02*
X79279523Y-54981485D01*
X76824819Y-67159047D02*
X76348628Y-67492380D01*
X76824819Y-67730475D02*
X75824819Y-67730475D01*
X75824819Y-67730475D02*
X75824819Y-67349523D01*
X75824819Y-67349523D02*
X75872438Y-67254285D01*
X75872438Y-67254285D02*
X75920057Y-67206666D01*
X75920057Y-67206666D02*
X76015295Y-67159047D01*
X76015295Y-67159047D02*
X76158152Y-67159047D01*
X76158152Y-67159047D02*
X76253390Y-67206666D01*
X76253390Y-67206666D02*
X76301009Y-67254285D01*
X76301009Y-67254285D02*
X76348628Y-67349523D01*
X76348628Y-67349523D02*
X76348628Y-67730475D01*
X76824819Y-66206666D02*
X76824819Y-66778094D01*
X76824819Y-66492380D02*
X75824819Y-66492380D01*
X75824819Y-66492380D02*
X75967676Y-66587618D01*
X75967676Y-66587618D02*
X76062914Y-66682856D01*
X76062914Y-66682856D02*
X76110533Y-66778094D01*
X75824819Y-65587618D02*
X75824819Y-65492380D01*
X75824819Y-65492380D02*
X75872438Y-65397142D01*
X75872438Y-65397142D02*
X75920057Y-65349523D01*
X75920057Y-65349523D02*
X76015295Y-65301904D01*
X76015295Y-65301904D02*
X76205771Y-65254285D01*
X76205771Y-65254285D02*
X76443866Y-65254285D01*
X76443866Y-65254285D02*
X76634342Y-65301904D01*
X76634342Y-65301904D02*
X76729580Y-65349523D01*
X76729580Y-65349523D02*
X76777200Y-65397142D01*
X76777200Y-65397142D02*
X76824819Y-65492380D01*
X76824819Y-65492380D02*
X76824819Y-65587618D01*
X76824819Y-65587618D02*
X76777200Y-65682856D01*
X76777200Y-65682856D02*
X76729580Y-65730475D01*
X76729580Y-65730475D02*
X76634342Y-65778094D01*
X76634342Y-65778094D02*
X76443866Y-65825713D01*
X76443866Y-65825713D02*
X76205771Y-65825713D01*
X76205771Y-65825713D02*
X76015295Y-65778094D01*
X76015295Y-65778094D02*
X75920057Y-65730475D01*
X75920057Y-65730475D02*
X75872438Y-65682856D01*
X75872438Y-65682856D02*
X75824819Y-65587618D01*
X75824819Y-64397142D02*
X75824819Y-64587618D01*
X75824819Y-64587618D02*
X75872438Y-64682856D01*
X75872438Y-64682856D02*
X75920057Y-64730475D01*
X75920057Y-64730475D02*
X76062914Y-64825713D01*
X76062914Y-64825713D02*
X76253390Y-64873332D01*
X76253390Y-64873332D02*
X76634342Y-64873332D01*
X76634342Y-64873332D02*
X76729580Y-64825713D01*
X76729580Y-64825713D02*
X76777200Y-64778094D01*
X76777200Y-64778094D02*
X76824819Y-64682856D01*
X76824819Y-64682856D02*
X76824819Y-64492380D01*
X76824819Y-64492380D02*
X76777200Y-64397142D01*
X76777200Y-64397142D02*
X76729580Y-64349523D01*
X76729580Y-64349523D02*
X76634342Y-64301904D01*
X76634342Y-64301904D02*
X76396247Y-64301904D01*
X76396247Y-64301904D02*
X76301009Y-64349523D01*
X76301009Y-64349523D02*
X76253390Y-64397142D01*
X76253390Y-64397142D02*
X76205771Y-64492380D01*
X76205771Y-64492380D02*
X76205771Y-64682856D01*
X76205771Y-64682856D02*
X76253390Y-64778094D01*
X76253390Y-64778094D02*
X76301009Y-64825713D01*
X76301009Y-64825713D02*
X76396247Y-64873332D01*
X10144285Y-33514819D02*
X10144285Y-34229104D01*
X10144285Y-34229104D02*
X10096666Y-34371961D01*
X10096666Y-34371961D02*
X10001428Y-34467200D01*
X10001428Y-34467200D02*
X9858571Y-34514819D01*
X9858571Y-34514819D02*
X9763333Y-34514819D01*
X11144285Y-34514819D02*
X10572857Y-34514819D01*
X10858571Y-34514819D02*
X10858571Y-33514819D01*
X10858571Y-33514819D02*
X10763333Y-33657676D01*
X10763333Y-33657676D02*
X10668095Y-33752914D01*
X10668095Y-33752914D02*
X10572857Y-33800533D01*
X11763333Y-33514819D02*
X11858571Y-33514819D01*
X11858571Y-33514819D02*
X11953809Y-33562438D01*
X11953809Y-33562438D02*
X12001428Y-33610057D01*
X12001428Y-33610057D02*
X12049047Y-33705295D01*
X12049047Y-33705295D02*
X12096666Y-33895771D01*
X12096666Y-33895771D02*
X12096666Y-34133866D01*
X12096666Y-34133866D02*
X12049047Y-34324342D01*
X12049047Y-34324342D02*
X12001428Y-34419580D01*
X12001428Y-34419580D02*
X11953809Y-34467200D01*
X11953809Y-34467200D02*
X11858571Y-34514819D01*
X11858571Y-34514819D02*
X11763333Y-34514819D01*
X11763333Y-34514819D02*
X11668095Y-34467200D01*
X11668095Y-34467200D02*
X11620476Y-34419580D01*
X11620476Y-34419580D02*
X11572857Y-34324342D01*
X11572857Y-34324342D02*
X11525238Y-34133866D01*
X11525238Y-34133866D02*
X11525238Y-33895771D01*
X11525238Y-33895771D02*
X11572857Y-33705295D01*
X11572857Y-33705295D02*
X11620476Y-33610057D01*
X11620476Y-33610057D02*
X11668095Y-33562438D01*
X11668095Y-33562438D02*
X11763333Y-33514819D01*
X12668095Y-33943390D02*
X12572857Y-33895771D01*
X12572857Y-33895771D02*
X12525238Y-33848152D01*
X12525238Y-33848152D02*
X12477619Y-33752914D01*
X12477619Y-33752914D02*
X12477619Y-33705295D01*
X12477619Y-33705295D02*
X12525238Y-33610057D01*
X12525238Y-33610057D02*
X12572857Y-33562438D01*
X12572857Y-33562438D02*
X12668095Y-33514819D01*
X12668095Y-33514819D02*
X12858571Y-33514819D01*
X12858571Y-33514819D02*
X12953809Y-33562438D01*
X12953809Y-33562438D02*
X13001428Y-33610057D01*
X13001428Y-33610057D02*
X13049047Y-33705295D01*
X13049047Y-33705295D02*
X13049047Y-33752914D01*
X13049047Y-33752914D02*
X13001428Y-33848152D01*
X13001428Y-33848152D02*
X12953809Y-33895771D01*
X12953809Y-33895771D02*
X12858571Y-33943390D01*
X12858571Y-33943390D02*
X12668095Y-33943390D01*
X12668095Y-33943390D02*
X12572857Y-33991009D01*
X12572857Y-33991009D02*
X12525238Y-34038628D01*
X12525238Y-34038628D02*
X12477619Y-34133866D01*
X12477619Y-34133866D02*
X12477619Y-34324342D01*
X12477619Y-34324342D02*
X12525238Y-34419580D01*
X12525238Y-34419580D02*
X12572857Y-34467200D01*
X12572857Y-34467200D02*
X12668095Y-34514819D01*
X12668095Y-34514819D02*
X12858571Y-34514819D01*
X12858571Y-34514819D02*
X12953809Y-34467200D01*
X12953809Y-34467200D02*
X13001428Y-34419580D01*
X13001428Y-34419580D02*
X13049047Y-34324342D01*
X13049047Y-34324342D02*
X13049047Y-34133866D01*
X13049047Y-34133866D02*
X13001428Y-34038628D01*
X13001428Y-34038628D02*
X12953809Y-33991009D01*
X12953809Y-33991009D02*
X12858571Y-33943390D01*
X10144285Y-28434819D02*
X10144285Y-29149104D01*
X10144285Y-29149104D02*
X10096666Y-29291961D01*
X10096666Y-29291961D02*
X10001428Y-29387200D01*
X10001428Y-29387200D02*
X9858571Y-29434819D01*
X9858571Y-29434819D02*
X9763333Y-29434819D01*
X11144285Y-29434819D02*
X10572857Y-29434819D01*
X10858571Y-29434819D02*
X10858571Y-28434819D01*
X10858571Y-28434819D02*
X10763333Y-28577676D01*
X10763333Y-28577676D02*
X10668095Y-28672914D01*
X10668095Y-28672914D02*
X10572857Y-28720533D01*
X11763333Y-28434819D02*
X11858571Y-28434819D01*
X11858571Y-28434819D02*
X11953809Y-28482438D01*
X11953809Y-28482438D02*
X12001428Y-28530057D01*
X12001428Y-28530057D02*
X12049047Y-28625295D01*
X12049047Y-28625295D02*
X12096666Y-28815771D01*
X12096666Y-28815771D02*
X12096666Y-29053866D01*
X12096666Y-29053866D02*
X12049047Y-29244342D01*
X12049047Y-29244342D02*
X12001428Y-29339580D01*
X12001428Y-29339580D02*
X11953809Y-29387200D01*
X11953809Y-29387200D02*
X11858571Y-29434819D01*
X11858571Y-29434819D02*
X11763333Y-29434819D01*
X11763333Y-29434819D02*
X11668095Y-29387200D01*
X11668095Y-29387200D02*
X11620476Y-29339580D01*
X11620476Y-29339580D02*
X11572857Y-29244342D01*
X11572857Y-29244342D02*
X11525238Y-29053866D01*
X11525238Y-29053866D02*
X11525238Y-28815771D01*
X11525238Y-28815771D02*
X11572857Y-28625295D01*
X11572857Y-28625295D02*
X11620476Y-28530057D01*
X11620476Y-28530057D02*
X11668095Y-28482438D01*
X11668095Y-28482438D02*
X11763333Y-28434819D01*
X12953809Y-28434819D02*
X12763333Y-28434819D01*
X12763333Y-28434819D02*
X12668095Y-28482438D01*
X12668095Y-28482438D02*
X12620476Y-28530057D01*
X12620476Y-28530057D02*
X12525238Y-28672914D01*
X12525238Y-28672914D02*
X12477619Y-28863390D01*
X12477619Y-28863390D02*
X12477619Y-29244342D01*
X12477619Y-29244342D02*
X12525238Y-29339580D01*
X12525238Y-29339580D02*
X12572857Y-29387200D01*
X12572857Y-29387200D02*
X12668095Y-29434819D01*
X12668095Y-29434819D02*
X12858571Y-29434819D01*
X12858571Y-29434819D02*
X12953809Y-29387200D01*
X12953809Y-29387200D02*
X13001428Y-29339580D01*
X13001428Y-29339580D02*
X13049047Y-29244342D01*
X13049047Y-29244342D02*
X13049047Y-29006247D01*
X13049047Y-29006247D02*
X13001428Y-28911009D01*
X13001428Y-28911009D02*
X12953809Y-28863390D01*
X12953809Y-28863390D02*
X12858571Y-28815771D01*
X12858571Y-28815771D02*
X12668095Y-28815771D01*
X12668095Y-28815771D02*
X12572857Y-28863390D01*
X12572857Y-28863390D02*
X12525238Y-28911009D01*
X12525238Y-28911009D02*
X12477619Y-29006247D01*
X64754285Y-15734819D02*
X64754285Y-16449104D01*
X64754285Y-16449104D02*
X64706666Y-16591961D01*
X64706666Y-16591961D02*
X64611428Y-16687200D01*
X64611428Y-16687200D02*
X64468571Y-16734819D01*
X64468571Y-16734819D02*
X64373333Y-16734819D01*
X65754285Y-16734819D02*
X65182857Y-16734819D01*
X65468571Y-16734819D02*
X65468571Y-15734819D01*
X65468571Y-15734819D02*
X65373333Y-15877676D01*
X65373333Y-15877676D02*
X65278095Y-15972914D01*
X65278095Y-15972914D02*
X65182857Y-16020533D01*
X66373333Y-15734819D02*
X66468571Y-15734819D01*
X66468571Y-15734819D02*
X66563809Y-15782438D01*
X66563809Y-15782438D02*
X66611428Y-15830057D01*
X66611428Y-15830057D02*
X66659047Y-15925295D01*
X66659047Y-15925295D02*
X66706666Y-16115771D01*
X66706666Y-16115771D02*
X66706666Y-16353866D01*
X66706666Y-16353866D02*
X66659047Y-16544342D01*
X66659047Y-16544342D02*
X66611428Y-16639580D01*
X66611428Y-16639580D02*
X66563809Y-16687200D01*
X66563809Y-16687200D02*
X66468571Y-16734819D01*
X66468571Y-16734819D02*
X66373333Y-16734819D01*
X66373333Y-16734819D02*
X66278095Y-16687200D01*
X66278095Y-16687200D02*
X66230476Y-16639580D01*
X66230476Y-16639580D02*
X66182857Y-16544342D01*
X66182857Y-16544342D02*
X66135238Y-16353866D01*
X66135238Y-16353866D02*
X66135238Y-16115771D01*
X66135238Y-16115771D02*
X66182857Y-15925295D01*
X66182857Y-15925295D02*
X66230476Y-15830057D01*
X66230476Y-15830057D02*
X66278095Y-15782438D01*
X66278095Y-15782438D02*
X66373333Y-15734819D01*
X67563809Y-16068152D02*
X67563809Y-16734819D01*
X67325714Y-15687200D02*
X67087619Y-16401485D01*
X67087619Y-16401485D02*
X67706666Y-16401485D01*
X59674285Y-15734819D02*
X59674285Y-16449104D01*
X59674285Y-16449104D02*
X59626666Y-16591961D01*
X59626666Y-16591961D02*
X59531428Y-16687200D01*
X59531428Y-16687200D02*
X59388571Y-16734819D01*
X59388571Y-16734819D02*
X59293333Y-16734819D01*
X60674285Y-16734819D02*
X60102857Y-16734819D01*
X60388571Y-16734819D02*
X60388571Y-15734819D01*
X60388571Y-15734819D02*
X60293333Y-15877676D01*
X60293333Y-15877676D02*
X60198095Y-15972914D01*
X60198095Y-15972914D02*
X60102857Y-16020533D01*
X61293333Y-15734819D02*
X61388571Y-15734819D01*
X61388571Y-15734819D02*
X61483809Y-15782438D01*
X61483809Y-15782438D02*
X61531428Y-15830057D01*
X61531428Y-15830057D02*
X61579047Y-15925295D01*
X61579047Y-15925295D02*
X61626666Y-16115771D01*
X61626666Y-16115771D02*
X61626666Y-16353866D01*
X61626666Y-16353866D02*
X61579047Y-16544342D01*
X61579047Y-16544342D02*
X61531428Y-16639580D01*
X61531428Y-16639580D02*
X61483809Y-16687200D01*
X61483809Y-16687200D02*
X61388571Y-16734819D01*
X61388571Y-16734819D02*
X61293333Y-16734819D01*
X61293333Y-16734819D02*
X61198095Y-16687200D01*
X61198095Y-16687200D02*
X61150476Y-16639580D01*
X61150476Y-16639580D02*
X61102857Y-16544342D01*
X61102857Y-16544342D02*
X61055238Y-16353866D01*
X61055238Y-16353866D02*
X61055238Y-16115771D01*
X61055238Y-16115771D02*
X61102857Y-15925295D01*
X61102857Y-15925295D02*
X61150476Y-15830057D01*
X61150476Y-15830057D02*
X61198095Y-15782438D01*
X61198095Y-15782438D02*
X61293333Y-15734819D01*
X62579047Y-16734819D02*
X62007619Y-16734819D01*
X62293333Y-16734819D02*
X62293333Y-15734819D01*
X62293333Y-15734819D02*
X62198095Y-15877676D01*
X62198095Y-15877676D02*
X62102857Y-15972914D01*
X62102857Y-15972914D02*
X62007619Y-16020533D01*
X43518990Y-34687143D02*
X43518990Y-35020476D01*
X42995180Y-35163333D02*
X42995180Y-34687143D01*
X42995180Y-34687143D02*
X43995180Y-34687143D01*
X43995180Y-34687143D02*
X43995180Y-35163333D01*
X43042800Y-35544286D02*
X42995180Y-35687143D01*
X42995180Y-35687143D02*
X42995180Y-35925238D01*
X42995180Y-35925238D02*
X43042800Y-36020476D01*
X43042800Y-36020476D02*
X43090419Y-36068095D01*
X43090419Y-36068095D02*
X43185657Y-36115714D01*
X43185657Y-36115714D02*
X43280895Y-36115714D01*
X43280895Y-36115714D02*
X43376133Y-36068095D01*
X43376133Y-36068095D02*
X43423752Y-36020476D01*
X43423752Y-36020476D02*
X43471371Y-35925238D01*
X43471371Y-35925238D02*
X43518990Y-35734762D01*
X43518990Y-35734762D02*
X43566609Y-35639524D01*
X43566609Y-35639524D02*
X43614228Y-35591905D01*
X43614228Y-35591905D02*
X43709466Y-35544286D01*
X43709466Y-35544286D02*
X43804704Y-35544286D01*
X43804704Y-35544286D02*
X43899942Y-35591905D01*
X43899942Y-35591905D02*
X43947561Y-35639524D01*
X43947561Y-35639524D02*
X43995180Y-35734762D01*
X43995180Y-35734762D02*
X43995180Y-35972857D01*
X43995180Y-35972857D02*
X43947561Y-36115714D01*
X42995180Y-36544286D02*
X43995180Y-36544286D01*
X43995180Y-36544286D02*
X43995180Y-36925238D01*
X43995180Y-36925238D02*
X43947561Y-37020476D01*
X43947561Y-37020476D02*
X43899942Y-37068095D01*
X43899942Y-37068095D02*
X43804704Y-37115714D01*
X43804704Y-37115714D02*
X43661847Y-37115714D01*
X43661847Y-37115714D02*
X43566609Y-37068095D01*
X43566609Y-37068095D02*
X43518990Y-37020476D01*
X43518990Y-37020476D02*
X43471371Y-36925238D01*
X43471371Y-36925238D02*
X43471371Y-36544286D01*
X43995180Y-37449048D02*
X43995180Y-38068095D01*
X43995180Y-38068095D02*
X43614228Y-37734762D01*
X43614228Y-37734762D02*
X43614228Y-37877619D01*
X43614228Y-37877619D02*
X43566609Y-37972857D01*
X43566609Y-37972857D02*
X43518990Y-38020476D01*
X43518990Y-38020476D02*
X43423752Y-38068095D01*
X43423752Y-38068095D02*
X43185657Y-38068095D01*
X43185657Y-38068095D02*
X43090419Y-38020476D01*
X43090419Y-38020476D02*
X43042800Y-37972857D01*
X43042800Y-37972857D02*
X42995180Y-37877619D01*
X42995180Y-37877619D02*
X42995180Y-37591905D01*
X42995180Y-37591905D02*
X43042800Y-37496667D01*
X43042800Y-37496667D02*
X43090419Y-37449048D01*
X43899942Y-38449048D02*
X43947561Y-38496667D01*
X43947561Y-38496667D02*
X43995180Y-38591905D01*
X43995180Y-38591905D02*
X43995180Y-38830000D01*
X43995180Y-38830000D02*
X43947561Y-38925238D01*
X43947561Y-38925238D02*
X43899942Y-38972857D01*
X43899942Y-38972857D02*
X43804704Y-39020476D01*
X43804704Y-39020476D02*
X43709466Y-39020476D01*
X43709466Y-39020476D02*
X43566609Y-38972857D01*
X43566609Y-38972857D02*
X42995180Y-38401429D01*
X42995180Y-38401429D02*
X42995180Y-39020476D01*
D11*
X62101390Y-25973884D02*
X62101390Y-26307217D01*
X61577580Y-26450074D02*
X61577580Y-25973884D01*
X61577580Y-25973884D02*
X62577580Y-25973884D01*
X62577580Y-25973884D02*
X62577580Y-26450074D01*
X61577580Y-26878646D02*
X62577580Y-26878646D01*
X62577580Y-26878646D02*
X61577580Y-27450074D01*
X61577580Y-27450074D02*
X62577580Y-27450074D01*
D10*
X49830057Y-64547619D02*
X49782438Y-64642857D01*
X49782438Y-64642857D02*
X49687200Y-64738095D01*
X49687200Y-64738095D02*
X49544342Y-64880952D01*
X49544342Y-64880952D02*
X49496723Y-64976190D01*
X49496723Y-64976190D02*
X49496723Y-65071428D01*
X49734819Y-65023809D02*
X49687200Y-65119047D01*
X49687200Y-65119047D02*
X49591961Y-65214285D01*
X49591961Y-65214285D02*
X49401485Y-65261904D01*
X49401485Y-65261904D02*
X49068152Y-65261904D01*
X49068152Y-65261904D02*
X48877676Y-65214285D01*
X48877676Y-65214285D02*
X48782438Y-65119047D01*
X48782438Y-65119047D02*
X48734819Y-65023809D01*
X48734819Y-65023809D02*
X48734819Y-64833333D01*
X48734819Y-64833333D02*
X48782438Y-64738095D01*
X48782438Y-64738095D02*
X48877676Y-64642857D01*
X48877676Y-64642857D02*
X49068152Y-64595238D01*
X49068152Y-64595238D02*
X49401485Y-64595238D01*
X49401485Y-64595238D02*
X49591961Y-64642857D01*
X49591961Y-64642857D02*
X49687200Y-64738095D01*
X49687200Y-64738095D02*
X49734819Y-64833333D01*
X49734819Y-64833333D02*
X49734819Y-65023809D01*
X48734819Y-64261904D02*
X48734819Y-63642857D01*
X48734819Y-63642857D02*
X49115771Y-63976190D01*
X49115771Y-63976190D02*
X49115771Y-63833333D01*
X49115771Y-63833333D02*
X49163390Y-63738095D01*
X49163390Y-63738095D02*
X49211009Y-63690476D01*
X49211009Y-63690476D02*
X49306247Y-63642857D01*
X49306247Y-63642857D02*
X49544342Y-63642857D01*
X49544342Y-63642857D02*
X49639580Y-63690476D01*
X49639580Y-63690476D02*
X49687200Y-63738095D01*
X49687200Y-63738095D02*
X49734819Y-63833333D01*
X49734819Y-63833333D02*
X49734819Y-64119047D01*
X49734819Y-64119047D02*
X49687200Y-64214285D01*
X49687200Y-64214285D02*
X49639580Y-64261904D01*
X48734819Y-63023809D02*
X48734819Y-62928571D01*
X48734819Y-62928571D02*
X48782438Y-62833333D01*
X48782438Y-62833333D02*
X48830057Y-62785714D01*
X48830057Y-62785714D02*
X48925295Y-62738095D01*
X48925295Y-62738095D02*
X49115771Y-62690476D01*
X49115771Y-62690476D02*
X49353866Y-62690476D01*
X49353866Y-62690476D02*
X49544342Y-62738095D01*
X49544342Y-62738095D02*
X49639580Y-62785714D01*
X49639580Y-62785714D02*
X49687200Y-62833333D01*
X49687200Y-62833333D02*
X49734819Y-62928571D01*
X49734819Y-62928571D02*
X49734819Y-63023809D01*
X49734819Y-63023809D02*
X49687200Y-63119047D01*
X49687200Y-63119047D02*
X49639580Y-63166666D01*
X49639580Y-63166666D02*
X49544342Y-63214285D01*
X49544342Y-63214285D02*
X49353866Y-63261904D01*
X49353866Y-63261904D02*
X49115771Y-63261904D01*
X49115771Y-63261904D02*
X48925295Y-63214285D01*
X48925295Y-63214285D02*
X48830057Y-63166666D01*
X48830057Y-63166666D02*
X48782438Y-63119047D01*
X48782438Y-63119047D02*
X48734819Y-63023809D01*
X49068152Y-61833333D02*
X49734819Y-61833333D01*
X48687200Y-62071428D02*
X49401485Y-62309523D01*
X49401485Y-62309523D02*
X49401485Y-61690476D01*
X68159524Y-7924819D02*
X68159524Y-6924819D01*
X68159524Y-6924819D02*
X68397619Y-6924819D01*
X68397619Y-6924819D02*
X68540476Y-6972438D01*
X68540476Y-6972438D02*
X68635714Y-7067676D01*
X68635714Y-7067676D02*
X68683333Y-7162914D01*
X68683333Y-7162914D02*
X68730952Y-7353390D01*
X68730952Y-7353390D02*
X68730952Y-7496247D01*
X68730952Y-7496247D02*
X68683333Y-7686723D01*
X68683333Y-7686723D02*
X68635714Y-7781961D01*
X68635714Y-7781961D02*
X68540476Y-7877200D01*
X68540476Y-7877200D02*
X68397619Y-7924819D01*
X68397619Y-7924819D02*
X68159524Y-7924819D01*
X69683333Y-7924819D02*
X69111905Y-7924819D01*
X69397619Y-7924819D02*
X69397619Y-6924819D01*
X69397619Y-6924819D02*
X69302381Y-7067676D01*
X69302381Y-7067676D02*
X69207143Y-7162914D01*
X69207143Y-7162914D02*
X69111905Y-7210533D01*
X70302381Y-6924819D02*
X70397619Y-6924819D01*
X70397619Y-6924819D02*
X70492857Y-6972438D01*
X70492857Y-6972438D02*
X70540476Y-7020057D01*
X70540476Y-7020057D02*
X70588095Y-7115295D01*
X70588095Y-7115295D02*
X70635714Y-7305771D01*
X70635714Y-7305771D02*
X70635714Y-7543866D01*
X70635714Y-7543866D02*
X70588095Y-7734342D01*
X70588095Y-7734342D02*
X70540476Y-7829580D01*
X70540476Y-7829580D02*
X70492857Y-7877200D01*
X70492857Y-7877200D02*
X70397619Y-7924819D01*
X70397619Y-7924819D02*
X70302381Y-7924819D01*
X70302381Y-7924819D02*
X70207143Y-7877200D01*
X70207143Y-7877200D02*
X70159524Y-7829580D01*
X70159524Y-7829580D02*
X70111905Y-7734342D01*
X70111905Y-7734342D02*
X70064286Y-7543866D01*
X70064286Y-7543866D02*
X70064286Y-7305771D01*
X70064286Y-7305771D02*
X70111905Y-7115295D01*
X70111905Y-7115295D02*
X70159524Y-7020057D01*
X70159524Y-7020057D02*
X70207143Y-6972438D01*
X70207143Y-6972438D02*
X70302381Y-6924819D01*
X71588095Y-7924819D02*
X71016667Y-7924819D01*
X71302381Y-7924819D02*
X71302381Y-6924819D01*
X71302381Y-6924819D02*
X71207143Y-7067676D01*
X71207143Y-7067676D02*
X71111905Y-7162914D01*
X71111905Y-7162914D02*
X71016667Y-7210533D01*
X65070057Y-77247619D02*
X65022438Y-77342857D01*
X65022438Y-77342857D02*
X64927200Y-77438095D01*
X64927200Y-77438095D02*
X64784342Y-77580952D01*
X64784342Y-77580952D02*
X64736723Y-77676190D01*
X64736723Y-77676190D02*
X64736723Y-77771428D01*
X64974819Y-77723809D02*
X64927200Y-77819047D01*
X64927200Y-77819047D02*
X64831961Y-77914285D01*
X64831961Y-77914285D02*
X64641485Y-77961904D01*
X64641485Y-77961904D02*
X64308152Y-77961904D01*
X64308152Y-77961904D02*
X64117676Y-77914285D01*
X64117676Y-77914285D02*
X64022438Y-77819047D01*
X64022438Y-77819047D02*
X63974819Y-77723809D01*
X63974819Y-77723809D02*
X63974819Y-77533333D01*
X63974819Y-77533333D02*
X64022438Y-77438095D01*
X64022438Y-77438095D02*
X64117676Y-77342857D01*
X64117676Y-77342857D02*
X64308152Y-77295238D01*
X64308152Y-77295238D02*
X64641485Y-77295238D01*
X64641485Y-77295238D02*
X64831961Y-77342857D01*
X64831961Y-77342857D02*
X64927200Y-77438095D01*
X64927200Y-77438095D02*
X64974819Y-77533333D01*
X64974819Y-77533333D02*
X64974819Y-77723809D01*
X64308152Y-76438095D02*
X64974819Y-76438095D01*
X63927200Y-76676190D02*
X64641485Y-76914285D01*
X64641485Y-76914285D02*
X64641485Y-76295238D01*
X63974819Y-75723809D02*
X63974819Y-75628571D01*
X63974819Y-75628571D02*
X64022438Y-75533333D01*
X64022438Y-75533333D02*
X64070057Y-75485714D01*
X64070057Y-75485714D02*
X64165295Y-75438095D01*
X64165295Y-75438095D02*
X64355771Y-75390476D01*
X64355771Y-75390476D02*
X64593866Y-75390476D01*
X64593866Y-75390476D02*
X64784342Y-75438095D01*
X64784342Y-75438095D02*
X64879580Y-75485714D01*
X64879580Y-75485714D02*
X64927200Y-75533333D01*
X64927200Y-75533333D02*
X64974819Y-75628571D01*
X64974819Y-75628571D02*
X64974819Y-75723809D01*
X64974819Y-75723809D02*
X64927200Y-75819047D01*
X64927200Y-75819047D02*
X64879580Y-75866666D01*
X64879580Y-75866666D02*
X64784342Y-75914285D01*
X64784342Y-75914285D02*
X64593866Y-75961904D01*
X64593866Y-75961904D02*
X64355771Y-75961904D01*
X64355771Y-75961904D02*
X64165295Y-75914285D01*
X64165295Y-75914285D02*
X64070057Y-75866666D01*
X64070057Y-75866666D02*
X64022438Y-75819047D01*
X64022438Y-75819047D02*
X63974819Y-75723809D01*
X64974819Y-74438095D02*
X64974819Y-75009523D01*
X64974819Y-74723809D02*
X63974819Y-74723809D01*
X63974819Y-74723809D02*
X64117676Y-74819047D01*
X64117676Y-74819047D02*
X64212914Y-74914285D01*
X64212914Y-74914285D02*
X64260533Y-75009523D01*
X65070057Y-70897619D02*
X65022438Y-70992857D01*
X65022438Y-70992857D02*
X64927200Y-71088095D01*
X64927200Y-71088095D02*
X64784342Y-71230952D01*
X64784342Y-71230952D02*
X64736723Y-71326190D01*
X64736723Y-71326190D02*
X64736723Y-71421428D01*
X64974819Y-71373809D02*
X64927200Y-71469047D01*
X64927200Y-71469047D02*
X64831961Y-71564285D01*
X64831961Y-71564285D02*
X64641485Y-71611904D01*
X64641485Y-71611904D02*
X64308152Y-71611904D01*
X64308152Y-71611904D02*
X64117676Y-71564285D01*
X64117676Y-71564285D02*
X64022438Y-71469047D01*
X64022438Y-71469047D02*
X63974819Y-71373809D01*
X63974819Y-71373809D02*
X63974819Y-71183333D01*
X63974819Y-71183333D02*
X64022438Y-71088095D01*
X64022438Y-71088095D02*
X64117676Y-70992857D01*
X64117676Y-70992857D02*
X64308152Y-70945238D01*
X64308152Y-70945238D02*
X64641485Y-70945238D01*
X64641485Y-70945238D02*
X64831961Y-70992857D01*
X64831961Y-70992857D02*
X64927200Y-71088095D01*
X64927200Y-71088095D02*
X64974819Y-71183333D01*
X64974819Y-71183333D02*
X64974819Y-71373809D01*
X64070057Y-70564285D02*
X64022438Y-70516666D01*
X64022438Y-70516666D02*
X63974819Y-70421428D01*
X63974819Y-70421428D02*
X63974819Y-70183333D01*
X63974819Y-70183333D02*
X64022438Y-70088095D01*
X64022438Y-70088095D02*
X64070057Y-70040476D01*
X64070057Y-70040476D02*
X64165295Y-69992857D01*
X64165295Y-69992857D02*
X64260533Y-69992857D01*
X64260533Y-69992857D02*
X64403390Y-70040476D01*
X64403390Y-70040476D02*
X64974819Y-70611904D01*
X64974819Y-70611904D02*
X64974819Y-69992857D01*
X63974819Y-69373809D02*
X63974819Y-69278571D01*
X63974819Y-69278571D02*
X64022438Y-69183333D01*
X64022438Y-69183333D02*
X64070057Y-69135714D01*
X64070057Y-69135714D02*
X64165295Y-69088095D01*
X64165295Y-69088095D02*
X64355771Y-69040476D01*
X64355771Y-69040476D02*
X64593866Y-69040476D01*
X64593866Y-69040476D02*
X64784342Y-69088095D01*
X64784342Y-69088095D02*
X64879580Y-69135714D01*
X64879580Y-69135714D02*
X64927200Y-69183333D01*
X64927200Y-69183333D02*
X64974819Y-69278571D01*
X64974819Y-69278571D02*
X64974819Y-69373809D01*
X64974819Y-69373809D02*
X64927200Y-69469047D01*
X64927200Y-69469047D02*
X64879580Y-69516666D01*
X64879580Y-69516666D02*
X64784342Y-69564285D01*
X64784342Y-69564285D02*
X64593866Y-69611904D01*
X64593866Y-69611904D02*
X64355771Y-69611904D01*
X64355771Y-69611904D02*
X64165295Y-69564285D01*
X64165295Y-69564285D02*
X64070057Y-69516666D01*
X64070057Y-69516666D02*
X64022438Y-69469047D01*
X64022438Y-69469047D02*
X63974819Y-69373809D01*
X64974819Y-68088095D02*
X64974819Y-68659523D01*
X64974819Y-68373809D02*
X63974819Y-68373809D01*
X63974819Y-68373809D02*
X64117676Y-68469047D01*
X64117676Y-68469047D02*
X64212914Y-68564285D01*
X64212914Y-68564285D02*
X64260533Y-68659523D01*
X65070057Y-64547619D02*
X65022438Y-64642857D01*
X65022438Y-64642857D02*
X64927200Y-64738095D01*
X64927200Y-64738095D02*
X64784342Y-64880952D01*
X64784342Y-64880952D02*
X64736723Y-64976190D01*
X64736723Y-64976190D02*
X64736723Y-65071428D01*
X64974819Y-65023809D02*
X64927200Y-65119047D01*
X64927200Y-65119047D02*
X64831961Y-65214285D01*
X64831961Y-65214285D02*
X64641485Y-65261904D01*
X64641485Y-65261904D02*
X64308152Y-65261904D01*
X64308152Y-65261904D02*
X64117676Y-65214285D01*
X64117676Y-65214285D02*
X64022438Y-65119047D01*
X64022438Y-65119047D02*
X63974819Y-65023809D01*
X63974819Y-65023809D02*
X63974819Y-64833333D01*
X63974819Y-64833333D02*
X64022438Y-64738095D01*
X64022438Y-64738095D02*
X64117676Y-64642857D01*
X64117676Y-64642857D02*
X64308152Y-64595238D01*
X64308152Y-64595238D02*
X64641485Y-64595238D01*
X64641485Y-64595238D02*
X64831961Y-64642857D01*
X64831961Y-64642857D02*
X64927200Y-64738095D01*
X64927200Y-64738095D02*
X64974819Y-64833333D01*
X64974819Y-64833333D02*
X64974819Y-65023809D01*
X63974819Y-64261904D02*
X63974819Y-63642857D01*
X63974819Y-63642857D02*
X64355771Y-63976190D01*
X64355771Y-63976190D02*
X64355771Y-63833333D01*
X64355771Y-63833333D02*
X64403390Y-63738095D01*
X64403390Y-63738095D02*
X64451009Y-63690476D01*
X64451009Y-63690476D02*
X64546247Y-63642857D01*
X64546247Y-63642857D02*
X64784342Y-63642857D01*
X64784342Y-63642857D02*
X64879580Y-63690476D01*
X64879580Y-63690476D02*
X64927200Y-63738095D01*
X64927200Y-63738095D02*
X64974819Y-63833333D01*
X64974819Y-63833333D02*
X64974819Y-64119047D01*
X64974819Y-64119047D02*
X64927200Y-64214285D01*
X64927200Y-64214285D02*
X64879580Y-64261904D01*
X63974819Y-63023809D02*
X63974819Y-62928571D01*
X63974819Y-62928571D02*
X64022438Y-62833333D01*
X64022438Y-62833333D02*
X64070057Y-62785714D01*
X64070057Y-62785714D02*
X64165295Y-62738095D01*
X64165295Y-62738095D02*
X64355771Y-62690476D01*
X64355771Y-62690476D02*
X64593866Y-62690476D01*
X64593866Y-62690476D02*
X64784342Y-62738095D01*
X64784342Y-62738095D02*
X64879580Y-62785714D01*
X64879580Y-62785714D02*
X64927200Y-62833333D01*
X64927200Y-62833333D02*
X64974819Y-62928571D01*
X64974819Y-62928571D02*
X64974819Y-63023809D01*
X64974819Y-63023809D02*
X64927200Y-63119047D01*
X64927200Y-63119047D02*
X64879580Y-63166666D01*
X64879580Y-63166666D02*
X64784342Y-63214285D01*
X64784342Y-63214285D02*
X64593866Y-63261904D01*
X64593866Y-63261904D02*
X64355771Y-63261904D01*
X64355771Y-63261904D02*
X64165295Y-63214285D01*
X64165295Y-63214285D02*
X64070057Y-63166666D01*
X64070057Y-63166666D02*
X64022438Y-63119047D01*
X64022438Y-63119047D02*
X63974819Y-63023809D01*
X64974819Y-61738095D02*
X64974819Y-62309523D01*
X64974819Y-62023809D02*
X63974819Y-62023809D01*
X63974819Y-62023809D02*
X64117676Y-62119047D01*
X64117676Y-62119047D02*
X64212914Y-62214285D01*
X64212914Y-62214285D02*
X64260533Y-62309523D01*
X27519524Y-15844819D02*
X27519524Y-14844819D01*
X27519524Y-14844819D02*
X27757619Y-14844819D01*
X27757619Y-14844819D02*
X27900476Y-14892438D01*
X27900476Y-14892438D02*
X27995714Y-14987676D01*
X27995714Y-14987676D02*
X28043333Y-15082914D01*
X28043333Y-15082914D02*
X28090952Y-15273390D01*
X28090952Y-15273390D02*
X28090952Y-15416247D01*
X28090952Y-15416247D02*
X28043333Y-15606723D01*
X28043333Y-15606723D02*
X27995714Y-15701961D01*
X27995714Y-15701961D02*
X27900476Y-15797200D01*
X27900476Y-15797200D02*
X27757619Y-15844819D01*
X27757619Y-15844819D02*
X27519524Y-15844819D01*
X29043333Y-15844819D02*
X28471905Y-15844819D01*
X28757619Y-15844819D02*
X28757619Y-14844819D01*
X28757619Y-14844819D02*
X28662381Y-14987676D01*
X28662381Y-14987676D02*
X28567143Y-15082914D01*
X28567143Y-15082914D02*
X28471905Y-15130533D01*
X29662381Y-14844819D02*
X29757619Y-14844819D01*
X29757619Y-14844819D02*
X29852857Y-14892438D01*
X29852857Y-14892438D02*
X29900476Y-14940057D01*
X29900476Y-14940057D02*
X29948095Y-15035295D01*
X29948095Y-15035295D02*
X29995714Y-15225771D01*
X29995714Y-15225771D02*
X29995714Y-15463866D01*
X29995714Y-15463866D02*
X29948095Y-15654342D01*
X29948095Y-15654342D02*
X29900476Y-15749580D01*
X29900476Y-15749580D02*
X29852857Y-15797200D01*
X29852857Y-15797200D02*
X29757619Y-15844819D01*
X29757619Y-15844819D02*
X29662381Y-15844819D01*
X29662381Y-15844819D02*
X29567143Y-15797200D01*
X29567143Y-15797200D02*
X29519524Y-15749580D01*
X29519524Y-15749580D02*
X29471905Y-15654342D01*
X29471905Y-15654342D02*
X29424286Y-15463866D01*
X29424286Y-15463866D02*
X29424286Y-15225771D01*
X29424286Y-15225771D02*
X29471905Y-15035295D01*
X29471905Y-15035295D02*
X29519524Y-14940057D01*
X29519524Y-14940057D02*
X29567143Y-14892438D01*
X29567143Y-14892438D02*
X29662381Y-14844819D01*
X30376667Y-14940057D02*
X30424286Y-14892438D01*
X30424286Y-14892438D02*
X30519524Y-14844819D01*
X30519524Y-14844819D02*
X30757619Y-14844819D01*
X30757619Y-14844819D02*
X30852857Y-14892438D01*
X30852857Y-14892438D02*
X30900476Y-14940057D01*
X30900476Y-14940057D02*
X30948095Y-15035295D01*
X30948095Y-15035295D02*
X30948095Y-15130533D01*
X30948095Y-15130533D02*
X30900476Y-15273390D01*
X30900476Y-15273390D02*
X30329048Y-15844819D01*
X30329048Y-15844819D02*
X30948095Y-15844819D01*
X26840952Y-14389580D02*
X26793333Y-14437200D01*
X26793333Y-14437200D02*
X26650476Y-14484819D01*
X26650476Y-14484819D02*
X26555238Y-14484819D01*
X26555238Y-14484819D02*
X26412381Y-14437200D01*
X26412381Y-14437200D02*
X26317143Y-14341961D01*
X26317143Y-14341961D02*
X26269524Y-14246723D01*
X26269524Y-14246723D02*
X26221905Y-14056247D01*
X26221905Y-14056247D02*
X26221905Y-13913390D01*
X26221905Y-13913390D02*
X26269524Y-13722914D01*
X26269524Y-13722914D02*
X26317143Y-13627676D01*
X26317143Y-13627676D02*
X26412381Y-13532438D01*
X26412381Y-13532438D02*
X26555238Y-13484819D01*
X26555238Y-13484819D02*
X26650476Y-13484819D01*
X26650476Y-13484819D02*
X26793333Y-13532438D01*
X26793333Y-13532438D02*
X26840952Y-13580057D01*
X27793333Y-14484819D02*
X27221905Y-14484819D01*
X27507619Y-14484819D02*
X27507619Y-13484819D01*
X27507619Y-13484819D02*
X27412381Y-13627676D01*
X27412381Y-13627676D02*
X27317143Y-13722914D01*
X27317143Y-13722914D02*
X27221905Y-13770533D01*
X28412381Y-13484819D02*
X28507619Y-13484819D01*
X28507619Y-13484819D02*
X28602857Y-13532438D01*
X28602857Y-13532438D02*
X28650476Y-13580057D01*
X28650476Y-13580057D02*
X28698095Y-13675295D01*
X28698095Y-13675295D02*
X28745714Y-13865771D01*
X28745714Y-13865771D02*
X28745714Y-14103866D01*
X28745714Y-14103866D02*
X28698095Y-14294342D01*
X28698095Y-14294342D02*
X28650476Y-14389580D01*
X28650476Y-14389580D02*
X28602857Y-14437200D01*
X28602857Y-14437200D02*
X28507619Y-14484819D01*
X28507619Y-14484819D02*
X28412381Y-14484819D01*
X28412381Y-14484819D02*
X28317143Y-14437200D01*
X28317143Y-14437200D02*
X28269524Y-14389580D01*
X28269524Y-14389580D02*
X28221905Y-14294342D01*
X28221905Y-14294342D02*
X28174286Y-14103866D01*
X28174286Y-14103866D02*
X28174286Y-13865771D01*
X28174286Y-13865771D02*
X28221905Y-13675295D01*
X28221905Y-13675295D02*
X28269524Y-13580057D01*
X28269524Y-13580057D02*
X28317143Y-13532438D01*
X28317143Y-13532438D02*
X28412381Y-13484819D01*
X29126667Y-13580057D02*
X29174286Y-13532438D01*
X29174286Y-13532438D02*
X29269524Y-13484819D01*
X29269524Y-13484819D02*
X29507619Y-13484819D01*
X29507619Y-13484819D02*
X29602857Y-13532438D01*
X29602857Y-13532438D02*
X29650476Y-13580057D01*
X29650476Y-13580057D02*
X29698095Y-13675295D01*
X29698095Y-13675295D02*
X29698095Y-13770533D01*
X29698095Y-13770533D02*
X29650476Y-13913390D01*
X29650476Y-13913390D02*
X29079048Y-14484819D01*
X29079048Y-14484819D02*
X29698095Y-14484819D01*
X29044819Y-32165475D02*
X28044819Y-32165475D01*
X28044819Y-32165475D02*
X28044819Y-31927380D01*
X28044819Y-31927380D02*
X28092438Y-31784523D01*
X28092438Y-31784523D02*
X28187676Y-31689285D01*
X28187676Y-31689285D02*
X28282914Y-31641666D01*
X28282914Y-31641666D02*
X28473390Y-31594047D01*
X28473390Y-31594047D02*
X28616247Y-31594047D01*
X28616247Y-31594047D02*
X28806723Y-31641666D01*
X28806723Y-31641666D02*
X28901961Y-31689285D01*
X28901961Y-31689285D02*
X28997200Y-31784523D01*
X28997200Y-31784523D02*
X29044819Y-31927380D01*
X29044819Y-31927380D02*
X29044819Y-32165475D01*
X29044819Y-30641666D02*
X29044819Y-31213094D01*
X29044819Y-30927380D02*
X28044819Y-30927380D01*
X28044819Y-30927380D02*
X28187676Y-31022618D01*
X28187676Y-31022618D02*
X28282914Y-31117856D01*
X28282914Y-31117856D02*
X28330533Y-31213094D01*
X28044819Y-30022618D02*
X28044819Y-29927380D01*
X28044819Y-29927380D02*
X28092438Y-29832142D01*
X28092438Y-29832142D02*
X28140057Y-29784523D01*
X28140057Y-29784523D02*
X28235295Y-29736904D01*
X28235295Y-29736904D02*
X28425771Y-29689285D01*
X28425771Y-29689285D02*
X28663866Y-29689285D01*
X28663866Y-29689285D02*
X28854342Y-29736904D01*
X28854342Y-29736904D02*
X28949580Y-29784523D01*
X28949580Y-29784523D02*
X28997200Y-29832142D01*
X28997200Y-29832142D02*
X29044819Y-29927380D01*
X29044819Y-29927380D02*
X29044819Y-30022618D01*
X29044819Y-30022618D02*
X28997200Y-30117856D01*
X28997200Y-30117856D02*
X28949580Y-30165475D01*
X28949580Y-30165475D02*
X28854342Y-30213094D01*
X28854342Y-30213094D02*
X28663866Y-30260713D01*
X28663866Y-30260713D02*
X28425771Y-30260713D01*
X28425771Y-30260713D02*
X28235295Y-30213094D01*
X28235295Y-30213094D02*
X28140057Y-30165475D01*
X28140057Y-30165475D02*
X28092438Y-30117856D01*
X28092438Y-30117856D02*
X28044819Y-30022618D01*
X28044819Y-29355951D02*
X28044819Y-28736904D01*
X28044819Y-28736904D02*
X28425771Y-29070237D01*
X28425771Y-29070237D02*
X28425771Y-28927380D01*
X28425771Y-28927380D02*
X28473390Y-28832142D01*
X28473390Y-28832142D02*
X28521009Y-28784523D01*
X28521009Y-28784523D02*
X28616247Y-28736904D01*
X28616247Y-28736904D02*
X28854342Y-28736904D01*
X28854342Y-28736904D02*
X28949580Y-28784523D01*
X28949580Y-28784523D02*
X28997200Y-28832142D01*
X28997200Y-28832142D02*
X29044819Y-28927380D01*
X29044819Y-28927380D02*
X29044819Y-29213094D01*
X29044819Y-29213094D02*
X28997200Y-29308332D01*
X28997200Y-29308332D02*
X28949580Y-29355951D01*
X28874819Y-26926904D02*
X27874819Y-26926904D01*
X28874819Y-26355476D02*
X28303390Y-26784047D01*
X27874819Y-26355476D02*
X28446247Y-26926904D01*
X54910057Y-77247619D02*
X54862438Y-77342857D01*
X54862438Y-77342857D02*
X54767200Y-77438095D01*
X54767200Y-77438095D02*
X54624342Y-77580952D01*
X54624342Y-77580952D02*
X54576723Y-77676190D01*
X54576723Y-77676190D02*
X54576723Y-77771428D01*
X54814819Y-77723809D02*
X54767200Y-77819047D01*
X54767200Y-77819047D02*
X54671961Y-77914285D01*
X54671961Y-77914285D02*
X54481485Y-77961904D01*
X54481485Y-77961904D02*
X54148152Y-77961904D01*
X54148152Y-77961904D02*
X53957676Y-77914285D01*
X53957676Y-77914285D02*
X53862438Y-77819047D01*
X53862438Y-77819047D02*
X53814819Y-77723809D01*
X53814819Y-77723809D02*
X53814819Y-77533333D01*
X53814819Y-77533333D02*
X53862438Y-77438095D01*
X53862438Y-77438095D02*
X53957676Y-77342857D01*
X53957676Y-77342857D02*
X54148152Y-77295238D01*
X54148152Y-77295238D02*
X54481485Y-77295238D01*
X54481485Y-77295238D02*
X54671961Y-77342857D01*
X54671961Y-77342857D02*
X54767200Y-77438095D01*
X54767200Y-77438095D02*
X54814819Y-77533333D01*
X54814819Y-77533333D02*
X54814819Y-77723809D01*
X54148152Y-76438095D02*
X54814819Y-76438095D01*
X53767200Y-76676190D02*
X54481485Y-76914285D01*
X54481485Y-76914285D02*
X54481485Y-76295238D01*
X53814819Y-75723809D02*
X53814819Y-75628571D01*
X53814819Y-75628571D02*
X53862438Y-75533333D01*
X53862438Y-75533333D02*
X53910057Y-75485714D01*
X53910057Y-75485714D02*
X54005295Y-75438095D01*
X54005295Y-75438095D02*
X54195771Y-75390476D01*
X54195771Y-75390476D02*
X54433866Y-75390476D01*
X54433866Y-75390476D02*
X54624342Y-75438095D01*
X54624342Y-75438095D02*
X54719580Y-75485714D01*
X54719580Y-75485714D02*
X54767200Y-75533333D01*
X54767200Y-75533333D02*
X54814819Y-75628571D01*
X54814819Y-75628571D02*
X54814819Y-75723809D01*
X54814819Y-75723809D02*
X54767200Y-75819047D01*
X54767200Y-75819047D02*
X54719580Y-75866666D01*
X54719580Y-75866666D02*
X54624342Y-75914285D01*
X54624342Y-75914285D02*
X54433866Y-75961904D01*
X54433866Y-75961904D02*
X54195771Y-75961904D01*
X54195771Y-75961904D02*
X54005295Y-75914285D01*
X54005295Y-75914285D02*
X53910057Y-75866666D01*
X53910057Y-75866666D02*
X53862438Y-75819047D01*
X53862438Y-75819047D02*
X53814819Y-75723809D01*
X53814819Y-75057142D02*
X53814819Y-74438095D01*
X53814819Y-74438095D02*
X54195771Y-74771428D01*
X54195771Y-74771428D02*
X54195771Y-74628571D01*
X54195771Y-74628571D02*
X54243390Y-74533333D01*
X54243390Y-74533333D02*
X54291009Y-74485714D01*
X54291009Y-74485714D02*
X54386247Y-74438095D01*
X54386247Y-74438095D02*
X54624342Y-74438095D01*
X54624342Y-74438095D02*
X54719580Y-74485714D01*
X54719580Y-74485714D02*
X54767200Y-74533333D01*
X54767200Y-74533333D02*
X54814819Y-74628571D01*
X54814819Y-74628571D02*
X54814819Y-74914285D01*
X54814819Y-74914285D02*
X54767200Y-75009523D01*
X54767200Y-75009523D02*
X54719580Y-75057142D01*
X76422380Y-50330057D02*
X76327142Y-50282438D01*
X76327142Y-50282438D02*
X76231904Y-50187200D01*
X76231904Y-50187200D02*
X76089047Y-50044342D01*
X76089047Y-50044342D02*
X75993809Y-49996723D01*
X75993809Y-49996723D02*
X75898571Y-49996723D01*
X75946190Y-50234819D02*
X75850952Y-50187200D01*
X75850952Y-50187200D02*
X75755714Y-50091961D01*
X75755714Y-50091961D02*
X75708095Y-49901485D01*
X75708095Y-49901485D02*
X75708095Y-49568152D01*
X75708095Y-49568152D02*
X75755714Y-49377676D01*
X75755714Y-49377676D02*
X75850952Y-49282438D01*
X75850952Y-49282438D02*
X75946190Y-49234819D01*
X75946190Y-49234819D02*
X76136666Y-49234819D01*
X76136666Y-49234819D02*
X76231904Y-49282438D01*
X76231904Y-49282438D02*
X76327142Y-49377676D01*
X76327142Y-49377676D02*
X76374761Y-49568152D01*
X76374761Y-49568152D02*
X76374761Y-49901485D01*
X76374761Y-49901485D02*
X76327142Y-50091961D01*
X76327142Y-50091961D02*
X76231904Y-50187200D01*
X76231904Y-50187200D02*
X76136666Y-50234819D01*
X76136666Y-50234819D02*
X75946190Y-50234819D01*
X77279523Y-49234819D02*
X76803333Y-49234819D01*
X76803333Y-49234819D02*
X76755714Y-49711009D01*
X76755714Y-49711009D02*
X76803333Y-49663390D01*
X76803333Y-49663390D02*
X76898571Y-49615771D01*
X76898571Y-49615771D02*
X77136666Y-49615771D01*
X77136666Y-49615771D02*
X77231904Y-49663390D01*
X77231904Y-49663390D02*
X77279523Y-49711009D01*
X77279523Y-49711009D02*
X77327142Y-49806247D01*
X77327142Y-49806247D02*
X77327142Y-50044342D01*
X77327142Y-50044342D02*
X77279523Y-50139580D01*
X77279523Y-50139580D02*
X77231904Y-50187200D01*
X77231904Y-50187200D02*
X77136666Y-50234819D01*
X77136666Y-50234819D02*
X76898571Y-50234819D01*
X76898571Y-50234819D02*
X76803333Y-50187200D01*
X76803333Y-50187200D02*
X76755714Y-50139580D01*
X77946190Y-49234819D02*
X78041428Y-49234819D01*
X78041428Y-49234819D02*
X78136666Y-49282438D01*
X78136666Y-49282438D02*
X78184285Y-49330057D01*
X78184285Y-49330057D02*
X78231904Y-49425295D01*
X78231904Y-49425295D02*
X78279523Y-49615771D01*
X78279523Y-49615771D02*
X78279523Y-49853866D01*
X78279523Y-49853866D02*
X78231904Y-50044342D01*
X78231904Y-50044342D02*
X78184285Y-50139580D01*
X78184285Y-50139580D02*
X78136666Y-50187200D01*
X78136666Y-50187200D02*
X78041428Y-50234819D01*
X78041428Y-50234819D02*
X77946190Y-50234819D01*
X77946190Y-50234819D02*
X77850952Y-50187200D01*
X77850952Y-50187200D02*
X77803333Y-50139580D01*
X77803333Y-50139580D02*
X77755714Y-50044342D01*
X77755714Y-50044342D02*
X77708095Y-49853866D01*
X77708095Y-49853866D02*
X77708095Y-49615771D01*
X77708095Y-49615771D02*
X77755714Y-49425295D01*
X77755714Y-49425295D02*
X77803333Y-49330057D01*
X77803333Y-49330057D02*
X77850952Y-49282438D01*
X77850952Y-49282438D02*
X77946190Y-49234819D01*
X78612857Y-49234819D02*
X79231904Y-49234819D01*
X79231904Y-49234819D02*
X78898571Y-49615771D01*
X78898571Y-49615771D02*
X79041428Y-49615771D01*
X79041428Y-49615771D02*
X79136666Y-49663390D01*
X79136666Y-49663390D02*
X79184285Y-49711009D01*
X79184285Y-49711009D02*
X79231904Y-49806247D01*
X79231904Y-49806247D02*
X79231904Y-50044342D01*
X79231904Y-50044342D02*
X79184285Y-50139580D01*
X79184285Y-50139580D02*
X79136666Y-50187200D01*
X79136666Y-50187200D02*
X79041428Y-50234819D01*
X79041428Y-50234819D02*
X78755714Y-50234819D01*
X78755714Y-50234819D02*
X78660476Y-50187200D01*
X78660476Y-50187200D02*
X78612857Y-50139580D01*
D11*
X55152580Y-73215714D02*
X54343057Y-73215714D01*
X54343057Y-73215714D02*
X54247819Y-73263333D01*
X54247819Y-73263333D02*
X54200200Y-73310952D01*
X54200200Y-73310952D02*
X54152580Y-73406190D01*
X54152580Y-73406190D02*
X54152580Y-73596666D01*
X54152580Y-73596666D02*
X54200200Y-73691904D01*
X54200200Y-73691904D02*
X54247819Y-73739523D01*
X54247819Y-73739523D02*
X54343057Y-73787142D01*
X54343057Y-73787142D02*
X55152580Y-73787142D01*
X54152580Y-74787142D02*
X54152580Y-74215714D01*
X54152580Y-74501428D02*
X55152580Y-74501428D01*
X55152580Y-74501428D02*
X55009723Y-74406190D01*
X55009723Y-74406190D02*
X54914485Y-74310952D01*
X54914485Y-74310952D02*
X54866866Y-74215714D01*
X55152580Y-75406190D02*
X55152580Y-75501428D01*
X55152580Y-75501428D02*
X55104961Y-75596666D01*
X55104961Y-75596666D02*
X55057342Y-75644285D01*
X55057342Y-75644285D02*
X54962104Y-75691904D01*
X54962104Y-75691904D02*
X54771628Y-75739523D01*
X54771628Y-75739523D02*
X54533533Y-75739523D01*
X54533533Y-75739523D02*
X54343057Y-75691904D01*
X54343057Y-75691904D02*
X54247819Y-75644285D01*
X54247819Y-75644285D02*
X54200200Y-75596666D01*
X54200200Y-75596666D02*
X54152580Y-75501428D01*
X54152580Y-75501428D02*
X54152580Y-75406190D01*
X54152580Y-75406190D02*
X54200200Y-75310952D01*
X54200200Y-75310952D02*
X54247819Y-75263333D01*
X54247819Y-75263333D02*
X54343057Y-75215714D01*
X54343057Y-75215714D02*
X54533533Y-75168095D01*
X54533533Y-75168095D02*
X54771628Y-75168095D01*
X54771628Y-75168095D02*
X54962104Y-75215714D01*
X54962104Y-75215714D02*
X55057342Y-75263333D01*
X55057342Y-75263333D02*
X55104961Y-75310952D01*
X55104961Y-75310952D02*
X55152580Y-75406190D01*
X54152580Y-76691904D02*
X54152580Y-76120476D01*
X54152580Y-76406190D02*
X55152580Y-76406190D01*
X55152580Y-76406190D02*
X55009723Y-76310952D01*
X55009723Y-76310952D02*
X54914485Y-76215714D01*
X54914485Y-76215714D02*
X54866866Y-76120476D01*
D10*
X42060952Y-45074819D02*
X41727619Y-44598628D01*
X41489524Y-45074819D02*
X41489524Y-44074819D01*
X41489524Y-44074819D02*
X41870476Y-44074819D01*
X41870476Y-44074819D02*
X41965714Y-44122438D01*
X41965714Y-44122438D02*
X42013333Y-44170057D01*
X42013333Y-44170057D02*
X42060952Y-44265295D01*
X42060952Y-44265295D02*
X42060952Y-44408152D01*
X42060952Y-44408152D02*
X42013333Y-44503390D01*
X42013333Y-44503390D02*
X41965714Y-44551009D01*
X41965714Y-44551009D02*
X41870476Y-44598628D01*
X41870476Y-44598628D02*
X41489524Y-44598628D01*
X42394286Y-44074819D02*
X43013333Y-44074819D01*
X43013333Y-44074819D02*
X42680000Y-44455771D01*
X42680000Y-44455771D02*
X42822857Y-44455771D01*
X42822857Y-44455771D02*
X42918095Y-44503390D01*
X42918095Y-44503390D02*
X42965714Y-44551009D01*
X42965714Y-44551009D02*
X43013333Y-44646247D01*
X43013333Y-44646247D02*
X43013333Y-44884342D01*
X43013333Y-44884342D02*
X42965714Y-44979580D01*
X42965714Y-44979580D02*
X42918095Y-45027200D01*
X42918095Y-45027200D02*
X42822857Y-45074819D01*
X42822857Y-45074819D02*
X42537143Y-45074819D01*
X42537143Y-45074819D02*
X42441905Y-45027200D01*
X42441905Y-45027200D02*
X42394286Y-44979580D01*
X43632381Y-44074819D02*
X43727619Y-44074819D01*
X43727619Y-44074819D02*
X43822857Y-44122438D01*
X43822857Y-44122438D02*
X43870476Y-44170057D01*
X43870476Y-44170057D02*
X43918095Y-44265295D01*
X43918095Y-44265295D02*
X43965714Y-44455771D01*
X43965714Y-44455771D02*
X43965714Y-44693866D01*
X43965714Y-44693866D02*
X43918095Y-44884342D01*
X43918095Y-44884342D02*
X43870476Y-44979580D01*
X43870476Y-44979580D02*
X43822857Y-45027200D01*
X43822857Y-45027200D02*
X43727619Y-45074819D01*
X43727619Y-45074819D02*
X43632381Y-45074819D01*
X43632381Y-45074819D02*
X43537143Y-45027200D01*
X43537143Y-45027200D02*
X43489524Y-44979580D01*
X43489524Y-44979580D02*
X43441905Y-44884342D01*
X43441905Y-44884342D02*
X43394286Y-44693866D01*
X43394286Y-44693866D02*
X43394286Y-44455771D01*
X43394286Y-44455771D02*
X43441905Y-44265295D01*
X43441905Y-44265295D02*
X43489524Y-44170057D01*
X43489524Y-44170057D02*
X43537143Y-44122438D01*
X43537143Y-44122438D02*
X43632381Y-44074819D01*
X44918095Y-45074819D02*
X44346667Y-45074819D01*
X44632381Y-45074819D02*
X44632381Y-44074819D01*
X44632381Y-44074819D02*
X44537143Y-44217676D01*
X44537143Y-44217676D02*
X44441905Y-44312914D01*
X44441905Y-44312914D02*
X44346667Y-44360533D01*
X29194285Y-67804819D02*
X29194285Y-68519104D01*
X29194285Y-68519104D02*
X29146666Y-68661961D01*
X29146666Y-68661961D02*
X29051428Y-68757200D01*
X29051428Y-68757200D02*
X28908571Y-68804819D01*
X28908571Y-68804819D02*
X28813333Y-68804819D01*
X30194285Y-68804819D02*
X29622857Y-68804819D01*
X29908571Y-68804819D02*
X29908571Y-67804819D01*
X29908571Y-67804819D02*
X29813333Y-67947676D01*
X29813333Y-67947676D02*
X29718095Y-68042914D01*
X29718095Y-68042914D02*
X29622857Y-68090533D01*
X31146666Y-68804819D02*
X30575238Y-68804819D01*
X30860952Y-68804819D02*
X30860952Y-67804819D01*
X30860952Y-67804819D02*
X30765714Y-67947676D01*
X30765714Y-67947676D02*
X30670476Y-68042914D01*
X30670476Y-68042914D02*
X30575238Y-68090533D01*
X32003809Y-67804819D02*
X31813333Y-67804819D01*
X31813333Y-67804819D02*
X31718095Y-67852438D01*
X31718095Y-67852438D02*
X31670476Y-67900057D01*
X31670476Y-67900057D02*
X31575238Y-68042914D01*
X31575238Y-68042914D02*
X31527619Y-68233390D01*
X31527619Y-68233390D02*
X31527619Y-68614342D01*
X31527619Y-68614342D02*
X31575238Y-68709580D01*
X31575238Y-68709580D02*
X31622857Y-68757200D01*
X31622857Y-68757200D02*
X31718095Y-68804819D01*
X31718095Y-68804819D02*
X31908571Y-68804819D01*
X31908571Y-68804819D02*
X32003809Y-68757200D01*
X32003809Y-68757200D02*
X32051428Y-68709580D01*
X32051428Y-68709580D02*
X32099047Y-68614342D01*
X32099047Y-68614342D02*
X32099047Y-68376247D01*
X32099047Y-68376247D02*
X32051428Y-68281009D01*
X32051428Y-68281009D02*
X32003809Y-68233390D01*
X32003809Y-68233390D02*
X31908571Y-68185771D01*
X31908571Y-68185771D02*
X31718095Y-68185771D01*
X31718095Y-68185771D02*
X31622857Y-68233390D01*
X31622857Y-68233390D02*
X31575238Y-68281009D01*
X31575238Y-68281009D02*
X31527619Y-68376247D01*
X44734819Y-31599047D02*
X44258628Y-31932380D01*
X44734819Y-32170475D02*
X43734819Y-32170475D01*
X43734819Y-32170475D02*
X43734819Y-31789523D01*
X43734819Y-31789523D02*
X43782438Y-31694285D01*
X43782438Y-31694285D02*
X43830057Y-31646666D01*
X43830057Y-31646666D02*
X43925295Y-31599047D01*
X43925295Y-31599047D02*
X44068152Y-31599047D01*
X44068152Y-31599047D02*
X44163390Y-31646666D01*
X44163390Y-31646666D02*
X44211009Y-31694285D01*
X44211009Y-31694285D02*
X44258628Y-31789523D01*
X44258628Y-31789523D02*
X44258628Y-32170475D01*
X44068152Y-30741904D02*
X44734819Y-30741904D01*
X43687200Y-30979999D02*
X44401485Y-31218094D01*
X44401485Y-31218094D02*
X44401485Y-30599047D01*
X43734819Y-30027618D02*
X43734819Y-29932380D01*
X43734819Y-29932380D02*
X43782438Y-29837142D01*
X43782438Y-29837142D02*
X43830057Y-29789523D01*
X43830057Y-29789523D02*
X43925295Y-29741904D01*
X43925295Y-29741904D02*
X44115771Y-29694285D01*
X44115771Y-29694285D02*
X44353866Y-29694285D01*
X44353866Y-29694285D02*
X44544342Y-29741904D01*
X44544342Y-29741904D02*
X44639580Y-29789523D01*
X44639580Y-29789523D02*
X44687200Y-29837142D01*
X44687200Y-29837142D02*
X44734819Y-29932380D01*
X44734819Y-29932380D02*
X44734819Y-30027618D01*
X44734819Y-30027618D02*
X44687200Y-30122856D01*
X44687200Y-30122856D02*
X44639580Y-30170475D01*
X44639580Y-30170475D02*
X44544342Y-30218094D01*
X44544342Y-30218094D02*
X44353866Y-30265713D01*
X44353866Y-30265713D02*
X44115771Y-30265713D01*
X44115771Y-30265713D02*
X43925295Y-30218094D01*
X43925295Y-30218094D02*
X43830057Y-30170475D01*
X43830057Y-30170475D02*
X43782438Y-30122856D01*
X43782438Y-30122856D02*
X43734819Y-30027618D01*
X44734819Y-28741904D02*
X44734819Y-29313332D01*
X44734819Y-29027618D02*
X43734819Y-29027618D01*
X43734819Y-29027618D02*
X43877676Y-29122856D01*
X43877676Y-29122856D02*
X43972914Y-29218094D01*
X43972914Y-29218094D02*
X44020533Y-29313332D01*
X29194285Y-75424819D02*
X29194285Y-76139104D01*
X29194285Y-76139104D02*
X29146666Y-76281961D01*
X29146666Y-76281961D02*
X29051428Y-76377200D01*
X29051428Y-76377200D02*
X28908571Y-76424819D01*
X28908571Y-76424819D02*
X28813333Y-76424819D01*
X30194285Y-76424819D02*
X29622857Y-76424819D01*
X29908571Y-76424819D02*
X29908571Y-75424819D01*
X29908571Y-75424819D02*
X29813333Y-75567676D01*
X29813333Y-75567676D02*
X29718095Y-75662914D01*
X29718095Y-75662914D02*
X29622857Y-75710533D01*
X31146666Y-76424819D02*
X30575238Y-76424819D01*
X30860952Y-76424819D02*
X30860952Y-75424819D01*
X30860952Y-75424819D02*
X30765714Y-75567676D01*
X30765714Y-75567676D02*
X30670476Y-75662914D01*
X30670476Y-75662914D02*
X30575238Y-75710533D01*
X31622857Y-76424819D02*
X31813333Y-76424819D01*
X31813333Y-76424819D02*
X31908571Y-76377200D01*
X31908571Y-76377200D02*
X31956190Y-76329580D01*
X31956190Y-76329580D02*
X32051428Y-76186723D01*
X32051428Y-76186723D02*
X32099047Y-75996247D01*
X32099047Y-75996247D02*
X32099047Y-75615295D01*
X32099047Y-75615295D02*
X32051428Y-75520057D01*
X32051428Y-75520057D02*
X32003809Y-75472438D01*
X32003809Y-75472438D02*
X31908571Y-75424819D01*
X31908571Y-75424819D02*
X31718095Y-75424819D01*
X31718095Y-75424819D02*
X31622857Y-75472438D01*
X31622857Y-75472438D02*
X31575238Y-75520057D01*
X31575238Y-75520057D02*
X31527619Y-75615295D01*
X31527619Y-75615295D02*
X31527619Y-75853390D01*
X31527619Y-75853390D02*
X31575238Y-75948628D01*
X31575238Y-75948628D02*
X31622857Y-75996247D01*
X31622857Y-75996247D02*
X31718095Y-76043866D01*
X31718095Y-76043866D02*
X31908571Y-76043866D01*
X31908571Y-76043866D02*
X32003809Y-75996247D01*
X32003809Y-75996247D02*
X32051428Y-75948628D01*
X32051428Y-75948628D02*
X32099047Y-75853390D01*
D11*
X49974285Y-65812580D02*
X49974285Y-65003057D01*
X49974285Y-65003057D02*
X49926666Y-64907819D01*
X49926666Y-64907819D02*
X49879047Y-64860200D01*
X49879047Y-64860200D02*
X49783809Y-64812580D01*
X49783809Y-64812580D02*
X49593333Y-64812580D01*
X49593333Y-64812580D02*
X49498095Y-64860200D01*
X49498095Y-64860200D02*
X49450476Y-64907819D01*
X49450476Y-64907819D02*
X49402857Y-65003057D01*
X49402857Y-65003057D02*
X49402857Y-65812580D01*
X48402857Y-64812580D02*
X48974285Y-64812580D01*
X48688571Y-64812580D02*
X48688571Y-65812580D01*
X48688571Y-65812580D02*
X48783809Y-65669723D01*
X48783809Y-65669723D02*
X48879047Y-65574485D01*
X48879047Y-65574485D02*
X48974285Y-65526866D01*
X47783809Y-65812580D02*
X47688571Y-65812580D01*
X47688571Y-65812580D02*
X47593333Y-65764961D01*
X47593333Y-65764961D02*
X47545714Y-65717342D01*
X47545714Y-65717342D02*
X47498095Y-65622104D01*
X47498095Y-65622104D02*
X47450476Y-65431628D01*
X47450476Y-65431628D02*
X47450476Y-65193533D01*
X47450476Y-65193533D02*
X47498095Y-65003057D01*
X47498095Y-65003057D02*
X47545714Y-64907819D01*
X47545714Y-64907819D02*
X47593333Y-64860200D01*
X47593333Y-64860200D02*
X47688571Y-64812580D01*
X47688571Y-64812580D02*
X47783809Y-64812580D01*
X47783809Y-64812580D02*
X47879047Y-64860200D01*
X47879047Y-64860200D02*
X47926666Y-64907819D01*
X47926666Y-64907819D02*
X47974285Y-65003057D01*
X47974285Y-65003057D02*
X48021904Y-65193533D01*
X48021904Y-65193533D02*
X48021904Y-65431628D01*
X48021904Y-65431628D02*
X47974285Y-65622104D01*
X47974285Y-65622104D02*
X47926666Y-65717342D01*
X47926666Y-65717342D02*
X47879047Y-65764961D01*
X47879047Y-65764961D02*
X47783809Y-65812580D01*
X47069523Y-65717342D02*
X47021904Y-65764961D01*
X47021904Y-65764961D02*
X46926666Y-65812580D01*
X46926666Y-65812580D02*
X46688571Y-65812580D01*
X46688571Y-65812580D02*
X46593333Y-65764961D01*
X46593333Y-65764961D02*
X46545714Y-65717342D01*
X46545714Y-65717342D02*
X46498095Y-65622104D01*
X46498095Y-65622104D02*
X46498095Y-65526866D01*
X46498095Y-65526866D02*
X46545714Y-65384009D01*
X46545714Y-65384009D02*
X47117142Y-64812580D01*
X47117142Y-64812580D02*
X46498095Y-64812580D01*
D10*
X42194819Y-31599047D02*
X41718628Y-31932380D01*
X42194819Y-32170475D02*
X41194819Y-32170475D01*
X41194819Y-32170475D02*
X41194819Y-31789523D01*
X41194819Y-31789523D02*
X41242438Y-31694285D01*
X41242438Y-31694285D02*
X41290057Y-31646666D01*
X41290057Y-31646666D02*
X41385295Y-31599047D01*
X41385295Y-31599047D02*
X41528152Y-31599047D01*
X41528152Y-31599047D02*
X41623390Y-31646666D01*
X41623390Y-31646666D02*
X41671009Y-31694285D01*
X41671009Y-31694285D02*
X41718628Y-31789523D01*
X41718628Y-31789523D02*
X41718628Y-32170475D01*
X41290057Y-31218094D02*
X41242438Y-31170475D01*
X41242438Y-31170475D02*
X41194819Y-31075237D01*
X41194819Y-31075237D02*
X41194819Y-30837142D01*
X41194819Y-30837142D02*
X41242438Y-30741904D01*
X41242438Y-30741904D02*
X41290057Y-30694285D01*
X41290057Y-30694285D02*
X41385295Y-30646666D01*
X41385295Y-30646666D02*
X41480533Y-30646666D01*
X41480533Y-30646666D02*
X41623390Y-30694285D01*
X41623390Y-30694285D02*
X42194819Y-31265713D01*
X42194819Y-31265713D02*
X42194819Y-30646666D01*
X41194819Y-30027618D02*
X41194819Y-29932380D01*
X41194819Y-29932380D02*
X41242438Y-29837142D01*
X41242438Y-29837142D02*
X41290057Y-29789523D01*
X41290057Y-29789523D02*
X41385295Y-29741904D01*
X41385295Y-29741904D02*
X41575771Y-29694285D01*
X41575771Y-29694285D02*
X41813866Y-29694285D01*
X41813866Y-29694285D02*
X42004342Y-29741904D01*
X42004342Y-29741904D02*
X42099580Y-29789523D01*
X42099580Y-29789523D02*
X42147200Y-29837142D01*
X42147200Y-29837142D02*
X42194819Y-29932380D01*
X42194819Y-29932380D02*
X42194819Y-30027618D01*
X42194819Y-30027618D02*
X42147200Y-30122856D01*
X42147200Y-30122856D02*
X42099580Y-30170475D01*
X42099580Y-30170475D02*
X42004342Y-30218094D01*
X42004342Y-30218094D02*
X41813866Y-30265713D01*
X41813866Y-30265713D02*
X41575771Y-30265713D01*
X41575771Y-30265713D02*
X41385295Y-30218094D01*
X41385295Y-30218094D02*
X41290057Y-30170475D01*
X41290057Y-30170475D02*
X41242438Y-30122856D01*
X41242438Y-30122856D02*
X41194819Y-30027618D01*
X42194819Y-28741904D02*
X42194819Y-29313332D01*
X42194819Y-29027618D02*
X41194819Y-29027618D01*
X41194819Y-29027618D02*
X41337676Y-29122856D01*
X41337676Y-29122856D02*
X41432914Y-29218094D01*
X41432914Y-29218094D02*
X41480533Y-29313332D01*
X29194285Y-60184819D02*
X29194285Y-60899104D01*
X29194285Y-60899104D02*
X29146666Y-61041961D01*
X29146666Y-61041961D02*
X29051428Y-61137200D01*
X29051428Y-61137200D02*
X28908571Y-61184819D01*
X28908571Y-61184819D02*
X28813333Y-61184819D01*
X30194285Y-61184819D02*
X29622857Y-61184819D01*
X29908571Y-61184819D02*
X29908571Y-60184819D01*
X29908571Y-60184819D02*
X29813333Y-60327676D01*
X29813333Y-60327676D02*
X29718095Y-60422914D01*
X29718095Y-60422914D02*
X29622857Y-60470533D01*
X31146666Y-61184819D02*
X30575238Y-61184819D01*
X30860952Y-61184819D02*
X30860952Y-60184819D01*
X30860952Y-60184819D02*
X30765714Y-60327676D01*
X30765714Y-60327676D02*
X30670476Y-60422914D01*
X30670476Y-60422914D02*
X30575238Y-60470533D01*
X31480000Y-60184819D02*
X32099047Y-60184819D01*
X32099047Y-60184819D02*
X31765714Y-60565771D01*
X31765714Y-60565771D02*
X31908571Y-60565771D01*
X31908571Y-60565771D02*
X32003809Y-60613390D01*
X32003809Y-60613390D02*
X32051428Y-60661009D01*
X32051428Y-60661009D02*
X32099047Y-60756247D01*
X32099047Y-60756247D02*
X32099047Y-60994342D01*
X32099047Y-60994342D02*
X32051428Y-61089580D01*
X32051428Y-61089580D02*
X32003809Y-61137200D01*
X32003809Y-61137200D02*
X31908571Y-61184819D01*
X31908571Y-61184819D02*
X31622857Y-61184819D01*
X31622857Y-61184819D02*
X31527619Y-61137200D01*
X31527619Y-61137200D02*
X31480000Y-61089580D01*
X37114819Y-12549047D02*
X36638628Y-12882380D01*
X37114819Y-13120475D02*
X36114819Y-13120475D01*
X36114819Y-13120475D02*
X36114819Y-12739523D01*
X36114819Y-12739523D02*
X36162438Y-12644285D01*
X36162438Y-12644285D02*
X36210057Y-12596666D01*
X36210057Y-12596666D02*
X36305295Y-12549047D01*
X36305295Y-12549047D02*
X36448152Y-12549047D01*
X36448152Y-12549047D02*
X36543390Y-12596666D01*
X36543390Y-12596666D02*
X36591009Y-12644285D01*
X36591009Y-12644285D02*
X36638628Y-12739523D01*
X36638628Y-12739523D02*
X36638628Y-13120475D01*
X37114819Y-11596666D02*
X37114819Y-12168094D01*
X37114819Y-11882380D02*
X36114819Y-11882380D01*
X36114819Y-11882380D02*
X36257676Y-11977618D01*
X36257676Y-11977618D02*
X36352914Y-12072856D01*
X36352914Y-12072856D02*
X36400533Y-12168094D01*
X36114819Y-10977618D02*
X36114819Y-10882380D01*
X36114819Y-10882380D02*
X36162438Y-10787142D01*
X36162438Y-10787142D02*
X36210057Y-10739523D01*
X36210057Y-10739523D02*
X36305295Y-10691904D01*
X36305295Y-10691904D02*
X36495771Y-10644285D01*
X36495771Y-10644285D02*
X36733866Y-10644285D01*
X36733866Y-10644285D02*
X36924342Y-10691904D01*
X36924342Y-10691904D02*
X37019580Y-10739523D01*
X37019580Y-10739523D02*
X37067200Y-10787142D01*
X37067200Y-10787142D02*
X37114819Y-10882380D01*
X37114819Y-10882380D02*
X37114819Y-10977618D01*
X37114819Y-10977618D02*
X37067200Y-11072856D01*
X37067200Y-11072856D02*
X37019580Y-11120475D01*
X37019580Y-11120475D02*
X36924342Y-11168094D01*
X36924342Y-11168094D02*
X36733866Y-11215713D01*
X36733866Y-11215713D02*
X36495771Y-11215713D01*
X36495771Y-11215713D02*
X36305295Y-11168094D01*
X36305295Y-11168094D02*
X36210057Y-11120475D01*
X36210057Y-11120475D02*
X36162438Y-11072856D01*
X36162438Y-11072856D02*
X36114819Y-10977618D01*
X36114819Y-10310951D02*
X36114819Y-9691904D01*
X36114819Y-9691904D02*
X36495771Y-10025237D01*
X36495771Y-10025237D02*
X36495771Y-9882380D01*
X36495771Y-9882380D02*
X36543390Y-9787142D01*
X36543390Y-9787142D02*
X36591009Y-9739523D01*
X36591009Y-9739523D02*
X36686247Y-9691904D01*
X36686247Y-9691904D02*
X36924342Y-9691904D01*
X36924342Y-9691904D02*
X37019580Y-9739523D01*
X37019580Y-9739523D02*
X37067200Y-9787142D01*
X37067200Y-9787142D02*
X37114819Y-9882380D01*
X37114819Y-9882380D02*
X37114819Y-10168094D01*
X37114819Y-10168094D02*
X37067200Y-10263332D01*
X37067200Y-10263332D02*
X37019580Y-10310951D01*
X49830057Y-77247619D02*
X49782438Y-77342857D01*
X49782438Y-77342857D02*
X49687200Y-77438095D01*
X49687200Y-77438095D02*
X49544342Y-77580952D01*
X49544342Y-77580952D02*
X49496723Y-77676190D01*
X49496723Y-77676190D02*
X49496723Y-77771428D01*
X49734819Y-77723809D02*
X49687200Y-77819047D01*
X49687200Y-77819047D02*
X49591961Y-77914285D01*
X49591961Y-77914285D02*
X49401485Y-77961904D01*
X49401485Y-77961904D02*
X49068152Y-77961904D01*
X49068152Y-77961904D02*
X48877676Y-77914285D01*
X48877676Y-77914285D02*
X48782438Y-77819047D01*
X48782438Y-77819047D02*
X48734819Y-77723809D01*
X48734819Y-77723809D02*
X48734819Y-77533333D01*
X48734819Y-77533333D02*
X48782438Y-77438095D01*
X48782438Y-77438095D02*
X48877676Y-77342857D01*
X48877676Y-77342857D02*
X49068152Y-77295238D01*
X49068152Y-77295238D02*
X49401485Y-77295238D01*
X49401485Y-77295238D02*
X49591961Y-77342857D01*
X49591961Y-77342857D02*
X49687200Y-77438095D01*
X49687200Y-77438095D02*
X49734819Y-77533333D01*
X49734819Y-77533333D02*
X49734819Y-77723809D01*
X49068152Y-76438095D02*
X49734819Y-76438095D01*
X48687200Y-76676190D02*
X49401485Y-76914285D01*
X49401485Y-76914285D02*
X49401485Y-76295238D01*
X48734819Y-75723809D02*
X48734819Y-75628571D01*
X48734819Y-75628571D02*
X48782438Y-75533333D01*
X48782438Y-75533333D02*
X48830057Y-75485714D01*
X48830057Y-75485714D02*
X48925295Y-75438095D01*
X48925295Y-75438095D02*
X49115771Y-75390476D01*
X49115771Y-75390476D02*
X49353866Y-75390476D01*
X49353866Y-75390476D02*
X49544342Y-75438095D01*
X49544342Y-75438095D02*
X49639580Y-75485714D01*
X49639580Y-75485714D02*
X49687200Y-75533333D01*
X49687200Y-75533333D02*
X49734819Y-75628571D01*
X49734819Y-75628571D02*
X49734819Y-75723809D01*
X49734819Y-75723809D02*
X49687200Y-75819047D01*
X49687200Y-75819047D02*
X49639580Y-75866666D01*
X49639580Y-75866666D02*
X49544342Y-75914285D01*
X49544342Y-75914285D02*
X49353866Y-75961904D01*
X49353866Y-75961904D02*
X49115771Y-75961904D01*
X49115771Y-75961904D02*
X48925295Y-75914285D01*
X48925295Y-75914285D02*
X48830057Y-75866666D01*
X48830057Y-75866666D02*
X48782438Y-75819047D01*
X48782438Y-75819047D02*
X48734819Y-75723809D01*
X49068152Y-74533333D02*
X49734819Y-74533333D01*
X48687200Y-74771428D02*
X49401485Y-75009523D01*
X49401485Y-75009523D02*
X49401485Y-74390476D01*
X36980952Y-69204819D02*
X36647619Y-68728628D01*
X36409524Y-69204819D02*
X36409524Y-68204819D01*
X36409524Y-68204819D02*
X36790476Y-68204819D01*
X36790476Y-68204819D02*
X36885714Y-68252438D01*
X36885714Y-68252438D02*
X36933333Y-68300057D01*
X36933333Y-68300057D02*
X36980952Y-68395295D01*
X36980952Y-68395295D02*
X36980952Y-68538152D01*
X36980952Y-68538152D02*
X36933333Y-68633390D01*
X36933333Y-68633390D02*
X36885714Y-68681009D01*
X36885714Y-68681009D02*
X36790476Y-68728628D01*
X36790476Y-68728628D02*
X36409524Y-68728628D01*
X37933333Y-69204819D02*
X37361905Y-69204819D01*
X37647619Y-69204819D02*
X37647619Y-68204819D01*
X37647619Y-68204819D02*
X37552381Y-68347676D01*
X37552381Y-68347676D02*
X37457143Y-68442914D01*
X37457143Y-68442914D02*
X37361905Y-68490533D01*
X38552381Y-68204819D02*
X38647619Y-68204819D01*
X38647619Y-68204819D02*
X38742857Y-68252438D01*
X38742857Y-68252438D02*
X38790476Y-68300057D01*
X38790476Y-68300057D02*
X38838095Y-68395295D01*
X38838095Y-68395295D02*
X38885714Y-68585771D01*
X38885714Y-68585771D02*
X38885714Y-68823866D01*
X38885714Y-68823866D02*
X38838095Y-69014342D01*
X38838095Y-69014342D02*
X38790476Y-69109580D01*
X38790476Y-69109580D02*
X38742857Y-69157200D01*
X38742857Y-69157200D02*
X38647619Y-69204819D01*
X38647619Y-69204819D02*
X38552381Y-69204819D01*
X38552381Y-69204819D02*
X38457143Y-69157200D01*
X38457143Y-69157200D02*
X38409524Y-69109580D01*
X38409524Y-69109580D02*
X38361905Y-69014342D01*
X38361905Y-69014342D02*
X38314286Y-68823866D01*
X38314286Y-68823866D02*
X38314286Y-68585771D01*
X38314286Y-68585771D02*
X38361905Y-68395295D01*
X38361905Y-68395295D02*
X38409524Y-68300057D01*
X38409524Y-68300057D02*
X38457143Y-68252438D01*
X38457143Y-68252438D02*
X38552381Y-68204819D01*
X39742857Y-68538152D02*
X39742857Y-69204819D01*
X39504762Y-68157200D02*
X39266667Y-68871485D01*
X39266667Y-68871485D02*
X39885714Y-68871485D01*
X82772380Y-55410057D02*
X82677142Y-55362438D01*
X82677142Y-55362438D02*
X82581904Y-55267200D01*
X82581904Y-55267200D02*
X82439047Y-55124342D01*
X82439047Y-55124342D02*
X82343809Y-55076723D01*
X82343809Y-55076723D02*
X82248571Y-55076723D01*
X82296190Y-55314819D02*
X82200952Y-55267200D01*
X82200952Y-55267200D02*
X82105714Y-55171961D01*
X82105714Y-55171961D02*
X82058095Y-54981485D01*
X82058095Y-54981485D02*
X82058095Y-54648152D01*
X82058095Y-54648152D02*
X82105714Y-54457676D01*
X82105714Y-54457676D02*
X82200952Y-54362438D01*
X82200952Y-54362438D02*
X82296190Y-54314819D01*
X82296190Y-54314819D02*
X82486666Y-54314819D01*
X82486666Y-54314819D02*
X82581904Y-54362438D01*
X82581904Y-54362438D02*
X82677142Y-54457676D01*
X82677142Y-54457676D02*
X82724761Y-54648152D01*
X82724761Y-54648152D02*
X82724761Y-54981485D01*
X82724761Y-54981485D02*
X82677142Y-55171961D01*
X82677142Y-55171961D02*
X82581904Y-55267200D01*
X82581904Y-55267200D02*
X82486666Y-55314819D01*
X82486666Y-55314819D02*
X82296190Y-55314819D01*
X83581904Y-54314819D02*
X83391428Y-54314819D01*
X83391428Y-54314819D02*
X83296190Y-54362438D01*
X83296190Y-54362438D02*
X83248571Y-54410057D01*
X83248571Y-54410057D02*
X83153333Y-54552914D01*
X83153333Y-54552914D02*
X83105714Y-54743390D01*
X83105714Y-54743390D02*
X83105714Y-55124342D01*
X83105714Y-55124342D02*
X83153333Y-55219580D01*
X83153333Y-55219580D02*
X83200952Y-55267200D01*
X83200952Y-55267200D02*
X83296190Y-55314819D01*
X83296190Y-55314819D02*
X83486666Y-55314819D01*
X83486666Y-55314819D02*
X83581904Y-55267200D01*
X83581904Y-55267200D02*
X83629523Y-55219580D01*
X83629523Y-55219580D02*
X83677142Y-55124342D01*
X83677142Y-55124342D02*
X83677142Y-54886247D01*
X83677142Y-54886247D02*
X83629523Y-54791009D01*
X83629523Y-54791009D02*
X83581904Y-54743390D01*
X83581904Y-54743390D02*
X83486666Y-54695771D01*
X83486666Y-54695771D02*
X83296190Y-54695771D01*
X83296190Y-54695771D02*
X83200952Y-54743390D01*
X83200952Y-54743390D02*
X83153333Y-54791009D01*
X83153333Y-54791009D02*
X83105714Y-54886247D01*
X84296190Y-54314819D02*
X84391428Y-54314819D01*
X84391428Y-54314819D02*
X84486666Y-54362438D01*
X84486666Y-54362438D02*
X84534285Y-54410057D01*
X84534285Y-54410057D02*
X84581904Y-54505295D01*
X84581904Y-54505295D02*
X84629523Y-54695771D01*
X84629523Y-54695771D02*
X84629523Y-54933866D01*
X84629523Y-54933866D02*
X84581904Y-55124342D01*
X84581904Y-55124342D02*
X84534285Y-55219580D01*
X84534285Y-55219580D02*
X84486666Y-55267200D01*
X84486666Y-55267200D02*
X84391428Y-55314819D01*
X84391428Y-55314819D02*
X84296190Y-55314819D01*
X84296190Y-55314819D02*
X84200952Y-55267200D01*
X84200952Y-55267200D02*
X84153333Y-55219580D01*
X84153333Y-55219580D02*
X84105714Y-55124342D01*
X84105714Y-55124342D02*
X84058095Y-54933866D01*
X84058095Y-54933866D02*
X84058095Y-54695771D01*
X84058095Y-54695771D02*
X84105714Y-54505295D01*
X84105714Y-54505295D02*
X84153333Y-54410057D01*
X84153333Y-54410057D02*
X84200952Y-54362438D01*
X84200952Y-54362438D02*
X84296190Y-54314819D01*
X85486666Y-54648152D02*
X85486666Y-55314819D01*
X85248571Y-54267200D02*
X85010476Y-54981485D01*
X85010476Y-54981485D02*
X85629523Y-54981485D01*
X10144285Y-30974819D02*
X10144285Y-31689104D01*
X10144285Y-31689104D02*
X10096666Y-31831961D01*
X10096666Y-31831961D02*
X10001428Y-31927200D01*
X10001428Y-31927200D02*
X9858571Y-31974819D01*
X9858571Y-31974819D02*
X9763333Y-31974819D01*
X11144285Y-31974819D02*
X10572857Y-31974819D01*
X10858571Y-31974819D02*
X10858571Y-30974819D01*
X10858571Y-30974819D02*
X10763333Y-31117676D01*
X10763333Y-31117676D02*
X10668095Y-31212914D01*
X10668095Y-31212914D02*
X10572857Y-31260533D01*
X11763333Y-30974819D02*
X11858571Y-30974819D01*
X11858571Y-30974819D02*
X11953809Y-31022438D01*
X11953809Y-31022438D02*
X12001428Y-31070057D01*
X12001428Y-31070057D02*
X12049047Y-31165295D01*
X12049047Y-31165295D02*
X12096666Y-31355771D01*
X12096666Y-31355771D02*
X12096666Y-31593866D01*
X12096666Y-31593866D02*
X12049047Y-31784342D01*
X12049047Y-31784342D02*
X12001428Y-31879580D01*
X12001428Y-31879580D02*
X11953809Y-31927200D01*
X11953809Y-31927200D02*
X11858571Y-31974819D01*
X11858571Y-31974819D02*
X11763333Y-31974819D01*
X11763333Y-31974819D02*
X11668095Y-31927200D01*
X11668095Y-31927200D02*
X11620476Y-31879580D01*
X11620476Y-31879580D02*
X11572857Y-31784342D01*
X11572857Y-31784342D02*
X11525238Y-31593866D01*
X11525238Y-31593866D02*
X11525238Y-31355771D01*
X11525238Y-31355771D02*
X11572857Y-31165295D01*
X11572857Y-31165295D02*
X11620476Y-31070057D01*
X11620476Y-31070057D02*
X11668095Y-31022438D01*
X11668095Y-31022438D02*
X11763333Y-30974819D01*
X12572857Y-31974819D02*
X12763333Y-31974819D01*
X12763333Y-31974819D02*
X12858571Y-31927200D01*
X12858571Y-31927200D02*
X12906190Y-31879580D01*
X12906190Y-31879580D02*
X13001428Y-31736723D01*
X13001428Y-31736723D02*
X13049047Y-31546247D01*
X13049047Y-31546247D02*
X13049047Y-31165295D01*
X13049047Y-31165295D02*
X13001428Y-31070057D01*
X13001428Y-31070057D02*
X12953809Y-31022438D01*
X12953809Y-31022438D02*
X12858571Y-30974819D01*
X12858571Y-30974819D02*
X12668095Y-30974819D01*
X12668095Y-30974819D02*
X12572857Y-31022438D01*
X12572857Y-31022438D02*
X12525238Y-31070057D01*
X12525238Y-31070057D02*
X12477619Y-31165295D01*
X12477619Y-31165295D02*
X12477619Y-31403390D01*
X12477619Y-31403390D02*
X12525238Y-31498628D01*
X12525238Y-31498628D02*
X12572857Y-31546247D01*
X12572857Y-31546247D02*
X12668095Y-31593866D01*
X12668095Y-31593866D02*
X12858571Y-31593866D01*
X12858571Y-31593866D02*
X12953809Y-31546247D01*
X12953809Y-31546247D02*
X13001428Y-31498628D01*
X13001428Y-31498628D02*
X13049047Y-31403390D01*
X49830057Y-70897619D02*
X49782438Y-70992857D01*
X49782438Y-70992857D02*
X49687200Y-71088095D01*
X49687200Y-71088095D02*
X49544342Y-71230952D01*
X49544342Y-71230952D02*
X49496723Y-71326190D01*
X49496723Y-71326190D02*
X49496723Y-71421428D01*
X49734819Y-71373809D02*
X49687200Y-71469047D01*
X49687200Y-71469047D02*
X49591961Y-71564285D01*
X49591961Y-71564285D02*
X49401485Y-71611904D01*
X49401485Y-71611904D02*
X49068152Y-71611904D01*
X49068152Y-71611904D02*
X48877676Y-71564285D01*
X48877676Y-71564285D02*
X48782438Y-71469047D01*
X48782438Y-71469047D02*
X48734819Y-71373809D01*
X48734819Y-71373809D02*
X48734819Y-71183333D01*
X48734819Y-71183333D02*
X48782438Y-71088095D01*
X48782438Y-71088095D02*
X48877676Y-70992857D01*
X48877676Y-70992857D02*
X49068152Y-70945238D01*
X49068152Y-70945238D02*
X49401485Y-70945238D01*
X49401485Y-70945238D02*
X49591961Y-70992857D01*
X49591961Y-70992857D02*
X49687200Y-71088095D01*
X49687200Y-71088095D02*
X49734819Y-71183333D01*
X49734819Y-71183333D02*
X49734819Y-71373809D01*
X48830057Y-70564285D02*
X48782438Y-70516666D01*
X48782438Y-70516666D02*
X48734819Y-70421428D01*
X48734819Y-70421428D02*
X48734819Y-70183333D01*
X48734819Y-70183333D02*
X48782438Y-70088095D01*
X48782438Y-70088095D02*
X48830057Y-70040476D01*
X48830057Y-70040476D02*
X48925295Y-69992857D01*
X48925295Y-69992857D02*
X49020533Y-69992857D01*
X49020533Y-69992857D02*
X49163390Y-70040476D01*
X49163390Y-70040476D02*
X49734819Y-70611904D01*
X49734819Y-70611904D02*
X49734819Y-69992857D01*
X48734819Y-69373809D02*
X48734819Y-69278571D01*
X48734819Y-69278571D02*
X48782438Y-69183333D01*
X48782438Y-69183333D02*
X48830057Y-69135714D01*
X48830057Y-69135714D02*
X48925295Y-69088095D01*
X48925295Y-69088095D02*
X49115771Y-69040476D01*
X49115771Y-69040476D02*
X49353866Y-69040476D01*
X49353866Y-69040476D02*
X49544342Y-69088095D01*
X49544342Y-69088095D02*
X49639580Y-69135714D01*
X49639580Y-69135714D02*
X49687200Y-69183333D01*
X49687200Y-69183333D02*
X49734819Y-69278571D01*
X49734819Y-69278571D02*
X49734819Y-69373809D01*
X49734819Y-69373809D02*
X49687200Y-69469047D01*
X49687200Y-69469047D02*
X49639580Y-69516666D01*
X49639580Y-69516666D02*
X49544342Y-69564285D01*
X49544342Y-69564285D02*
X49353866Y-69611904D01*
X49353866Y-69611904D02*
X49115771Y-69611904D01*
X49115771Y-69611904D02*
X48925295Y-69564285D01*
X48925295Y-69564285D02*
X48830057Y-69516666D01*
X48830057Y-69516666D02*
X48782438Y-69469047D01*
X48782438Y-69469047D02*
X48734819Y-69373809D01*
X49068152Y-68183333D02*
X49734819Y-68183333D01*
X48687200Y-68421428D02*
X49401485Y-68659523D01*
X49401485Y-68659523D02*
X49401485Y-68040476D01*
D12*
%TO.C,Q402*%
X54030000Y-74400000D02*
X54030000Y-78000000D01*
X58480000Y-76200000D02*
G75*
G03*
X54041522Y-74361522I-2600000J0D01*
G01*
X54041522Y-78038478D02*
G75*
G03*
X58480000Y-76200000I1838478J1838478D01*
G01*
%TO.C,R102*%
X66140000Y-8160000D02*
X66140000Y-14700000D01*
X65810000Y-8160000D02*
X66140000Y-8160000D01*
X63730000Y-8160000D02*
X63400000Y-8160000D01*
X63400000Y-8160000D02*
X63400000Y-14700000D01*
X66140000Y-14700000D02*
X65810000Y-14700000D01*
X63400000Y-14700000D02*
X63730000Y-14700000D01*
%TO.C,J120*%
X29150000Y-82490000D02*
X29150000Y-82610000D01*
X29150000Y-82610000D02*
X31810000Y-82610000D01*
X30480000Y-79950000D02*
X31810000Y-79950000D01*
X31810000Y-79950000D02*
X31810000Y-81280000D01*
X31810000Y-82490000D02*
X31810000Y-82610000D01*
%TO.C,Q502*%
X75670000Y-50110000D02*
X79270000Y-50110000D01*
X77470000Y-45660000D02*
G75*
G03*
X75631522Y-50098478I0J-2600000D01*
G01*
X79308478Y-50098478D02*
G75*
G03*
X77470000Y-45660000I-1838478J1838478D01*
G01*
%TO.C,R107*%
X83720000Y-69310000D02*
X83720000Y-62770000D01*
X84050000Y-69310000D02*
X83720000Y-69310000D01*
X86130000Y-69310000D02*
X86460000Y-69310000D01*
X86460000Y-69310000D02*
X86460000Y-62770000D01*
X83720000Y-62770000D02*
X84050000Y-62770000D01*
X86460000Y-62770000D02*
X86130000Y-62770000D01*
%TO.C,J111*%
X62170000Y-20260000D02*
X62170000Y-20380000D01*
X62170000Y-20380000D02*
X64830000Y-20380000D01*
X63500000Y-17720000D02*
X64830000Y-17720000D01*
X64830000Y-17720000D02*
X64830000Y-19050000D01*
X64830000Y-20260000D02*
X64830000Y-20380000D01*
%TO.C,Q501*%
X75670000Y-45030000D02*
X79270000Y-45030000D01*
X77470000Y-40580000D02*
G75*
G03*
X75631522Y-45018478I0J-2600000D01*
G01*
X79308478Y-45018478D02*
G75*
G03*
X77470000Y-40580000I-1838478J1838478D01*
G01*
%TO.C,J117*%
X29150000Y-74870000D02*
X29150000Y-74990000D01*
X29150000Y-74990000D02*
X31810000Y-74990000D01*
X30480000Y-72330000D02*
X31810000Y-72330000D01*
X31810000Y-72330000D02*
X31810000Y-73660000D01*
X31810000Y-74870000D02*
X31810000Y-74990000D01*
%TO.C,R501*%
X45820000Y-27210000D02*
X45820000Y-33750000D01*
X45490000Y-27210000D02*
X45820000Y-27210000D01*
X43410000Y-27210000D02*
X43080000Y-27210000D01*
X43080000Y-27210000D02*
X43080000Y-33750000D01*
X45820000Y-33750000D02*
X45490000Y-33750000D01*
X43080000Y-33750000D02*
X43410000Y-33750000D01*
%TO.C,J102*%
X36770000Y-20260000D02*
X36770000Y-20380000D01*
X36770000Y-20380000D02*
X39430000Y-20380000D01*
X38100000Y-17720000D02*
X39430000Y-17720000D01*
X39430000Y-17720000D02*
X39430000Y-19050000D01*
X39430000Y-20260000D02*
X39430000Y-20380000D01*
%TO.C,Q602*%
X82020000Y-50110000D02*
X85620000Y-50110000D01*
X83820000Y-45660000D02*
G75*
G03*
X81981522Y-50098478I0J-2600000D01*
G01*
X85658478Y-50098478D02*
G75*
G03*
X83820000Y-45660000I-1838478J1838478D01*
G01*
%TO.C,J103*%
X68520000Y-76140000D02*
X68520000Y-76260000D01*
X68520000Y-76260000D02*
X71180000Y-76260000D01*
X69850000Y-73600000D02*
X71180000Y-73600000D01*
X71180000Y-73600000D02*
X71180000Y-74930000D01*
X71180000Y-76140000D02*
X71180000Y-76260000D01*
%TO.C,J105*%
X31690000Y-20260000D02*
X31690000Y-20380000D01*
X31690000Y-20380000D02*
X34350000Y-20380000D01*
X33020000Y-17720000D02*
X34350000Y-17720000D01*
X34350000Y-17720000D02*
X34350000Y-19050000D01*
X34350000Y-20260000D02*
X34350000Y-20380000D01*
%TO.C,J114*%
X29150000Y-67250000D02*
X29150000Y-67370000D01*
X29150000Y-67370000D02*
X31810000Y-67370000D01*
X30480000Y-64710000D02*
X31810000Y-64710000D01*
X31810000Y-64710000D02*
X31810000Y-66040000D01*
X31810000Y-67250000D02*
X31810000Y-67370000D01*
%TO.C,Q603*%
X82020000Y-55190000D02*
X85620000Y-55190000D01*
X83820000Y-50740000D02*
G75*
G03*
X81981522Y-55178478I0J-2600000D01*
G01*
X85658478Y-55178478D02*
G75*
G03*
X83820000Y-50740000I-1838478J1838478D01*
G01*
%TO.C,Q303*%
X48950000Y-61700000D02*
X48950000Y-65300000D01*
X53400000Y-63500000D02*
G75*
G03*
X48961522Y-61661522I-2600000J0D01*
G01*
X48961522Y-65338478D02*
G75*
G03*
X53400000Y-63500000I1838478J1838478D01*
G01*
%TO.C,R601*%
X48360000Y-27210000D02*
X48360000Y-33750000D01*
X48030000Y-27210000D02*
X48360000Y-27210000D01*
X45950000Y-27210000D02*
X45620000Y-27210000D01*
X45620000Y-27210000D02*
X45620000Y-33750000D01*
X48360000Y-33750000D02*
X48030000Y-33750000D01*
X45620000Y-33750000D02*
X45950000Y-33750000D01*
%TO.C,J110*%
X10100000Y-40580000D02*
X10100000Y-40700000D01*
X10100000Y-40700000D02*
X12760000Y-40700000D01*
X11430000Y-38040000D02*
X12760000Y-38040000D01*
X12760000Y-38040000D02*
X12760000Y-39370000D01*
X12760000Y-40580000D02*
X12760000Y-40700000D01*
%TO.C,Q302*%
X54030000Y-61700000D02*
X54030000Y-65300000D01*
X58480000Y-63500000D02*
G75*
G03*
X54041522Y-61661522I-2600000J0D01*
G01*
X54041522Y-65338478D02*
G75*
G03*
X58480000Y-63500000I1838478J1838478D01*
G01*
%TO.C,Q203*%
X48950000Y-68050000D02*
X48950000Y-71650000D01*
X53400000Y-69850000D02*
G75*
G03*
X48961522Y-68011522I-2600000J0D01*
G01*
X48961522Y-71688478D02*
G75*
G03*
X53400000Y-69850000I1838478J1838478D01*
G01*
%TO.C,R105*%
X34830000Y-76100000D02*
X41370000Y-76100000D01*
X34830000Y-76430000D02*
X34830000Y-76100000D01*
X34830000Y-78510000D02*
X34830000Y-78840000D01*
X34830000Y-78840000D02*
X41370000Y-78840000D01*
X41370000Y-76100000D02*
X41370000Y-76430000D01*
X41370000Y-78840000D02*
X41370000Y-78510000D01*
%TO.C,Q202*%
X54030000Y-68050000D02*
X54030000Y-71650000D01*
X58480000Y-69850000D02*
G75*
G03*
X54041522Y-68011522I-2600000J0D01*
G01*
X54041522Y-71688478D02*
G75*
G03*
X58480000Y-69850000I1838478J1838478D01*
G01*
%TO.C,J118*%
X29150000Y-77410000D02*
X29150000Y-77530000D01*
X29150000Y-77530000D02*
X31810000Y-77530000D01*
X30480000Y-74870000D02*
X31810000Y-74870000D01*
X31810000Y-74870000D02*
X31810000Y-76200000D01*
X31810000Y-77410000D02*
X31810000Y-77530000D01*
%TO.C,J115*%
X29150000Y-69790000D02*
X29150000Y-69910000D01*
X29150000Y-69910000D02*
X31810000Y-69910000D01*
X30480000Y-67250000D02*
X31810000Y-67250000D01*
X31810000Y-67250000D02*
X31810000Y-68580000D01*
X31810000Y-69790000D02*
X31810000Y-69910000D01*
%TO.C,J112*%
X34230000Y-20260000D02*
X34230000Y-20380000D01*
X34230000Y-20380000D02*
X36890000Y-20380000D01*
X35560000Y-17720000D02*
X36890000Y-17720000D01*
X36890000Y-17720000D02*
X36890000Y-19050000D01*
X36890000Y-20260000D02*
X36890000Y-20380000D01*
%TO.C,Q601*%
X82020000Y-45030000D02*
X85620000Y-45030000D01*
X83820000Y-40580000D02*
G75*
G03*
X81981522Y-45018478I0J-2600000D01*
G01*
X85658478Y-45018478D02*
G75*
G03*
X83820000Y-40580000I-1838478J1838478D01*
G01*
%TO.C,R101*%
X74390000Y-16610000D02*
X67850000Y-16610000D01*
X74390000Y-16280000D02*
X74390000Y-16610000D01*
X74390000Y-14200000D02*
X74390000Y-13870000D01*
X74390000Y-13870000D02*
X67850000Y-13870000D01*
X67850000Y-16610000D02*
X67850000Y-16280000D01*
X67850000Y-13870000D02*
X67850000Y-14200000D01*
%TO.C,Q504*%
X75670000Y-60270000D02*
X79270000Y-60270000D01*
X77470000Y-55820000D02*
G75*
G03*
X75631522Y-60258478I0J-2600000D01*
G01*
X79308478Y-60258478D02*
G75*
G03*
X77470000Y-55820000I-1838478J1838478D01*
G01*
%TO.C,R106*%
X77370000Y-69310000D02*
X77370000Y-62770000D01*
X77700000Y-69310000D02*
X77370000Y-69310000D01*
X79780000Y-69310000D02*
X80110000Y-69310000D01*
X80110000Y-69310000D02*
X80110000Y-62770000D01*
X77370000Y-62770000D02*
X77700000Y-62770000D01*
X80110000Y-62770000D02*
X79780000Y-62770000D01*
%TO.C,J108*%
X10100000Y-38040000D02*
X10100000Y-38160000D01*
X10100000Y-38160000D02*
X12760000Y-38160000D01*
X11430000Y-35500000D02*
X12760000Y-35500000D01*
X12760000Y-35500000D02*
X12760000Y-36830000D01*
X12760000Y-38040000D02*
X12760000Y-38160000D01*
%TO.C,J106*%
X10100000Y-32960000D02*
X10100000Y-33080000D01*
X10100000Y-33080000D02*
X12760000Y-33080000D01*
X11430000Y-30420000D02*
X12760000Y-30420000D01*
X12760000Y-30420000D02*
X12760000Y-31750000D01*
X12760000Y-32960000D02*
X12760000Y-33080000D01*
%TO.C,J104*%
X64710000Y-20260000D02*
X64710000Y-20380000D01*
X64710000Y-20380000D02*
X67370000Y-20380000D01*
X66040000Y-17720000D02*
X67370000Y-17720000D01*
X67370000Y-17720000D02*
X67370000Y-19050000D01*
X67370000Y-20260000D02*
X67370000Y-20380000D01*
%TO.C,J101*%
X59630000Y-20260000D02*
X59630000Y-20380000D01*
X59630000Y-20380000D02*
X62290000Y-20380000D01*
X60960000Y-17720000D02*
X62290000Y-17720000D01*
X62290000Y-17720000D02*
X62290000Y-19050000D01*
X62290000Y-20260000D02*
X62290000Y-20380000D01*
D11*
%TO.C,U103*%
X69850000Y-21590000D02*
X13970000Y-21590000D01*
X13970000Y-21590000D02*
X13970000Y-52070000D01*
X13970000Y-52070000D02*
X69850000Y-52070000D01*
X69850000Y-52070000D02*
X69850000Y-21590000D01*
D12*
%TO.C,Q304*%
X43870000Y-61700000D02*
X43870000Y-65300000D01*
X48320000Y-63500000D02*
G75*
G03*
X43881522Y-61661522I-2600000J0D01*
G01*
X43881522Y-65338478D02*
G75*
G03*
X48320000Y-63500000I1838478J1838478D01*
G01*
%TO.C,D101*%
X67290000Y-9885000D02*
X67290000Y-12975000D01*
X72839999Y-11430462D02*
G75*
G03*
X67290001Y-9885170I-2989999J462D01*
G01*
X67290000Y-12974830D02*
G75*
G03*
X72840000Y-11429538I2560000J1544830D01*
G01*
X72350000Y-11430000D02*
G75*
G03*
X67350000Y-11430000I-2500000J0D01*
G01*
X67350000Y-11430000D02*
G75*
G03*
X72350000Y-11430000I2500000J0D01*
G01*
%TO.C,Q401*%
X59110000Y-74400000D02*
X59110000Y-78000000D01*
X63560000Y-76200000D02*
G75*
G03*
X59121522Y-74361522I-2600000J0D01*
G01*
X59121522Y-78038478D02*
G75*
G03*
X63560000Y-76200000I1838478J1838478D01*
G01*
%TO.C,Q201*%
X59110000Y-68050000D02*
X59110000Y-71650000D01*
X63560000Y-69850000D02*
G75*
G03*
X59121522Y-68011522I-2600000J0D01*
G01*
X59121522Y-71688478D02*
G75*
G03*
X63560000Y-69850000I1838478J1838478D01*
G01*
%TO.C,Q301*%
X59110000Y-61700000D02*
X59110000Y-65300000D01*
X63560000Y-63500000D02*
G75*
G03*
X59121522Y-61661522I-2600000J0D01*
G01*
X59121522Y-65338478D02*
G75*
G03*
X63560000Y-63500000I1838478J1838478D01*
G01*
%TO.C,D102*%
X31770000Y-12975000D02*
X31770000Y-9885000D01*
X26220001Y-11429538D02*
G75*
G03*
X31769999Y-12974830I2989999J-462D01*
G01*
X31770000Y-9885170D02*
G75*
G03*
X26220000Y-11430462I-2560000J-1544830D01*
G01*
X31710000Y-11430000D02*
G75*
G03*
X26710000Y-11430000I-2500000J0D01*
G01*
X26710000Y-11430000D02*
G75*
G03*
X31710000Y-11430000I2500000J0D01*
G01*
%TO.C,C102*%
X25155225Y-16305000D02*
X25655225Y-16305000D01*
X25405225Y-16055000D02*
X25405225Y-16555000D01*
X27960000Y-15200000D02*
X27960000Y-20360000D01*
X28000000Y-15200000D02*
X28000000Y-20360000D01*
X28040000Y-15201000D02*
X28040000Y-20359000D01*
X28080000Y-15202000D02*
X28080000Y-20358000D01*
X28120000Y-15204000D02*
X28120000Y-20356000D01*
X28160000Y-15207000D02*
X28160000Y-20353000D01*
X28200000Y-15211000D02*
X28200000Y-16740000D01*
X28200000Y-18820000D02*
X28200000Y-20349000D01*
X28240000Y-15215000D02*
X28240000Y-16740000D01*
X28240000Y-18820000D02*
X28240000Y-20345000D01*
X28280000Y-15219000D02*
X28280000Y-16740000D01*
X28280000Y-18820000D02*
X28280000Y-20341000D01*
X28320000Y-15224000D02*
X28320000Y-16740000D01*
X28320000Y-18820000D02*
X28320000Y-20336000D01*
X28360000Y-15230000D02*
X28360000Y-16740000D01*
X28360000Y-18820000D02*
X28360000Y-20330000D01*
X28400000Y-15237000D02*
X28400000Y-16740000D01*
X28400000Y-18820000D02*
X28400000Y-20323000D01*
X28440000Y-15244000D02*
X28440000Y-16740000D01*
X28440000Y-18820000D02*
X28440000Y-20316000D01*
X28480000Y-15252000D02*
X28480000Y-16740000D01*
X28480000Y-18820000D02*
X28480000Y-20308000D01*
X28520000Y-15260000D02*
X28520000Y-16740000D01*
X28520000Y-18820000D02*
X28520000Y-20300000D01*
X28560000Y-15269000D02*
X28560000Y-16740000D01*
X28560000Y-18820000D02*
X28560000Y-20291000D01*
X28600000Y-15279000D02*
X28600000Y-16740000D01*
X28600000Y-18820000D02*
X28600000Y-20281000D01*
X28640000Y-15289000D02*
X28640000Y-16740000D01*
X28640000Y-18820000D02*
X28640000Y-20271000D01*
X28681000Y-15300000D02*
X28681000Y-16740000D01*
X28681000Y-18820000D02*
X28681000Y-20260000D01*
X28721000Y-15312000D02*
X28721000Y-16740000D01*
X28721000Y-18820000D02*
X28721000Y-20248000D01*
X28761000Y-15325000D02*
X28761000Y-16740000D01*
X28761000Y-18820000D02*
X28761000Y-20235000D01*
X28801000Y-15338000D02*
X28801000Y-16740000D01*
X28801000Y-18820000D02*
X28801000Y-20222000D01*
X28841000Y-15352000D02*
X28841000Y-16740000D01*
X28841000Y-18820000D02*
X28841000Y-20208000D01*
X28881000Y-15366000D02*
X28881000Y-16740000D01*
X28881000Y-18820000D02*
X28881000Y-20194000D01*
X28921000Y-15382000D02*
X28921000Y-16740000D01*
X28921000Y-18820000D02*
X28921000Y-20178000D01*
X28961000Y-15398000D02*
X28961000Y-16740000D01*
X28961000Y-18820000D02*
X28961000Y-20162000D01*
X29001000Y-15415000D02*
X29001000Y-16740000D01*
X29001000Y-18820000D02*
X29001000Y-20145000D01*
X29041000Y-15432000D02*
X29041000Y-16740000D01*
X29041000Y-18820000D02*
X29041000Y-20128000D01*
X29081000Y-15451000D02*
X29081000Y-16740000D01*
X29081000Y-18820000D02*
X29081000Y-20109000D01*
X29121000Y-15470000D02*
X29121000Y-16740000D01*
X29121000Y-18820000D02*
X29121000Y-20090000D01*
X29161000Y-15490000D02*
X29161000Y-16740000D01*
X29161000Y-18820000D02*
X29161000Y-20070000D01*
X29201000Y-15512000D02*
X29201000Y-16740000D01*
X29201000Y-18820000D02*
X29201000Y-20048000D01*
X29241000Y-15533000D02*
X29241000Y-16740000D01*
X29241000Y-18820000D02*
X29241000Y-20027000D01*
X29281000Y-15556000D02*
X29281000Y-16740000D01*
X29281000Y-18820000D02*
X29281000Y-20004000D01*
X29321000Y-15580000D02*
X29321000Y-16740000D01*
X29321000Y-18820000D02*
X29321000Y-19980000D01*
X29361000Y-15605000D02*
X29361000Y-16740000D01*
X29361000Y-18820000D02*
X29361000Y-19955000D01*
X29401000Y-15631000D02*
X29401000Y-16740000D01*
X29401000Y-18820000D02*
X29401000Y-19929000D01*
X29441000Y-15658000D02*
X29441000Y-16740000D01*
X29441000Y-18820000D02*
X29441000Y-19902000D01*
X29481000Y-15685000D02*
X29481000Y-16740000D01*
X29481000Y-18820000D02*
X29481000Y-19875000D01*
X29521000Y-15715000D02*
X29521000Y-16740000D01*
X29521000Y-18820000D02*
X29521000Y-19845000D01*
X29561000Y-15745000D02*
X29561000Y-16740000D01*
X29561000Y-18820000D02*
X29561000Y-19815000D01*
X29601000Y-15776000D02*
X29601000Y-16740000D01*
X29601000Y-18820000D02*
X29601000Y-19784000D01*
X29641000Y-15809000D02*
X29641000Y-16740000D01*
X29641000Y-18820000D02*
X29641000Y-19751000D01*
X29681000Y-15843000D02*
X29681000Y-16740000D01*
X29681000Y-18820000D02*
X29681000Y-19717000D01*
X29721000Y-15879000D02*
X29721000Y-16740000D01*
X29721000Y-18820000D02*
X29721000Y-19681000D01*
X29761000Y-15916000D02*
X29761000Y-16740000D01*
X29761000Y-18820000D02*
X29761000Y-19644000D01*
X29801000Y-15954000D02*
X29801000Y-16740000D01*
X29801000Y-18820000D02*
X29801000Y-19606000D01*
X29841000Y-15995000D02*
X29841000Y-16740000D01*
X29841000Y-18820000D02*
X29841000Y-19565000D01*
X29881000Y-16037000D02*
X29881000Y-16740000D01*
X29881000Y-18820000D02*
X29881000Y-19523000D01*
X29921000Y-16081000D02*
X29921000Y-16740000D01*
X29921000Y-18820000D02*
X29921000Y-19479000D01*
X29961000Y-16127000D02*
X29961000Y-16740000D01*
X29961000Y-18820000D02*
X29961000Y-19433000D01*
X30001000Y-16175000D02*
X30001000Y-16740000D01*
X30001000Y-18820000D02*
X30001000Y-19385000D01*
X30041000Y-16226000D02*
X30041000Y-16740000D01*
X30041000Y-18820000D02*
X30041000Y-19334000D01*
X30081000Y-16280000D02*
X30081000Y-16740000D01*
X30081000Y-18820000D02*
X30081000Y-19280000D01*
X30121000Y-16337000D02*
X30121000Y-16740000D01*
X30121000Y-18820000D02*
X30121000Y-19223000D01*
X30161000Y-16397000D02*
X30161000Y-16740000D01*
X30161000Y-18820000D02*
X30161000Y-19163000D01*
X30201000Y-16461000D02*
X30201000Y-16740000D01*
X30201000Y-18820000D02*
X30201000Y-19099000D01*
X30241000Y-16529000D02*
X30241000Y-16740000D01*
X30241000Y-18820000D02*
X30241000Y-19031000D01*
X30281000Y-16602000D02*
X30281000Y-18958000D01*
X30321000Y-16682000D02*
X30321000Y-18878000D01*
X30361000Y-16769000D02*
X30361000Y-18791000D01*
X30401000Y-16865000D02*
X30401000Y-18695000D01*
X30441000Y-16975000D02*
X30441000Y-18585000D01*
X30481000Y-17103000D02*
X30481000Y-18457000D01*
X30521000Y-17262000D02*
X30521000Y-18298000D01*
X30561000Y-17496000D02*
X30561000Y-18064000D01*
X30580000Y-17780000D02*
G75*
G03*
X25340000Y-17780000I-2620000J0D01*
G01*
X25340000Y-17780000D02*
G75*
G03*
X30580000Y-17780000I2620000J0D01*
G01*
%TO.C,D103*%
X26670000Y-27655000D02*
X26670000Y-28835000D01*
X27590000Y-28835000D02*
X25750000Y-28835000D01*
X25750000Y-28835000D02*
X25750000Y-32115000D01*
X27590000Y-29291000D02*
X25750000Y-29291000D01*
X27590000Y-29411000D02*
X25750000Y-29411000D01*
X27590000Y-29531000D02*
X25750000Y-29531000D01*
X27590000Y-32115000D02*
X27590000Y-28835000D01*
X25750000Y-32115000D02*
X27590000Y-32115000D01*
X26670000Y-33295000D02*
X26670000Y-32115000D01*
%TO.C,Q403*%
X48950000Y-74400000D02*
X48950000Y-78000000D01*
X53400000Y-76200000D02*
G75*
G03*
X48961522Y-74361522I-2600000J0D01*
G01*
X48961522Y-78038478D02*
G75*
G03*
X53400000Y-76200000I1838478J1838478D01*
G01*
%TO.C,Q503*%
X75670000Y-55190000D02*
X79270000Y-55190000D01*
X77470000Y-50740000D02*
G75*
G03*
X75631522Y-55178478I0J-2600000D01*
G01*
X79308478Y-55178478D02*
G75*
G03*
X77470000Y-50740000I-1838478J1838478D01*
G01*
D11*
%TO.C,U101*%
X69850000Y-72390000D02*
X92710000Y-72390000D01*
X92710000Y-72390000D02*
X92710000Y-26670000D01*
X92710000Y-26670000D02*
X69850000Y-26670000D01*
X69850000Y-26670000D02*
X69850000Y-72390000D01*
D12*
%TO.C,R301*%
X39910000Y-45620000D02*
X46450000Y-45620000D01*
X39910000Y-45950000D02*
X39910000Y-45620000D01*
X39910000Y-48030000D02*
X39910000Y-48360000D01*
X39910000Y-48360000D02*
X46450000Y-48360000D01*
X46450000Y-45620000D02*
X46450000Y-45950000D01*
X46450000Y-48360000D02*
X46450000Y-48030000D01*
%TO.C,J116*%
X29150000Y-72330000D02*
X29150000Y-72450000D01*
X29150000Y-72450000D02*
X31810000Y-72450000D01*
X30480000Y-69790000D02*
X31810000Y-69790000D01*
X31810000Y-69790000D02*
X31810000Y-71120000D01*
X31810000Y-72330000D02*
X31810000Y-72450000D01*
%TO.C,R401*%
X43280000Y-27210000D02*
X43280000Y-33750000D01*
X42950000Y-27210000D02*
X43280000Y-27210000D01*
X40870000Y-27210000D02*
X40540000Y-27210000D01*
X40540000Y-27210000D02*
X40540000Y-33750000D01*
X43280000Y-33750000D02*
X42950000Y-33750000D01*
X40540000Y-33750000D02*
X40870000Y-33750000D01*
%TO.C,J119*%
X29150000Y-79950000D02*
X29150000Y-80070000D01*
X29150000Y-80070000D02*
X31810000Y-80070000D01*
X30480000Y-77410000D02*
X31810000Y-77410000D01*
X31810000Y-77410000D02*
X31810000Y-78740000D01*
X31810000Y-79950000D02*
X31810000Y-80070000D01*
D11*
%TO.C,U102*%
X60960000Y-95250000D02*
X38100000Y-95250000D01*
X38100000Y-95250000D02*
X38100000Y-52070000D01*
X38100000Y-52070000D02*
X60960000Y-52070000D01*
X60960000Y-52070000D02*
X60960000Y-95250000D01*
D12*
%TO.C,R201*%
X40740000Y-27210000D02*
X40740000Y-33750000D01*
X40410000Y-27210000D02*
X40740000Y-27210000D01*
X38330000Y-27210000D02*
X38000000Y-27210000D01*
X38000000Y-27210000D02*
X38000000Y-33750000D01*
X40740000Y-33750000D02*
X40410000Y-33750000D01*
X38000000Y-33750000D02*
X38330000Y-33750000D01*
%TO.C,J113*%
X29150000Y-64710000D02*
X29150000Y-64830000D01*
X29150000Y-64830000D02*
X31810000Y-64830000D01*
X30480000Y-62170000D02*
X31810000Y-62170000D01*
X31810000Y-62170000D02*
X31810000Y-63500000D01*
X31810000Y-64710000D02*
X31810000Y-64830000D01*
%TO.C,R103*%
X35660000Y-8160000D02*
X35660000Y-14700000D01*
X35330000Y-8160000D02*
X35660000Y-8160000D01*
X33250000Y-8160000D02*
X32920000Y-8160000D01*
X32920000Y-8160000D02*
X32920000Y-14700000D01*
X35660000Y-14700000D02*
X35330000Y-14700000D01*
X32920000Y-14700000D02*
X33250000Y-14700000D01*
%TO.C,Q404*%
X43870000Y-74400000D02*
X43870000Y-78000000D01*
X48320000Y-76200000D02*
G75*
G03*
X43881522Y-74361522I-2600000J0D01*
G01*
X43881522Y-78038478D02*
G75*
G03*
X48320000Y-76200000I1838478J1838478D01*
G01*
%TO.C,R104*%
X34830000Y-69750000D02*
X41370000Y-69750000D01*
X34830000Y-70080000D02*
X34830000Y-69750000D01*
X34830000Y-72160000D02*
X34830000Y-72490000D01*
X34830000Y-72490000D02*
X41370000Y-72490000D01*
X41370000Y-69750000D02*
X41370000Y-70080000D01*
X41370000Y-72490000D02*
X41370000Y-72160000D01*
%TO.C,Q604*%
X82020000Y-60270000D02*
X85620000Y-60270000D01*
X83820000Y-55820000D02*
G75*
G03*
X81981522Y-60258478I0J-2600000D01*
G01*
X85658478Y-60258478D02*
G75*
G03*
X83820000Y-55820000I-1838478J1838478D01*
G01*
%TO.C,J109*%
X10100000Y-35500000D02*
X10100000Y-35620000D01*
X10100000Y-35620000D02*
X12760000Y-35620000D01*
X11430000Y-32960000D02*
X12760000Y-32960000D01*
X12760000Y-32960000D02*
X12760000Y-34290000D01*
X12760000Y-35500000D02*
X12760000Y-35620000D01*
%TO.C,Q204*%
X43870000Y-68050000D02*
X43870000Y-71650000D01*
X48320000Y-69850000D02*
G75*
G03*
X43881522Y-68011522I-2600000J0D01*
G01*
X43881522Y-71688478D02*
G75*
G03*
X48320000Y-69850000I1838478J1838478D01*
G01*
%TD*%
M02*
