M48
; DRILL file {KiCad 7.0.10} date Wed Feb  7 14:22:43 2024
; FORMAT={-:-/ absolute / inch / decimal}
; #@! TF.CreationDate,2024-02-07T14:22:43-05:00
; #@! TF.GenerationSoftware,Kicad,Pcbnew,7.0.10
; #@! TF.FileFunction,Plated,1,2,PTH
FMAT,2
INCH
; #@! TA.AperFunction,Plated,PTH,ViaDrill
T1C0.0157
; #@! TA.AperFunction,Plated,PTH,ComponentDrill
T2C0.0295
; #@! TA.AperFunction,Plated,PTH,ComponentDrill
T3C0.0315
; #@! TA.AperFunction,Plated,PTH,ComponentDrill
T4C0.0354
; #@! TA.AperFunction,Plated,PTH,ComponentDrill
T5C0.0394
%
G90
G05
T1
X0.8Y-1.85
X1.0Y-1.75
X1.0Y-1.85
X1.2Y-1.25
X1.4Y-1.25
T2
X1.05Y-1.0498
X1.05Y-1.3498
X1.8Y-2.45
X1.8Y-2.5
X1.8Y-2.55
X1.8Y-2.7
X1.8Y-2.75
X1.8Y-2.8
X1.8Y-2.95
X1.8Y-3.0
X1.8Y-3.05
X2.0Y-2.45
X2.0Y-2.5
X2.0Y-2.55
X2.0Y-2.7
X2.0Y-2.75
X2.0Y-2.8
X2.0Y-2.95
X2.0Y-3.0
X2.0Y-3.05
X2.2Y-2.45
X2.2Y-2.5
X2.2Y-2.55
X2.2Y-2.7
X2.2Y-2.75
X2.2Y-2.8
X2.2Y-2.95
X2.2Y-3.0
X2.2Y-3.05
X2.4Y-2.45
X2.4Y-2.5
X2.4Y-2.55
X2.4Y-2.7
X2.4Y-2.75
X2.4Y-2.8
X2.4Y-2.95
X2.4Y-3.0
X2.4Y-3.05
X3.0Y-1.7
X3.0Y-1.9
X3.0Y-2.1
X3.0Y-2.3
X3.05Y-1.7
X3.05Y-1.9
X3.05Y-2.1
X3.05Y-2.3
X3.1Y-1.7
X3.1Y-1.9
X3.1Y-2.1
X3.1Y-2.3
X3.25Y-1.7
X3.25Y-1.9
X3.25Y-2.1
X3.25Y-2.3
X3.3Y-1.7
X3.3Y-1.9
X3.3Y-2.1
X3.3Y-2.3
X3.35Y-1.7
X3.35Y-1.9
X3.35Y-2.1
X3.35Y-2.3
T3
X1.0516Y-0.7
X1.15Y-0.7
X1.35Y-0.3
X1.35Y-0.6
X1.35Y-2.8
X1.35Y-3.05
X1.55Y-1.05
X1.55Y-1.35
X1.55Y-1.85
X1.65Y-1.05
X1.65Y-1.35
X1.65Y-2.8
X1.65Y-3.05
X1.75Y-1.05
X1.75Y-1.35
X1.85Y-1.05
X1.85Y-1.35
X1.85Y-1.85
X2.55Y-0.3
X2.55Y-0.6
X2.65Y-0.6
X2.95Y-0.6
X3.1Y-2.45
X3.1Y-2.75
X3.35Y-2.45
X3.35Y-2.75
T4
X1.1Y-0.45
X1.2Y-0.45
X2.7Y-0.45
X2.8Y-0.45
T5
X0.45Y-1.25
X0.45Y-1.35
X0.45Y-1.45
X0.45Y-1.55
X1.05Y-0.95
X1.05Y-1.95
X1.15Y-0.95
X1.15Y-1.95
X1.2Y-2.5
X1.2Y-2.6
X1.2Y-2.7
X1.2Y-2.8
X1.2Y-2.9
X1.2Y-3.0
X1.2Y-3.1
X1.2Y-3.2
X1.25Y-0.95
X1.25Y-1.95
X1.3Y-0.75
X1.35Y-0.95
X1.35Y-1.95
X1.4Y-0.75
X1.45Y-0.95
X1.45Y-1.95
X1.5Y-0.75
X1.55Y-0.95
X1.55Y-1.95
X1.65Y-0.95
X1.65Y-1.95
X1.7Y-2.15
X1.75Y-0.95
X1.75Y-1.95
X1.8Y-2.15
X1.85Y-0.95
X1.85Y-1.95
X1.9Y-2.15
X1.95Y-0.95
X1.95Y-1.95
X2.0Y-2.15
X2.05Y-0.95
X2.05Y-1.95
X2.1Y-2.15
X2.15Y-0.95
X2.15Y-1.95
X2.2Y-2.15
X2.25Y-0.95
X2.25Y-1.95
X2.35Y-0.95
X2.35Y-1.95
X2.4Y-0.75
X2.45Y-0.95
X2.45Y-1.95
X2.5Y-0.75
X2.6Y-0.75
X2.75Y-2.95
X2.85Y-1.15
X2.85Y-2.75
X3.55Y-1.15
X3.55Y-2.75
M30
