%TF.GenerationSoftware,KiCad,Pcbnew,7.0.10*%
%TF.CreationDate,2024-02-07T11:55:43-05:00*%
%TF.ProjectId,board_up,626f6172-645f-4757-902e-6b696361645f,rev?*%
%TF.SameCoordinates,Original*%
%TF.FileFunction,Copper,L1,Top*%
%TF.FilePolarity,Positive*%
%FSLAX46Y46*%
G04 Gerber Fmt 4.6, Leading zero omitted, Abs format (unit mm)*
G04 Created by KiCad (PCBNEW 7.0.10) date 2024-02-07 11:55:43*
%MOMM*%
%LPD*%
G01*
G04 APERTURE LIST*
%TA.AperFunction,ComponentPad*%
%ADD10R,1.500000X1.050000*%
%TD*%
%TA.AperFunction,ComponentPad*%
%ADD11O,1.500000X1.050000*%
%TD*%
%TA.AperFunction,ComponentPad*%
%ADD12C,1.600000*%
%TD*%
%TA.AperFunction,ComponentPad*%
%ADD13O,1.600000X1.600000*%
%TD*%
%TA.AperFunction,ComponentPad*%
%ADD14R,1.700000X1.700000*%
%TD*%
%TA.AperFunction,ComponentPad*%
%ADD15R,1.050000X1.500000*%
%TD*%
%TA.AperFunction,ComponentPad*%
%ADD16O,1.050000X1.500000*%
%TD*%
%TA.AperFunction,ComponentPad*%
%ADD17R,1.530000X1.530000*%
%TD*%
%TA.AperFunction,ComponentPad*%
%ADD18C,1.530000*%
%TD*%
%TA.AperFunction,ComponentPad*%
%ADD19R,1.800000X1.800000*%
%TD*%
%TA.AperFunction,ComponentPad*%
%ADD20C,1.800000*%
%TD*%
%TA.AperFunction,ComponentPad*%
%ADD21R,1.600000X1.600000*%
%TD*%
%TA.AperFunction,ComponentPad*%
%ADD22R,1.500000X1.500000*%
%TD*%
%TA.AperFunction,ComponentPad*%
%ADD23O,1.500000X1.500000*%
%TD*%
%TA.AperFunction,ComponentPad*%
%ADD24C,1.524000*%
%TD*%
%TA.AperFunction,ViaPad*%
%ADD25C,0.800000*%
%TD*%
%TA.AperFunction,Conductor*%
%ADD26C,0.800000*%
%TD*%
%TA.AperFunction,Conductor*%
%ADD27C,1.000000*%
%TD*%
G04 APERTURE END LIST*
D10*
%TO.P,Q402,1,E*%
%TO.N,GND*%
X55880000Y-74930000D03*
D11*
%TO.P,Q402,2,B*%
%TO.N,Net-(Q401-B)*%
X55880000Y-76200000D03*
%TO.P,Q402,3,C*%
%TO.N,/relay2/OUT*%
X55880000Y-77470000D03*
%TD*%
D12*
%TO.P,R102,1*%
%TO.N,Net-(D101-A)*%
X64770000Y-7620000D03*
D13*
%TO.P,R102,2*%
%TO.N,Battery_In*%
X64770000Y-15240000D03*
%TD*%
D14*
%TO.P,J120,1,Pin_1*%
%TO.N,Net-(J120-Pin_1)*%
X30480000Y-81280000D03*
%TD*%
D15*
%TO.P,Q502,1,E*%
%TO.N,GND*%
X76200000Y-48260000D03*
D16*
%TO.P,Q502,2,B*%
%TO.N,Net-(Q501-B)*%
X77470000Y-48260000D03*
%TO.P,Q502,3,C*%
%TO.N,/relay3/OUT*%
X78740000Y-48260000D03*
%TD*%
D12*
%TO.P,R107,1*%
%TO.N,Net-(J120-Pin_1)*%
X85090000Y-69850000D03*
D13*
%TO.P,R107,2*%
%TO.N,/relay4/OUT*%
X85090000Y-62230000D03*
%TD*%
D14*
%TO.P,J111,1,Pin_1*%
%TO.N,CAPACITIVE_PIN1*%
X63500000Y-19050000D03*
%TD*%
D15*
%TO.P,Q501,1,E*%
%TO.N,GND*%
X76200000Y-43180000D03*
D16*
%TO.P,Q501,2,B*%
%TO.N,Net-(Q501-B)*%
X77470000Y-43180000D03*
%TO.P,Q501,3,C*%
%TO.N,/relay3/OUT*%
X78740000Y-43180000D03*
%TD*%
D14*
%TO.P,J117,1,Pin_1*%
%TO.N,Net-(J117-Pin_1)*%
X30480000Y-73660000D03*
%TD*%
D12*
%TO.P,R501,1*%
%TO.N,LED_PWM_PIN3*%
X44450000Y-26670000D03*
D13*
%TO.P,R501,2*%
%TO.N,Net-(Q501-B)*%
X44450000Y-34290000D03*
%TD*%
D14*
%TO.P,J102,1,Pin_1*%
%TO.N,Battery_In*%
X38100000Y-19050000D03*
%TD*%
D15*
%TO.P,Q602,1,E*%
%TO.N,GND*%
X82550000Y-48260000D03*
D16*
%TO.P,Q602,2,B*%
%TO.N,Net-(Q601-B)*%
X83820000Y-48260000D03*
%TO.P,Q602,3,C*%
%TO.N,/relay4/OUT*%
X85090000Y-48260000D03*
%TD*%
D14*
%TO.P,J103,1,Pin_1*%
%TO.N,5V*%
X69850000Y-74930000D03*
%TD*%
%TO.P,J105,1,Pin_1*%
%TO.N,Battery_In*%
X33020000Y-19050000D03*
%TD*%
%TO.P,J114,1,Pin_1*%
%TO.N,/relay/OUT*%
X30480000Y-66040000D03*
%TD*%
D15*
%TO.P,Q603,1,E*%
%TO.N,GND*%
X82550000Y-53340000D03*
D16*
%TO.P,Q603,2,B*%
%TO.N,Net-(Q601-B)*%
X83820000Y-53340000D03*
%TO.P,Q603,3,C*%
%TO.N,/relay4/OUT*%
X85090000Y-53340000D03*
%TD*%
D10*
%TO.P,Q303,1,E*%
%TO.N,GND*%
X50800000Y-62230000D03*
D11*
%TO.P,Q303,2,B*%
%TO.N,Net-(Q301-B)*%
X50800000Y-63500000D03*
%TO.P,Q303,3,C*%
%TO.N,/relay/OUT*%
X50800000Y-64770000D03*
%TD*%
D12*
%TO.P,R601,1*%
%TO.N,LED_PWM_PIN4*%
X46990000Y-26670000D03*
D13*
%TO.P,R601,2*%
%TO.N,Net-(Q601-B)*%
X46990000Y-34290000D03*
%TD*%
D14*
%TO.P,J110,1,Pin_1*%
%TO.N,Net-(J110-Pin_1)*%
X11430000Y-39370000D03*
%TD*%
D10*
%TO.P,Q302,1,E*%
%TO.N,GND*%
X55880000Y-62230000D03*
D11*
%TO.P,Q302,2,B*%
%TO.N,Net-(Q301-B)*%
X55880000Y-63500000D03*
%TO.P,Q302,3,C*%
%TO.N,/relay/OUT*%
X55880000Y-64770000D03*
%TD*%
D10*
%TO.P,Q203,1,E*%
%TO.N,GND*%
X50800000Y-68580000D03*
D11*
%TO.P,Q203,2,B*%
%TO.N,Net-(Q201-B)*%
X50800000Y-69850000D03*
%TO.P,Q203,3,C*%
%TO.N,/relay1/OUT*%
X50800000Y-71120000D03*
%TD*%
D12*
%TO.P,R105,1*%
%TO.N,Net-(J117-Pin_1)*%
X34290000Y-77470000D03*
D13*
%TO.P,R105,2*%
%TO.N,/relay2/OUT*%
X41910000Y-77470000D03*
%TD*%
D10*
%TO.P,Q202,1,E*%
%TO.N,GND*%
X55880000Y-68580000D03*
D11*
%TO.P,Q202,2,B*%
%TO.N,Net-(Q201-B)*%
X55880000Y-69850000D03*
%TO.P,Q202,3,C*%
%TO.N,/relay1/OUT*%
X55880000Y-71120000D03*
%TD*%
D14*
%TO.P,J118,1,Pin_1*%
%TO.N,3.3V*%
X30480000Y-76200000D03*
%TD*%
%TO.P,J115,1,Pin_1*%
%TO.N,3.3V*%
X30480000Y-68580000D03*
%TD*%
%TO.P,J112,1,Pin_1*%
%TO.N,CAPACITIVE_PIN2*%
X35560000Y-19050000D03*
%TD*%
D15*
%TO.P,Q601,1,E*%
%TO.N,GND*%
X82550000Y-43180000D03*
D16*
%TO.P,Q601,2,B*%
%TO.N,Net-(Q601-B)*%
X83820000Y-43180000D03*
%TO.P,Q601,3,C*%
%TO.N,/relay4/OUT*%
X85090000Y-43180000D03*
%TD*%
D12*
%TO.P,R101,1*%
%TO.N,GND*%
X74930000Y-15240000D03*
D13*
%TO.P,R101,2*%
%TO.N,Battery_In*%
X67310000Y-15240000D03*
%TD*%
D15*
%TO.P,Q504,1,E*%
%TO.N,GND*%
X76200000Y-58420000D03*
D16*
%TO.P,Q504,2,B*%
%TO.N,Net-(Q501-B)*%
X77470000Y-58420000D03*
%TO.P,Q504,3,C*%
%TO.N,/relay3/OUT*%
X78740000Y-58420000D03*
%TD*%
D12*
%TO.P,R106,1*%
%TO.N,Net-(J119-Pin_1)*%
X78740000Y-69850000D03*
D13*
%TO.P,R106,2*%
%TO.N,/relay3/OUT*%
X78740000Y-62230000D03*
%TD*%
D14*
%TO.P,J108,1,Pin_1*%
%TO.N,Net-(J108-Pin_1)*%
X11430000Y-36830000D03*
%TD*%
%TO.P,J106,1,Pin_1*%
%TO.N,3.3V*%
X11430000Y-31750000D03*
%TD*%
%TO.P,J104,1,Pin_1*%
%TO.N,Net-(J101-Pin_1)*%
X66040000Y-19050000D03*
%TD*%
%TO.P,J101,1,Pin_1*%
%TO.N,Net-(J101-Pin_1)*%
X60960000Y-19050000D03*
%TD*%
D17*
%TO.P,U103,1,EN*%
%TO.N,unconnected-(U103-EN-Pad1)*%
X62230000Y-24130000D03*
D18*
%TO.P,U103,2,VP*%
%TO.N,unconnected-(U103-VP-Pad2)*%
X59690000Y-24130000D03*
%TO.P,U103,3,VN*%
%TO.N,unconnected-(U103-VN-Pad3)*%
X57150000Y-24130000D03*
%TO.P,U103,4,D34*%
%TO.N,unconnected-(U103-D34-Pad4)*%
X54610000Y-24130000D03*
%TO.P,U103,5,D35*%
%TO.N,unconnected-(U103-D35-Pad5)*%
X52070000Y-24130000D03*
%TO.P,U103,6,D32*%
%TO.N,unconnected-(U103-D32-Pad6)*%
X49530000Y-24130000D03*
%TO.P,U103,7,D33*%
%TO.N,LED_PWM_PIN4*%
X46990000Y-24130000D03*
%TO.P,U103,8,D25*%
%TO.N,LED_PWM_PIN3*%
X44450000Y-24130000D03*
%TO.P,U103,9,D26*%
%TO.N,LED_PWM_PIN2*%
X41910000Y-24130000D03*
%TO.P,U103,10,D27*%
%TO.N,LED_PWM_PIN1*%
X39370000Y-24130000D03*
%TO.P,U103,11,D14*%
%TO.N,Net-(J108-Pin_1)*%
X36830000Y-24130000D03*
%TO.P,U103,12,D12*%
%TO.N,CAPACITIVE_PIN1*%
X34290000Y-24130000D03*
%TO.P,U103,13,D13*%
%TO.N,unconnected-(U103-D13-Pad13)*%
X31750000Y-24130000D03*
%TO.P,U103,14,GND*%
%TO.N,GND*%
X29210000Y-24130000D03*
%TO.P,U103,15,VIN*%
%TO.N,Net-(D103-K)*%
X26670000Y-24130000D03*
%TO.P,U103,16,3V3*%
%TO.N,unconnected-(U103-3V3-Pad16)*%
X26670000Y-49530000D03*
%TO.P,U103,17,GND*%
%TO.N,unconnected-(U103-GND-Pad17)*%
X29210000Y-49530000D03*
%TO.P,U103,18,D15*%
%TO.N,Net-(J110-Pin_1)*%
X31750000Y-49530000D03*
%TO.P,U103,19,D2*%
%TO.N,unconnected-(U103-D2-Pad19)*%
X34290000Y-49530000D03*
%TO.P,U103,20,D4*%
%TO.N,CAPACITIVE_PIN2*%
X36830000Y-49530000D03*
%TO.P,U103,21,D16*%
%TO.N,MOTOR_PWM_PIN*%
X39370000Y-49530000D03*
%TO.P,U103,22,D17*%
%TO.N,Battery_In*%
X41910000Y-49530000D03*
%TO.P,U103,23,D5*%
%TO.N,Net-(U102-CS)*%
X44450000Y-49530000D03*
%TO.P,U103,24,D18*%
%TO.N,Net-(U102-SCK)*%
X46990000Y-49530000D03*
%TO.P,U103,25,D19*%
%TO.N,Net-(U102-MISO)*%
X49530000Y-49530000D03*
%TO.P,U103,26,D21*%
%TO.N,unconnected-(U103-D21-Pad26)*%
X52070000Y-49530000D03*
%TO.P,U103,27,RX0*%
%TO.N,unconnected-(U103-RX0-Pad27)*%
X54610000Y-49530000D03*
%TO.P,U103,28,TX0*%
%TO.N,unconnected-(U103-TX0-Pad28)*%
X57150000Y-49530000D03*
%TO.P,U103,29,D22*%
%TO.N,Net-(J109-Pin_1)*%
X59690000Y-49530000D03*
%TO.P,U103,30,D23*%
%TO.N,Net-(U102-MOSI)*%
X62230000Y-49530000D03*
%TD*%
D10*
%TO.P,Q304,1,E*%
%TO.N,GND*%
X45720000Y-62230000D03*
D11*
%TO.P,Q304,2,B*%
%TO.N,Net-(Q301-B)*%
X45720000Y-63500000D03*
%TO.P,Q304,3,C*%
%TO.N,/relay/OUT*%
X45720000Y-64770000D03*
%TD*%
D19*
%TO.P,D101,1,K*%
%TO.N,GND*%
X68580000Y-11430000D03*
D20*
%TO.P,D101,2,A*%
%TO.N,Net-(D101-A)*%
X71120000Y-11430000D03*
%TD*%
D10*
%TO.P,Q401,1,E*%
%TO.N,GND*%
X60960000Y-74930000D03*
D11*
%TO.P,Q401,2,B*%
%TO.N,Net-(Q401-B)*%
X60960000Y-76200000D03*
%TO.P,Q401,3,C*%
%TO.N,/relay2/OUT*%
X60960000Y-77470000D03*
%TD*%
D10*
%TO.P,Q201,1,E*%
%TO.N,GND*%
X60960000Y-68580000D03*
D11*
%TO.P,Q201,2,B*%
%TO.N,Net-(Q201-B)*%
X60960000Y-69850000D03*
%TO.P,Q201,3,C*%
%TO.N,/relay1/OUT*%
X60960000Y-71120000D03*
%TD*%
D10*
%TO.P,Q301,1,E*%
%TO.N,GND*%
X60960000Y-62230000D03*
D11*
%TO.P,Q301,2,B*%
%TO.N,Net-(Q301-B)*%
X60960000Y-63500000D03*
%TO.P,Q301,3,C*%
%TO.N,/relay/OUT*%
X60960000Y-64770000D03*
%TD*%
D19*
%TO.P,D102,1,K*%
%TO.N,GND*%
X30480000Y-11430000D03*
D20*
%TO.P,D102,2,A*%
%TO.N,Net-(D102-A)*%
X27940000Y-11430000D03*
%TD*%
D21*
%TO.P,C102,1*%
%TO.N,3.3V*%
X26710000Y-17780000D03*
D12*
%TO.P,C102,2*%
%TO.N,GND*%
X29210000Y-17780000D03*
%TD*%
D22*
%TO.P,D103,1,K*%
%TO.N,Net-(D103-K)*%
X26670000Y-26665000D03*
D23*
%TO.P,D103,2,A*%
%TO.N,5V*%
X26670000Y-34285000D03*
%TD*%
D10*
%TO.P,Q403,1,E*%
%TO.N,GND*%
X50800000Y-74930000D03*
D11*
%TO.P,Q403,2,B*%
%TO.N,Net-(Q401-B)*%
X50800000Y-76200000D03*
%TO.P,Q403,3,C*%
%TO.N,/relay2/OUT*%
X50800000Y-77470000D03*
%TD*%
D15*
%TO.P,Q503,1,E*%
%TO.N,GND*%
X76200000Y-53340000D03*
D16*
%TO.P,Q503,2,B*%
%TO.N,Net-(Q501-B)*%
X77470000Y-53340000D03*
%TO.P,Q503,3,C*%
%TO.N,/relay3/OUT*%
X78740000Y-53340000D03*
%TD*%
D24*
%TO.P,U101,1,IN+*%
%TO.N,5V*%
X72390000Y-69850000D03*
%TO.P,U101,2,IN-*%
%TO.N,GND*%
X90170000Y-69850000D03*
%TO.P,U101,3,OUT+*%
%TO.N,3.3V*%
X72390000Y-29210000D03*
%TO.P,U101,4,OUT-*%
%TO.N,GND*%
X90170000Y-29210000D03*
%TD*%
D12*
%TO.P,R301,1*%
%TO.N,MOTOR_PWM_PIN*%
X39370000Y-46990000D03*
D13*
%TO.P,R301,2*%
%TO.N,Net-(Q301-B)*%
X46990000Y-46990000D03*
%TD*%
D14*
%TO.P,J116,1,Pin_1*%
%TO.N,Net-(J116-Pin_1)*%
X30480000Y-71120000D03*
%TD*%
D12*
%TO.P,R401,1*%
%TO.N,LED_PWM_PIN2*%
X41910000Y-26670000D03*
D13*
%TO.P,R401,2*%
%TO.N,Net-(Q401-B)*%
X41910000Y-34290000D03*
%TD*%
D14*
%TO.P,J119,1,Pin_1*%
%TO.N,Net-(J119-Pin_1)*%
X30480000Y-78740000D03*
%TD*%
D24*
%TO.P,U102,1,CS*%
%TO.N,Net-(U102-CS)*%
X43180000Y-54610000D03*
%TO.P,U102,2,SCK*%
%TO.N,Net-(U102-SCK)*%
X45720000Y-54610000D03*
%TO.P,U102,3,MOSI*%
%TO.N,Net-(U102-MOSI)*%
X48260000Y-54610000D03*
%TO.P,U102,4,MISO*%
%TO.N,Net-(U102-MISO)*%
X50800000Y-54610000D03*
%TO.P,U102,5,VCC*%
%TO.N,5V*%
X53340000Y-54610000D03*
%TO.P,U102,6,GND*%
%TO.N,GND*%
X55880000Y-54610000D03*
%TD*%
D12*
%TO.P,R201,1*%
%TO.N,LED_PWM_PIN1*%
X39370000Y-26670000D03*
D13*
%TO.P,R201,2*%
%TO.N,Net-(Q201-B)*%
X39370000Y-34290000D03*
%TD*%
D14*
%TO.P,J113,1,Pin_1*%
%TO.N,5V*%
X30480000Y-63500000D03*
%TD*%
D12*
%TO.P,R103,1*%
%TO.N,Net-(D102-A)*%
X34290000Y-7620000D03*
D13*
%TO.P,R103,2*%
%TO.N,3.3V*%
X34290000Y-15240000D03*
%TD*%
D10*
%TO.P,Q404,1,E*%
%TO.N,GND*%
X45720000Y-74930000D03*
D11*
%TO.P,Q404,2,B*%
%TO.N,Net-(Q401-B)*%
X45720000Y-76200000D03*
%TO.P,Q404,3,C*%
%TO.N,/relay2/OUT*%
X45720000Y-77470000D03*
%TD*%
D12*
%TO.P,R104,1*%
%TO.N,Net-(J116-Pin_1)*%
X34290000Y-71120000D03*
D13*
%TO.P,R104,2*%
%TO.N,/relay1/OUT*%
X41910000Y-71120000D03*
%TD*%
D15*
%TO.P,Q604,1,E*%
%TO.N,GND*%
X82550000Y-58420000D03*
D16*
%TO.P,Q604,2,B*%
%TO.N,Net-(Q601-B)*%
X83820000Y-58420000D03*
%TO.P,Q604,3,C*%
%TO.N,/relay4/OUT*%
X85090000Y-58420000D03*
%TD*%
D14*
%TO.P,J109,1,Pin_1*%
%TO.N,Net-(J109-Pin_1)*%
X11430000Y-34290000D03*
%TD*%
D10*
%TO.P,Q204,1,E*%
%TO.N,GND*%
X45720000Y-68580000D03*
D11*
%TO.P,Q204,2,B*%
%TO.N,Net-(Q201-B)*%
X45720000Y-69850000D03*
%TO.P,Q204,3,C*%
%TO.N,/relay1/OUT*%
X45720000Y-71120000D03*
%TD*%
D25*
%TO.N,3.3V*%
X30480000Y-31750000D03*
X35560000Y-31750000D03*
%TO.N,Battery_In*%
X25400000Y-44450000D03*
%TO.N,CAPACITIVE_PIN2*%
X25400000Y-46990000D03*
X20320000Y-46990000D03*
%TD*%
D26*
%TO.N,Net-(Q601-B)*%
X83820000Y-43180000D02*
X83820000Y-58420000D01*
%TO.N,/relay4/OUT*%
X85090000Y-43180000D02*
X85090000Y-62230000D01*
%TO.N,/relay3/OUT*%
X78740000Y-43180000D02*
X78740000Y-62230000D01*
%TO.N,Net-(Q501-B)*%
X77470000Y-43180000D02*
X77470000Y-58420000D01*
D27*
%TO.N,5V*%
X30480000Y-57150000D02*
X36830000Y-57150000D01*
X72390000Y-72390000D02*
X69850000Y-74930000D01*
X72390000Y-69850000D02*
X72390000Y-72390000D01*
X59690000Y-57150000D02*
X54610000Y-57150000D01*
X22860000Y-49530000D02*
X22860000Y-38095000D01*
X72390000Y-69850000D02*
X59690000Y-57150000D01*
X30480000Y-63500000D02*
X36830000Y-57150000D01*
X22860000Y-38095000D02*
X26670000Y-34285000D01*
X30480000Y-57150000D02*
X22860000Y-49530000D01*
X54610000Y-57150000D02*
X36830000Y-57150000D01*
X53340000Y-55880000D02*
X53340000Y-54610000D01*
X54610000Y-57150000D02*
X53340000Y-55880000D01*
%TO.N,GND*%
X74930000Y-15240000D02*
X76200000Y-15240000D01*
D26*
X60960000Y-62230000D02*
X45720000Y-62230000D01*
D27*
X68810000Y-23900000D02*
X68810000Y-12930000D01*
X49530000Y-29210000D02*
X52070000Y-26670000D01*
D26*
X63500000Y-66040000D02*
X63500000Y-72390000D01*
X60960000Y-62230000D02*
X62230000Y-62230000D01*
X60960000Y-74930000D02*
X63500000Y-72390000D01*
X60960000Y-68580000D02*
X63500000Y-66040000D01*
X76200000Y-43180000D02*
X72390000Y-39370000D01*
D27*
X68580000Y-12700000D02*
X71120000Y-15240000D01*
X29210000Y-24130000D02*
X29210000Y-26670000D01*
D26*
X60960000Y-68580000D02*
X45720000Y-68580000D01*
X90170000Y-29210000D02*
X90170000Y-69850000D01*
X62230000Y-62230000D02*
X63500000Y-63500000D01*
D27*
X68810000Y-12930000D02*
X68580000Y-12700000D01*
X62230000Y-54610000D02*
X64770000Y-52070000D01*
D26*
X76200000Y-58420000D02*
X76200000Y-43180000D01*
D27*
X71120000Y-15240000D02*
X74930000Y-15240000D01*
X68580000Y-11430000D02*
X68580000Y-12700000D01*
X64770000Y-52070000D02*
X64770000Y-44450000D01*
D26*
X63500000Y-63500000D02*
X63500000Y-66040000D01*
D27*
X66040000Y-26670000D02*
X68810000Y-23900000D01*
D26*
X78740000Y-39370000D02*
X72390000Y-39370000D01*
D27*
X55880000Y-54610000D02*
X62230000Y-54610000D01*
X31750000Y-29210000D02*
X49530000Y-29210000D01*
X29210000Y-26670000D02*
X31750000Y-29210000D01*
X59690000Y-39370000D02*
X64770000Y-44450000D01*
X76200000Y-15240000D02*
X90170000Y-29210000D01*
D26*
X82550000Y-43180000D02*
X78740000Y-39370000D01*
X72390000Y-39370000D02*
X59690000Y-39370000D01*
D27*
X49530000Y-29210000D02*
X59690000Y-39370000D01*
D26*
X82550000Y-58420000D02*
X82550000Y-43180000D01*
X60960000Y-74930000D02*
X45720000Y-74930000D01*
D27*
X29210000Y-17780000D02*
X29210000Y-24130000D01*
X52070000Y-26670000D02*
X66040000Y-26670000D01*
%TO.N,3.3V*%
X29210000Y-68580000D02*
X30480000Y-68580000D01*
X27940000Y-83820000D02*
X27940000Y-77470000D01*
X77470000Y-29210000D02*
X87630000Y-39370000D01*
X72390000Y-29210000D02*
X77470000Y-29210000D01*
X25400000Y-17780000D02*
X27940000Y-15240000D01*
X29210000Y-85090000D02*
X27940000Y-83820000D01*
X26710000Y-17780000D02*
X25400000Y-17780000D01*
X11430000Y-31750000D02*
X25400000Y-17780000D01*
X29210000Y-76200000D02*
X30480000Y-76200000D01*
X27940000Y-77470000D02*
X27940000Y-69850000D01*
X87630000Y-39370000D02*
X87630000Y-71120000D01*
X27940000Y-15240000D02*
X34290000Y-15240000D01*
X27940000Y-77470000D02*
X29210000Y-76200000D01*
X87630000Y-71120000D02*
X73660000Y-85090000D01*
X30480000Y-31750000D02*
X35560000Y-31750000D01*
X27940000Y-69850000D02*
X29210000Y-68580000D01*
X73660000Y-85090000D02*
X29210000Y-85090000D01*
%TO.N,Net-(D101-A)*%
X68580000Y-7620000D02*
X71120000Y-10160000D01*
X71120000Y-10160000D02*
X71120000Y-11430000D01*
X64770000Y-7620000D02*
X68580000Y-7620000D01*
%TO.N,Net-(D102-A)*%
X30480000Y-7620000D02*
X27940000Y-10160000D01*
X30480000Y-7620000D02*
X34290000Y-7620000D01*
X27940000Y-10160000D02*
X27940000Y-11430000D01*
%TO.N,Net-(D103-K)*%
X26670000Y-24130000D02*
X26670000Y-26665000D01*
%TO.N,Net-(J101-Pin_1)*%
X66040000Y-20320000D02*
X66040000Y-19050000D01*
X60960000Y-20320000D02*
X62230000Y-21590000D01*
X62230000Y-21590000D02*
X64770000Y-21590000D01*
X60960000Y-19050000D02*
X60960000Y-20320000D01*
X64770000Y-21590000D02*
X66040000Y-20320000D01*
%TO.N,Battery_In*%
X67310000Y-15240000D02*
X64770000Y-15240000D01*
X41910000Y-45720000D02*
X41910000Y-49530000D01*
X41910000Y-15240000D02*
X38100000Y-19050000D01*
X40640000Y-44450000D02*
X41910000Y-45720000D01*
X64770000Y-15240000D02*
X41910000Y-15240000D01*
X25400000Y-44450000D02*
X40640000Y-44450000D01*
%TO.N,Net-(J109-Pin_1)*%
X60960000Y-43180000D02*
X48260000Y-30480000D01*
X22860000Y-30480000D02*
X19050000Y-34290000D01*
X19050000Y-34290000D02*
X11430000Y-34290000D01*
X59690000Y-49530000D02*
X60960000Y-48260000D01*
X48260000Y-30480000D02*
X22860000Y-30480000D01*
X60960000Y-48260000D02*
X60960000Y-43180000D01*
%TO.N,CAPACITIVE_PIN1*%
X63500000Y-19050000D02*
X63500000Y-17780000D01*
X44450000Y-16510000D02*
X39370000Y-21590000D01*
X34290000Y-22860000D02*
X34290000Y-24130000D01*
X39370000Y-21590000D02*
X35560000Y-21590000D01*
X35560000Y-21590000D02*
X34290000Y-22860000D01*
X63500000Y-17780000D02*
X62230000Y-16510000D01*
X62230000Y-16510000D02*
X44450000Y-16510000D01*
%TO.N,CAPACITIVE_PIN2*%
X36830000Y-13970000D02*
X35560000Y-12700000D01*
X25400000Y-46990000D02*
X35560000Y-46990000D01*
X26670000Y-13970000D02*
X11430000Y-29210000D01*
X10160000Y-29210000D02*
X8890000Y-30480000D01*
X13970000Y-46990000D02*
X20320000Y-46990000D01*
X35560000Y-17780000D02*
X36830000Y-16510000D01*
X35560000Y-12700000D02*
X33020000Y-12700000D01*
X36830000Y-16510000D02*
X36830000Y-13970000D01*
X36830000Y-48260000D02*
X36830000Y-49530000D01*
X33020000Y-12700000D02*
X31750000Y-13970000D01*
X12700000Y-45720000D02*
X13970000Y-46990000D01*
X8890000Y-30480000D02*
X8890000Y-41910000D01*
X35560000Y-19050000D02*
X35560000Y-17780000D01*
X31750000Y-13970000D02*
X30480000Y-13970000D01*
X35560000Y-46990000D02*
X36830000Y-48260000D01*
X30480000Y-13970000D02*
X26670000Y-13970000D01*
X8890000Y-41910000D02*
X12700000Y-45720000D01*
X11430000Y-29210000D02*
X10160000Y-29210000D01*
D26*
%TO.N,/relay/OUT*%
X31750000Y-66040000D02*
X30480000Y-66040000D01*
X45720000Y-64770000D02*
X60960000Y-64770000D01*
X33020000Y-64770000D02*
X31750000Y-66040000D01*
X45720000Y-64770000D02*
X33020000Y-64770000D01*
D27*
%TO.N,Net-(J116-Pin_1)*%
X34290000Y-71120000D02*
X30480000Y-71120000D01*
%TO.N,Net-(J117-Pin_1)*%
X33020000Y-73660000D02*
X30480000Y-73660000D01*
X34290000Y-77470000D02*
X34290000Y-74930000D01*
X34290000Y-74930000D02*
X33020000Y-73660000D01*
%TO.N,Net-(J119-Pin_1)*%
X69850000Y-80010000D02*
X34290000Y-80010000D01*
X34290000Y-80010000D02*
X33020000Y-78740000D01*
X78740000Y-71120000D02*
X69850000Y-80010000D01*
X78740000Y-69850000D02*
X78740000Y-71120000D01*
X33020000Y-78740000D02*
X30480000Y-78740000D01*
%TO.N,Net-(J120-Pin_1)*%
X85090000Y-69850000D02*
X72390000Y-82550000D01*
X31750000Y-82550000D02*
X30480000Y-81280000D01*
X72390000Y-82550000D02*
X31750000Y-82550000D01*
D26*
%TO.N,Net-(Q201-B)*%
X60960000Y-69850000D02*
X45720000Y-69850000D01*
%TO.N,/relay1/OUT*%
X45720000Y-71120000D02*
X60960000Y-71120000D01*
X45720000Y-71120000D02*
X41910000Y-71120000D01*
%TO.N,Net-(Q301-B)*%
X60960000Y-63500000D02*
X45720000Y-63500000D01*
%TO.N,Net-(Q401-B)*%
X60960000Y-76200000D02*
X45720000Y-76200000D01*
%TO.N,/relay2/OUT*%
X45720000Y-77470000D02*
X41910000Y-77470000D01*
X45720000Y-77470000D02*
X60960000Y-77470000D01*
D27*
%TO.N,LED_PWM_PIN1*%
X39370000Y-24130000D02*
X39370000Y-26670000D01*
%TO.N,MOTOR_PWM_PIN*%
X39370000Y-49530000D02*
X39370000Y-46990000D01*
%TO.N,LED_PWM_PIN2*%
X41910000Y-24130000D02*
X41910000Y-26670000D01*
%TO.N,LED_PWM_PIN3*%
X44450000Y-24130000D02*
X44450000Y-26670000D01*
%TO.N,LED_PWM_PIN4*%
X46990000Y-24130000D02*
X46990000Y-26670000D01*
%TO.N,Net-(U102-CS)*%
X43180000Y-52070000D02*
X44450000Y-50800000D01*
X44450000Y-50800000D02*
X44450000Y-49530000D01*
X43180000Y-54610000D02*
X43180000Y-52070000D01*
%TO.N,Net-(U102-SCK)*%
X46990000Y-50800000D02*
X46990000Y-49530000D01*
X45720000Y-52070000D02*
X46990000Y-50800000D01*
X45720000Y-54610000D02*
X45720000Y-52070000D01*
%TO.N,Net-(U102-MISO)*%
X50800000Y-54610000D02*
X50800000Y-52070000D01*
X50800000Y-52070000D02*
X49530000Y-50800000D01*
X49530000Y-50800000D02*
X49530000Y-49530000D01*
%TD*%
M02*
